<?xml version="1.0" encoding="utf-8"?>
<!-- Generator: Adobe Illustrator 22.0.1, SVG Export Plug-In . SVG Version: 6.00 Build 0)  -->
<svg version="1.1" id="Layer_1" xmlns="http://www.w3.org/2000/svg" xmlns:xlink="http://www.w3.org/1999/xlink" x="0px" y="0px"
	 viewBox="0 0 1920 520.6" style="enable-background:new 0 0 1920 520.6;" xml:space="preserve">
<style type="text/css">
	.st0{fill:#003DA6;}
	.st1{fill:#FFD100;}
	.st2{fill-rule:evenodd;clip-rule:evenodd;fill:#003DA6;}
	.st3{fill-rule:evenodd;clip-rule:evenodd;fill:#221F1F;}
	.st4{fill-rule:evenodd;clip-rule:evenodd;fill:#FFD100;}
	.st5{fill-rule:evenodd;clip-rule:evenodd;fill:#1F4F9D;}
	.st6{fill-rule:evenodd;clip-rule:evenodd;fill:#CE0E2D;}
	.st7{fill-rule:evenodd;clip-rule:evenodd;fill:#037C52;}
	.st8{fill-rule:evenodd;clip-rule:evenodd;fill:#E7E6E6;}
	.st9{fill:#FFFFFF;}
</style>
<g>
	<g>
		<g>
			<g>
				<path class="st0" d="M320.1,97.5c-70.3,0-127.4,66.2-127.4,147.5c0,81.4,57.2,147.5,127.4,147.5c70.3,0,127.4-66.2,127.4-147.5
					C447.5,163.7,390.4,97.5,320.1,97.5L320.1,97.5z"/>
			</g>
		</g>
		<g>
			<g>
				<path class="st1" d="M320.1,358.5c-24,0-46.9-11.2-64.3-31.7c-18.5-21.6-28.7-50.7-28.7-81.8c0-31.1,10.2-60.2,28.7-81.8
					c17.4-20.4,40.3-31.6,64.3-31.6s46.9,11.2,64.3,31.6c18.5,21.6,28.7,50.7,28.7,81.8c0,31.1-10.2,60.2-28.7,81.8
					C366.9,347.2,344.1,358.5,320.1,358.5L320.1,358.5L320.1,358.5z M320.1,99.9c-68.9,0-125,65.1-125,145.1
					c0,80,56.1,145.1,125,145.1c68.9,0,125-65.1,125-145.1C445.1,165,389,99.9,320.1,99.9L320.1,99.9L320.1,99.9z"/>
			</g>
		</g>
		<g>
			<g>
				<path class="st0" d="M248.8,156.8c0.4,0.4,0.5,0.4,0.4,0.7c-0.3,1.5-1.4,3.3-2.4,4.6c-3.2,4-8,6-12.6,2.4
					c-2.7-2.1-3.4-5-3.2-7.2c0.3-2.3,1.3-3.9,2.4-5.3c0.9-1.1,2.3-2.4,2.6-2.7c0.3-0.3,0.9-0.8,1.2-1.2c0.2-0.2,0.3-0.2,0.4-0.1
					c0.2,0.1,0.6,0.6,2.6,2.3c0.3,0.2,0.3,0.3,0.2,0.5c-0.1,0.1-0.2,0.1-0.3,0c-0.4-0.3-1-0.6-1.8-0.5c-0.9,0.1-2.7,0.8-4.2,2.6
					c-0.7,0.9-1.6,2.2-1.6,4.1c0,1.5,0.8,3.1,2.9,4.8c3.6,2.9,8.1,2.8,10.8-0.7c0.3-0.4,0.8-1,0.9-1.5c0.1-0.3-0.1-0.6-0.4-0.8
					l-1.6-1.2c-0.8-0.7-1.5-1.2-2-1.6c-0.6-0.4-1-0.5-1.5-0.1c-0.1,0.1-0.4,0.4-0.6,0.6c-0.1,0.1-0.2,0.2-0.3,0.1
					c-0.1-0.1-0.1-0.2,0.1-0.5c0.7-0.9,1.6-1.8,2-2.3c0.4-0.5,1.1-1.4,1.5-2c0.2-0.2,0.3-0.3,0.4-0.2c0.1,0.1,0.1,0.2,0,0.3
					c-0.1,0.1-0.2,0.3-0.3,0.5c-0.3,0.5-0.1,0.9,0.5,1.4c0.5,0.4,1.2,0.9,2,1.6L248.8,156.8L248.8,156.8z"/>
			</g>
		</g>
		<g>
			<g>
				<path class="st0" d="M253.7,139.4c-2-2.6-2.3-3-2.8-3.6c-0.5-0.6-0.8-0.7-1.5-0.4c-0.2,0.1-0.5,0.3-0.7,0.4
					c-0.2,0.1-0.3,0.2-0.4,0.1c-0.1-0.1,0-0.2,0.3-0.4c0.9-0.7,2-1.4,2.5-1.8c0.4-0.3,1.4-1.2,2-1.6c0.3-0.2,0.4-0.2,0.5-0.1
					c0.1,0.1,0,0.2-0.2,0.4c-0.2,0.1-0.3,0.2-0.4,0.4c-0.4,0.4-0.3,0.8,0.1,1.4c0.4,0.6,0.7,1,2.7,3.6l1.8,2.4
					c1.9,2.5,3.1,3.1,4.5,3.2c1.2,0.1,2-0.5,2.6-0.9c0.7-0.6,1.5-1.5,1.6-2.7c0.2-1.6-0.9-3.2-2.2-4.9l-1.6-2.1
					c-2-2.6-2.3-3-2.8-3.6c-0.5-0.6-0.8-0.7-1.5-0.4c-0.2,0.1-0.5,0.3-0.6,0.4c-0.2,0.1-0.3,0.2-0.4,0.1c-0.1-0.1,0-0.2,0.2-0.4
					c0.9-0.7,1.9-1.4,2-1.4c0.2-0.2,1.2-1,1.9-1.5c0.2-0.2,0.4-0.2,0.5-0.1c0.1,0.1,0,0.2-0.2,0.4c-0.2,0.1-0.3,0.2-0.4,0.4
					c-0.4,0.4-0.3,0.8,0.1,1.4c0.4,0.6,0.7,1,2.7,3.6l1.4,1.8c1.4,1.9,2.8,4,2.3,6.3c-0.4,1.9-1.5,3-2.5,3.9
					c-0.9,0.7-2.5,1.8-4.6,1.7c-1.4-0.1-3-0.9-4.9-3.4L253.7,139.4L253.7,139.4z"/>
			</g>
		</g>
		<g>
			<g>
				<path class="st0" d="M274.9,120.1c-0.9-0.9-1.3-1-2.1-0.9c-0.3,0-0.6,0.2-0.8,0.2c-0.2,0.1-0.3,0-0.3-0.1
					c-0.1-0.2,0.1-0.3,0.4-0.4c1-0.4,2.2-0.8,2.8-1.1c0.5-0.2,1.4-0.6,2.4-1.1c0.2-0.1,0.5-0.1,0.5,0c0.1,0.1,0,0.2-0.2,0.3
					c-0.3,0.1-0.6,0.3-0.7,0.5c-0.1,0.2-0.1,0.3,0,0.5c0.1,0.3,0.5,0.7,1.1,1.3l7.1,7.5l0.1,0c-0.1-2.5-0.2-9.9-0.3-11.4
					c0-0.3-0.1-0.6-0.1-0.8c-0.1-0.2-0.2-0.3-0.4-0.3c-0.3,0-0.6,0.1-0.8,0.2c-0.2,0.1-0.3,0.1-0.4,0c-0.1-0.2,0.1-0.3,0.5-0.4
					c1-0.4,1.8-0.7,2.1-0.8c0.3-0.1,1.2-0.6,1.8-0.8c0.3-0.1,0.4-0.1,0.5,0c0.1,0.1,0,0.2-0.2,0.3c-0.2,0.1-0.6,0.3-0.9,0.6
					c-0.2,0.3-0.3,0.7-0.3,2.2c0,2.2-0.1,3.4-0.1,6.3c0,3.4-0.1,5.9-0.1,7.1c0,1.4,0,1.7-0.3,1.8c-0.3,0.1-0.5-0.1-1.2-0.9
					L274.9,120.1L274.9,120.1z"/>
			</g>
		</g>
		<g>
			<g>
				<path class="st0" d="M303,115.3c-0.5-3.2-0.5-3.8-0.7-4.5c-0.1-0.7-0.4-1-1.1-1.1c-0.2,0-0.5,0-0.8,0.1c-0.2,0-0.4,0-0.4-0.1
					c0-0.1,0.1-0.2,0.4-0.3c1.1-0.2,2.4-0.3,3-0.4c0.7-0.1,4.8-0.7,5.2-0.8c0.4-0.1,0.7-0.2,0.9-0.3c0.1,0,0.2-0.1,0.3-0.1
					c0.1,0,0.1,0.1,0.2,0.2c0,0.1,0,0.4,0,1.4c0,0.2,0.1,1.1,0.1,1.4c0,0.1,0,0.2-0.2,0.3c-0.1,0-0.2-0.1-0.2-0.3
					c0-0.1-0.1-0.5-0.2-0.7c-0.2-0.4-0.4-0.6-1.5-0.6c-0.4,0-2.5,0.3-3,0.3c-0.1,0-0.1,0.1-0.1,0.2l0.8,5.3c0,0.1,0.1,0.2,0.2,0.2
					c0.5-0.1,2.8-0.4,3.3-0.5c0.5-0.1,0.8-0.2,1-0.5c0.1-0.2,0.2-0.3,0.3-0.3c0.1,0,0.2,0,0.2,0.1c0,0.1,0,0.5,0.1,1.6
					c0,0.4,0.1,1.3,0.1,1.4c0,0.2,0.1,0.4-0.1,0.4c-0.1,0-0.2-0.1-0.2-0.2c-0.1-0.2-0.1-0.5-0.2-0.7c-0.2-0.4-0.5-0.7-1.3-0.7
					c-0.4,0-2.5,0.3-3,0.4c-0.1,0-0.1,0.1-0.1,0.2l0.2,1.7c0.1,0.7,0.4,2.7,0.5,3.3c0.3,1.4,0.6,1.7,2.8,1.4
					c0.5-0.1,1.4-0.2,1.9-0.5c0.5-0.3,0.7-0.8,0.7-1.7c0-0.2,0-0.3,0.2-0.3c0.2,0,0.2,0.1,0.2,0.4c0.1,0.5,0.1,1.9,0.1,2.4
					c-0.1,0.6-0.3,0.6-1,0.7c-3.1,0.5-4.6,0.5-5.8,0.7c-0.5,0.1-1.8,0.3-2.6,0.4c-0.3,0-0.4,0-0.4-0.2c0-0.1,0.1-0.2,0.3-0.2
					c0.3,0,0.6-0.1,0.7-0.2c0.4-0.1,0.4-0.6,0.4-1.2c0-0.9-0.3-2.6-0.5-4.5L303,115.3L303,115.3z"/>
			</g>
		</g>
		<g>
			<g>
				<path class="st0" d="M329.3,116c0,0.2,0,0.3,0.1,0.4c0.4,0.2,1,0.3,1.6,0.4c0.8,0.1,1.1,0,1.5-0.2c0.7-0.4,1.4-1.3,1.6-3
					c0.4-3-1.5-4.1-2.7-4.2c-0.5-0.1-0.9-0.1-1.1,0c-0.2,0-0.2,0.1-0.2,0.3L329.3,116L329.3,116z M327,114c0.4-3.2,0.4-3.8,0.5-4.5
					c0-0.7-0.1-1.1-0.8-1.3c-0.2-0.1-0.5-0.1-0.8-0.2c-0.2,0-0.4-0.1-0.3-0.2c0-0.1,0.2-0.2,0.5-0.1c1.1,0.1,2.4,0.3,2.9,0.4
					c0.7,0.1,2.3,0.2,2.9,0.3c1.3,0.2,2.7,0.4,3.7,1.4c0.5,0.5,1.2,1.6,1.1,3.1c-0.2,1.6-1,2.9-3.3,4.4c1.6,2.6,2.8,4.6,3.9,6.1
					c1,1.4,1.9,1.6,2.2,1.7c0.2,0.1,0.4,0.1,0.6,0.1c0.2,0,0.2,0.1,0.2,0.2c0,0.2-0.2,0.2-0.4,0.2l-2-0.2c-1.2-0.1-1.7-0.3-2.2-0.7
					c-0.8-0.6-1.5-1.7-2.5-3.4c-0.7-1.3-1.5-2.8-1.7-3.2c-0.1-0.1-0.2-0.2-0.4-0.2l-1.8-0.3c-0.1,0-0.2,0-0.2,0.2l0,0.3
					c-0.2,2-0.4,3.6-0.4,4.5c0,0.6,0.1,1.1,0.7,1.3c0.3,0.1,0.8,0.2,1,0.2c0.2,0,0.2,0.1,0.2,0.2c0,0.1-0.2,0.2-0.4,0.2
					c-1.2-0.1-2.7-0.4-3.1-0.4c-0.4,0-1.7-0.1-2.6-0.2c-0.3,0-0.4-0.1-0.4-0.3c0-0.1,0.1-0.2,0.4-0.1c0.3,0,0.6,0,0.8,0
					c0.4,0,0.6-0.5,0.7-1.1c0.2-0.9,0.4-2.5,0.6-4.5L327,114L327,114z"/>
			</g>
		</g>
		<g>
			<g>
				<path class="st0" d="M351.6,126.7c-0.6,1.5-0.6,2.2-0.3,2.5c0.3,0.3,0.6,0.4,0.9,0.6c0.2,0.1,0.3,0.2,0.3,0.3
					c-0.1,0.2-0.3,0.1-0.5,0c-1.3-0.5-2-0.9-2.4-1.1c-0.2-0.1-1.1-0.4-2.1-0.8c-0.3-0.1-0.4-0.2-0.3-0.4c0.1-0.1,0.2-0.1,0.4,0
					c0.2,0.1,0.6,0.2,0.9,0.3c0.6,0.1,0.9-0.5,1.6-2.2l5.2-11.5c0.2-0.4,0.3-0.6,0.5-0.6c0.2,0.1,0.3,0.4,0.5,0.9
					c0.1,0.4,1.7,4.8,3.3,8.9c0.7,1.9,2.1,5.8,2.3,6.3l0.1,0l3.6-8.9c0.5-1.2,0.5-1.6,0.1-2c-0.2-0.2-0.7-0.4-1-0.6
					c-0.2-0.1-0.3-0.2-0.2-0.3c0.1-0.2,0.3-0.1,0.6,0c1,0.4,1.9,0.9,2.3,1.1c0.2,0.1,1,0.3,1.9,0.8c0.2,0.1,0.4,0.2,0.4,0.4
					c-0.1,0.1-0.2,0.1-0.4,0c-0.2-0.1-0.3-0.1-0.6-0.2c-0.6-0.1-0.9,0.3-1.4,1.4l-5.5,12.3c-0.2,0.4-0.3,0.6-0.5,0.5
					c-0.2-0.1-0.4-0.4-0.5-0.7c-0.7-1.7-2.1-5.3-3.2-8.2c-1.2-3-2.3-6.4-2.5-6.9l-0.1,0L351.6,126.7L351.6,126.7z"/>
			</g>
		</g>
		<g>
			<g>
				<path class="st0" d="M379.4,133.8c2-2.5,2.4-3,2.8-3.5c0.4-0.6,0.5-1,0.1-1.5c-0.1-0.1-0.4-0.4-0.6-0.6
					c-0.2-0.1-0.2-0.3-0.2-0.4c0.1-0.1,0.2-0.1,0.5,0.1c0.9,0.7,1.8,1.6,2.3,2c0.4,0.3,1.5,1.1,2,1.6c0.2,0.2,0.3,0.3,0.2,0.4
					c-0.1,0.1-0.2,0.1-0.4-0.1c-0.2-0.1-0.3-0.2-0.5-0.3c-0.5-0.3-0.9-0.1-1.4,0.4c-0.5,0.5-0.8,1-2.9,3.5l-1.9,2.3
					c-2,2.4-2.3,3.8-2,5.1c0.2,1.2,0.9,1.9,1.5,2.3c0.7,0.6,1.8,1.1,3,0.9c1.6-0.2,2.9-1.6,4.3-3.3l1.7-2.1c2-2.5,2.4-3,2.8-3.5
					c0.4-0.6,0.5-1,0.1-1.5c-0.1-0.1-0.4-0.4-0.5-0.5c-0.2-0.1-0.2-0.3-0.2-0.4c0.1-0.1,0.2-0.1,0.5,0.1c0.8,0.7,1.8,1.6,1.8,1.6
					c0.2,0.2,1.3,0.9,1.9,1.5c0.2,0.2,0.3,0.3,0.2,0.4c-0.1,0.1-0.2,0.1-0.4-0.1c-0.2-0.1-0.3-0.2-0.5-0.3c-0.5-0.3-0.9-0.1-1.4,0.4
					c-0.5,0.5-0.8,1-2.9,3.5l-1.4,1.8c-1.5,1.8-3.3,3.6-5.6,3.7c-2,0.1-3.3-0.7-4.4-1.6c-0.9-0.7-2.4-2-2.7-4.1
					c-0.2-1.4,0.2-3.2,2.1-5.6L379.4,133.8L379.4,133.8z"/>
			</g>
		</g>
		<g>
			<g>
				<path class="st0" d="M398.3,158.1c-2.1,1.7-3.3,2.6-3.3,3.2c0,0.5,0.2,1,1.2,2.3c0.7,0.9,1.2,1.5,2,1.6c0.4,0,1-0.1,1.3-0.4
					c0.2-0.1,0.3-0.2,0.4,0c0.1,0.1,0,0.2-0.2,0.4c-0.2,0.1-1.5,1-2.1,1.3c-0.4,0.2-0.6,0.2-1.3-0.7c-1.9-2.4-2.6-3.5-3.7-4.9
					c-0.3-0.4-1.2-1.4-1.7-2c-0.2-0.2-0.2-0.4-0.1-0.5c0.1-0.1,0.2,0,0.3,0.2c0.2,0.2,0.4,0.4,0.5,0.5c0.3,0.3,0.8,0.1,1.3-0.2
					c0.8-0.5,2.1-1.5,3.6-2.7l2.9-2.3c2.5-2,3-2.4,3.5-2.8c0.5-0.5,0.7-0.8,0.4-1.5c-0.1-0.2-0.2-0.4-0.4-0.6
					c-0.1-0.2-0.2-0.3-0.1-0.4c0.1-0.1,0.2,0,0.4,0.2c0.6,0.8,1.4,1.9,1.7,2.3c0.3,0.4,1.3,1.6,1.8,2.2c0.2,0.2,0.2,0.4,0.1,0.5
					c-0.1,0.1-0.2,0-0.4-0.2c-0.1-0.2-0.4-0.4-0.6-0.6c-0.4-0.4-0.8-0.3-1.4,0.1c-0.6,0.4-1,0.8-3.6,2.8L398.3,158.1L398.3,158.1z"
					/>
			</g>
		</g>
		<g>
			<g>
				<path class="st0" d="M212,227.7c-0.2,0-0.3,0-0.4,0.2c-0.2,0.4-0.3,1-0.4,1.6c-0.1,0.8,0,1.1,0.2,1.5c0.4,0.7,1.3,1.4,3.1,1.5
					c3,0.3,4.1-1.6,4.2-2.8c0-0.5,0.1-0.9,0-1.1c0-0.2-0.1-0.2-0.3-0.2L212,227.7L212,227.7z M213.9,225.4c3.2,0.3,3.8,0.4,4.5,0.4
					c0.7,0,1.1-0.1,1.3-0.8c0.1-0.2,0.1-0.5,0.1-0.8c0-0.2,0.1-0.4,0.2-0.3c0.1,0,0.2,0.2,0.1,0.5c-0.1,1.1-0.3,2.4-0.3,2.9
					c-0.1,0.7-0.2,2.3-0.2,3c-0.1,1.3-0.4,2.7-1.3,3.8c-0.5,0.5-1.6,1.3-3,1.1c-1.6-0.1-3-0.9-4.5-3.2c-2.5,1.6-4.6,2.9-6,4
					c-1.3,1.1-1.6,1.9-1.7,2.2c-0.1,0.2-0.1,0.4-0.1,0.6c0,0.2-0.1,0.2-0.2,0.2c-0.2,0-0.2-0.2-0.2-0.4l0.2-2
					c0.1-1.2,0.3-1.7,0.6-2.2c0.6-0.9,1.6-1.6,3.4-2.6c1.2-0.7,2.8-1.6,3.1-1.8c0.1-0.1,0.2-0.2,0.2-0.4l0.2-1.8
					c0-0.1,0-0.2-0.2-0.2l-0.3,0c-2-0.2-3.6-0.3-4.5-0.3c-0.6,0-1.1,0.1-1.2,0.7c-0.1,0.3-0.2,0.8-0.2,1c0,0.2-0.1,0.2-0.2,0.2
					c-0.1,0-0.2-0.2-0.2-0.4c0.1-1.2,0.3-2.8,0.4-3.1c0-0.4,0.1-1.7,0.2-2.6c0-0.3,0.1-0.4,0.3-0.4c0.1,0,0.2,0.1,0.1,0.4
					c0,0.3,0,0.6,0,0.8c0,0.4,0.5,0.6,1.1,0.7c0.9,0.2,2.6,0.3,4.5,0.5L213.9,225.4L213.9,225.4z"/>
			</g>
		</g>
		<g>
			<g>
				<path class="st0" d="M212.9,250.3c3.2-0.2,3.8-0.2,4.5-0.3c0.7-0.1,1.1-0.3,1.2-1c0-0.2,0-0.5,0-0.8c0-0.2,0-0.4,0.2-0.4
					c0.1,0,0.2,0.1,0.2,0.4c0.1,1.1,0.1,2.4,0.1,3c0,0.7,0.3,4.8,0.3,5.2c0.1,0.4,0.1,0.7,0.2,0.9c0,0.1,0.1,0.2,0.1,0.3
					c0,0.1-0.1,0.1-0.2,0.1c-0.1,0-0.4-0.1-1.4-0.1c-0.2,0-1.2,0-1.4,0c-0.1,0-0.2,0-0.2-0.2c0-0.1,0.1-0.2,0.3-0.2
					c0.1,0,0.5-0.1,0.8-0.2c0.4-0.2,0.6-0.4,0.7-1.5c0-0.4-0.1-2.6-0.1-3c0-0.1-0.1-0.1-0.2-0.1l-5.4,0.3c-0.1,0-0.2,0-0.2,0.2
					c0,0.5,0.2,2.9,0.2,3.4c0.1,0.5,0.2,0.8,0.4,1c0.2,0.1,0.3,0.2,0.3,0.3c0,0.1,0,0.2-0.2,0.2c-0.1,0-0.5-0.1-1.6-0.1
					c-0.4,0-1.3,0-1.4,0c-0.2,0-0.4,0-0.4-0.2c0-0.1,0.1-0.2,0.2-0.2c0.2,0,0.5-0.1,0.8-0.1c0.4-0.1,0.7-0.4,0.8-1.2
					c0-0.4-0.1-2.5-0.1-3c0-0.1-0.1-0.1-0.2-0.1l-1.7,0.1c-0.7,0-2.7,0.1-3.3,0.2c-1.5,0.1-1.8,0.5-1.6,2.6c0,0.5,0.1,1.4,0.4,2
					c0.3,0.5,0.7,0.8,1.6,0.8c0.2,0,0.3,0.1,0.3,0.2c0,0.2-0.2,0.2-0.4,0.2c-0.5,0-1.9-0.1-2.4-0.1c-0.6-0.1-0.6-0.3-0.6-1.1
					c-0.2-3.2-0.1-4.6-0.2-5.8c0-0.5-0.2-1.8-0.2-2.6c0-0.3,0-0.4,0.2-0.4c0.1,0,0.2,0.1,0.2,0.3c0,0.3,0.1,0.6,0.1,0.8
					c0.1,0.4,0.6,0.5,1.2,0.5c0.9,0.1,2.6,0,4.5-0.2L212.9,250.3L212.9,250.3z"/>
			</g>
		</g>
		<g>
			<g>
				<path class="st0" d="M215.4,272.6c3.2-0.7,3.8-0.8,4.4-1c0.7-0.2,1-0.4,1-1.1c0-0.2,0-0.5-0.1-0.8c0-0.2,0-0.4,0.1-0.4
					c0.1,0,0.2,0.1,0.3,0.4c0.2,1.1,0.4,2.4,0.6,3c0.2,0.8,0.5,2,0.7,3c0.5,2.6-0.1,3.7-0.4,4.1c-0.3,0.5-1.2,1.3-2.3,1.6
					c-3,0.6-5.5-1.1-6.1-4c0-0.1-0.1-0.3-0.1-0.4c0-0.1,0-0.3,0.1-0.3c0.2,0,0.3,0.1,0.4,0.5c0.2,1.2,1.9,2.5,4,2
					c0.7-0.1,2.1-0.5,2.9-1.9c0.5-0.9,0.5-1.8,0.4-2.2c-0.1-0.3-0.2-0.6-0.3-0.8c-0.1-0.1-0.2-0.1-0.4-0.1l-8.3,1.8
					c-1.9,0.4-3.6,0.8-4.4,1.1c-0.6,0.2-1,0.4-1,1c0,0.3,0.1,0.8,0.1,1.1c0,0.2,0,0.3-0.1,0.4c-0.1,0-0.2-0.1-0.3-0.3
					c-0.3-1.4-0.5-2.7-0.6-3.2c-0.1-0.5-0.4-1.8-0.6-2.6c-0.1-0.3,0-0.4,0.1-0.5c0.1,0,0.2,0,0.2,0.3c0.1,0.3,0.2,0.5,0.2,0.7
					c0.2,0.4,0.7,0.4,1.3,0.4c0.9-0.1,2.5-0.4,4.5-0.8L215.4,272.6L215.4,272.6z"/>
			</g>
		</g>
		<g>
			<g>
				<path class="st0" d="M221,293.9c3-1.2,3.6-1.4,4.2-1.7c0.7-0.3,0.9-0.6,0.8-1.3c0-0.2-0.1-0.5-0.2-0.8c-0.1-0.2-0.1-0.3,0-0.4
					c0.1-0.1,0.2,0.1,0.4,0.4c0.4,1,0.9,2.3,1.1,2.9c0.2,0.5,0.7,1.7,1,2.4c0.1,0.3,0.1,0.4,0,0.5c-0.1,0.1-0.2,0-0.3-0.2
					c-0.1-0.2-0.2-0.3-0.3-0.5c-0.3-0.5-0.7-0.5-1.4-0.3c-0.6,0.2-1.2,0.4-4.2,1.7l-2.8,1.1c-2.9,1.2-3.8,2.2-4.2,3.5
					c-0.4,1.2-0.1,2.1,0.2,2.8c0.3,0.9,1,1.8,2.2,2.3c1.5,0.6,3.3,0,5.4-0.9l2.5-1c3-1.2,3.6-1.4,4.2-1.7c0.7-0.3,0.9-0.6,0.8-1.3
					c0-0.2-0.1-0.5-0.2-0.7c-0.1-0.2-0.1-0.3,0-0.4c0.1-0.1,0.2,0.1,0.3,0.3c0.4,1,0.8,2.2,0.8,2.3c0.1,0.2,0.7,1.4,1,2.2
					c0.1,0.3,0.1,0.4,0,0.5c-0.1,0.1-0.2,0-0.3-0.3c-0.1-0.2-0.2-0.3-0.3-0.5c-0.3-0.5-0.7-0.5-1.4-0.3c-0.6,0.2-1.2,0.4-4.2,1.7
					l-2.1,0.9c-2.2,0.9-4.6,1.6-6.7,0.6c-1.8-0.9-2.5-2.2-3.1-3.5c-0.4-1-1.1-2.9-0.4-4.9c0.5-1.4,1.7-2.7,4.5-3.8L221,293.9
					L221,293.9z"/>
			</g>
		</g>
		<g>
			<g>
				<path class="st0" d="M234,321.4c-0.1,0.1-0.1,0.2-0.1,0.3c0.1,0.2,0.2,0.5,0.5,0.9c0.4,0.6,0.7,0.9,1.2,1.1
					c0.7,0.2,1.5,0.1,2.4-0.5c1.2-0.8,2.3-2.5,1.3-4c-0.2-0.2-0.3-0.4-0.4-0.6c-0.1-0.1-0.2-0.1-0.4,0L234,321.4L234,321.4z
					 M234.1,324.7c0-0.5-0.1-1-0.5-1.7c-0.2-0.3-0.3-0.5-0.5-0.8c0-0.1-0.1-0.1-0.2,0l-4.2,2.7c-1.2,0.8-1.5,1-1.3,1.7
					c0.1,0.6,0.4,1,0.6,1.4c0.5,0.8,1.8,1.9,3.7,0.7C232.8,328,234,326.7,234.1,324.7L234.1,324.7z M233,319.1
					c2.7-1.8,3.2-2.1,3.8-2.5c0.6-0.4,0.8-0.8,0.5-1.4c-0.1-0.2-0.2-0.5-0.4-0.7c-0.1-0.2-0.2-0.3,0-0.4c0.1-0.1,0.2,0,0.4,0.3
					c0.6,0.9,1.3,2.1,1.5,2.4c0.6,0.9,1.1,1.5,1.4,2.1c2.1,3.2,0.7,4.9-0.3,5.5c-1.5,0.9-2.9,0.7-4.3,0.2c0.4,1.8,0.3,4.4-1.8,5.7
					c-1.9,1.2-4.8,1.1-6.9-2.2c-0.3-0.4-1.2-2.1-1.5-2.6c-0.3-0.4-1-1.5-1.5-2.2c-0.1-0.2-0.2-0.4,0-0.5c0.1-0.1,0.2,0,0.3,0.2
					c0.2,0.3,0.3,0.5,0.5,0.6c0.3,0.3,0.8,0.1,1.3-0.1c0.8-0.4,2.2-1.3,3.9-2.4L233,319.1L233,319.1z"/>
			</g>
		</g>
		<g>
			<g>
				<path class="st0" d="M246.4,342.9c-2,1.9-3,2.9-3,3.5c0,0.5,0.3,1,1.4,2.2c0.8,0.8,1.3,1.4,2.1,1.4c0.4,0,1-0.2,1.3-0.5
					c0.2-0.1,0.3-0.2,0.4-0.1c0.1,0.1,0,0.2-0.1,0.4c-0.2,0.2-1.4,1.2-2,1.5c-0.4,0.2-0.6,0.2-1.3-0.6c-2.1-2.2-3-3.3-4.1-4.5
					c-0.3-0.4-1.3-1.3-1.9-1.9c-0.2-0.2-0.2-0.3-0.1-0.5c0.1-0.1,0.2-0.1,0.4,0.1c0.2,0.2,0.4,0.4,0.6,0.5c0.4,0.2,0.8,0,1.3-0.4
					c0.7-0.5,1.9-1.7,3.4-3.1l2.7-2.6c2.3-2.2,2.8-2.6,3.2-3.1c0.5-0.5,0.6-0.9,0.3-1.5c-0.1-0.2-0.2-0.3-0.4-0.5
					c-0.2-0.2-0.2-0.3-0.1-0.4c0.1-0.1,0.2,0,0.5,0.2c0.7,0.7,1.5,1.7,1.9,2.1c0.3,0.4,1.5,1.4,2,2c0.2,0.2,0.3,0.3,0.2,0.5
					c-0.1,0.1-0.2,0-0.4-0.1c-0.2-0.2-0.4-0.4-0.6-0.5c-0.5-0.3-0.8-0.2-1.4,0.3c-0.5,0.4-1,0.9-3.3,3.1L246.4,342.9L246.4,342.9z"
					/>
			</g>
		</g>
		<g>
			<g>
				<path class="st0" d="M263.5,353.1c1.9-2.6,2.3-3.1,2.6-3.7c0.4-0.6,0.4-1,0.1-1.4c-0.1-0.2-0.4-0.4-0.6-0.5
					c-0.2-0.1-0.2-0.2-0.1-0.4c0.1-0.1,0.2,0,0.5,0.2c0.6,0.5,1.7,1.3,2.2,1.7c0.4,0.3,1.5,1,2.1,1.5c0.2,0.2,0.3,0.3,0.3,0.4
					c-0.1,0.1-0.2,0.1-0.4,0c-0.2-0.1-0.3-0.2-0.5-0.3c-0.5-0.2-0.9-0.1-1.3,0.5c-0.4,0.5-0.8,1-2.7,3.6l-2.2,3
					c-1.2,1.7-2.2,3-2.7,3.8c-0.3,0.5-0.4,0.9,0.1,1.3c0.2,0.2,0.6,0.5,0.8,0.7c0.2,0.1,0.2,0.2,0.2,0.3c-0.1,0.1-0.3,0.1-0.4-0.1
					c-1.1-0.8-2.2-1.6-2.6-2c-0.4-0.3-1.5-1-2.2-1.5c-0.2-0.2-0.3-0.3-0.2-0.4c0.1-0.1,0.2-0.1,0.4,0.1c0.3,0.2,0.5,0.3,0.7,0.4
					c0.4,0.2,0.7,0,1.1-0.5c0.6-0.7,1.6-2,2.8-3.7L263.5,353.1L263.5,353.1z"/>
			</g>
		</g>
		<g>
			<g>
				<path class="st0" d="M276.3,370.2c-1.2-2.5-0.7-4.9,0.1-6.8c0.6-1.3,2-3.5,4.6-4.4c1.9-0.7,4.1-0.7,7,0.6
					c1.2,0.5,1.9,0.9,2.7,1.4c0.7,0.4,1.2,0.9,1.8,1.2c0.2,0.1,0.2,0.2,0.2,0.4c-0.1,0.2-0.2,0.4-0.6,1c-0.3,0.6-0.8,1.7-1,2.1
					c-0.1,0.3-0.3,0.4-0.4,0.4c-0.2-0.1-0.1-0.2,0-0.5c0.2-0.6,0.3-1.4,0-2.1c-0.3-1-1.6-2.1-3.4-2.9c-1.7-0.7-3-0.8-4.1-0.4
					c-2,0.7-3.1,2.4-4,4.3c-2,4.7,0.5,8.5,3.1,9.6c1.7,0.7,2.8,1,4,0.4c0.5-0.2,1-0.7,1.2-1c0.2-0.3,0.3-0.3,0.4-0.3
					c0.1,0.1,0.1,0.2,0,0.4c-0.1,0.2-1.1,1.8-1.5,2.4c-0.2,0.3-0.4,0.4-0.7,0.4c-0.9,0-2.4-0.5-3.7-1
					C279.3,374,277.4,372.5,276.3,370.2L276.3,370.2z"/>
			</g>
		</g>
		<g>
			<g>
				<path class="st0" d="M303.7,370.9c0.5-3.2,0.6-3.8,0.7-4.5c0.1-0.7-0.1-1.1-0.5-1.3c-0.2-0.1-0.5-0.2-0.7-0.2
					c-0.2,0-0.3-0.1-0.3-0.3c0-0.1,0.2-0.1,0.5-0.1c0.8,0.1,2.1,0.4,2.7,0.5c0.5,0.1,1.8,0.2,2.5,0.4c0.3,0,0.4,0.1,0.4,0.2
					c0,0.2-0.2,0.2-0.4,0.2c-0.2,0-0.4,0-0.6,0c-0.6,0-0.8,0.3-1,1.1c-0.2,0.7-0.3,1.3-0.8,4.4l-0.6,3.7c-0.3,2-0.6,3.7-0.7,4.6
					c0,0.6,0,1,0.7,1.2c0.3,0.1,0.7,0.2,1,0.3c0.2,0,0.3,0.1,0.3,0.2c0,0.1-0.2,0.2-0.4,0.1c-1.4-0.2-2.7-0.5-3.2-0.6
					c-0.5-0.1-1.8-0.2-2.6-0.4c-0.3,0-0.4-0.1-0.4-0.3c0-0.1,0.1-0.2,0.4-0.1c0.3,0.1,0.6,0.1,0.8,0c0.4,0,0.6-0.4,0.8-0.9
					c0.3-0.9,0.5-2.5,0.9-4.6L303.7,370.9L303.7,370.9z"/>
			</g>
		</g>
		<g>
			<g>
				<path class="st0" d="M322.2,372.4c-0.1-3.2-0.1-3.8-0.2-4.5c-0.1-0.7-0.3-1.1-0.8-1.2c-0.2-0.1-0.5-0.1-0.8-0.1
					c-0.2,0-0.3,0-0.3-0.2c0-0.1,0.2-0.2,0.5-0.2c0.8,0,2.1,0,2.7,0c0.5,0,1.8-0.1,2.6-0.2c0.3,0,0.4,0,0.4,0.2
					c0,0.2-0.1,0.2-0.3,0.2c-0.2,0-0.4,0-0.6,0.1c-0.6,0.1-0.7,0.5-0.7,1.2c0,0.7,0,1.3,0.1,4.5l0.1,3.7c0.1,2.1,0.1,3.7,0.3,4.7
					c0.1,0.6,0.2,1,0.9,1c0.3,0,0.8,0.1,1.1,0c0.2,0,0.3,0.1,0.3,0.2c0,0.1-0.2,0.2-0.4,0.2c-1.4,0.1-2.7,0-3.3,0.1
					c-0.5,0-1.8,0.1-2.6,0.2c-0.3,0-0.4,0-0.4-0.2c0-0.1,0.1-0.2,0.3-0.2c0.3,0,0.6-0.1,0.8-0.1c0.4-0.1,0.5-0.5,0.6-1.1
					c0.1-0.9,0-2.6-0.1-4.6L322.2,372.4L322.2,372.4z"/>
			</g>
		</g>
		<g>
			<g>
				<path class="st0" d="M350.5,360.9c-0.1-0.4-0.1-0.6,0.1-0.7c0.2-0.1,0.3,0,0.8,0.4l10.3,8.4l0-13.4c0-0.4,0-0.6,0.2-0.7
					c0.2-0.1,0.4,0.1,0.6,0.4l7.3,11.1c0.7,1.1,1.2,1.6,1.8,1.5c0.6-0.1,1-0.2,1.3-0.4c0.2-0.1,0.3-0.1,0.4,0
					c0.1,0.2-0.1,0.3-0.4,0.4c-0.5,0.2-3.1,1.4-3.9,1.7c-0.5,0.2-0.6,0.2-0.7,0c0-0.1,0-0.2,0.1-0.3c0.1-0.1,0-0.4-0.3-0.9l-5.1-8
					l-0.1,0l-0.1,10.7c0,1.1,0,1.3-0.2,1.4c-0.2,0.1-0.5-0.2-1.1-0.7c-0.9-0.7-3.8-2.9-4.2-3.4c-0.4-0.3-2.6-2.2-4-3.4l-0.1,0
					l2.6,8.1c0.1,0.4,0.2,0.6,0.4,0.9c0.2,0.4,0.5,0.4,0.9,0.3c0.4-0.1,0.7-0.2,0.8-0.3c0.2-0.1,0.3-0.1,0.3,0
					c0.1,0.2-0.1,0.3-0.4,0.4c-0.8,0.4-1.7,0.7-2,0.9c-0.4,0.2-1.2,0.7-1.9,0.9c-0.2,0.1-0.4,0.1-0.4-0.1c0-0.1,0.1-0.2,0.2-0.3
					c0.2-0.1,0.3-0.1,0.5-0.3c0.5-0.4,0.3-1.2,0.1-1.9L350.5,360.9L350.5,360.9z"/>
			</g>
		</g>
		<g>
			<g>
				<path class="st0" d="M389.6,345.3c-3.2-3.6-7.2-4-9.7-1.7c-1.8,1.6-3,4.4,0.5,8.4c2.9,3.3,7.1,4.4,10.1,1.7
					C391.6,352.7,393.7,349.9,389.6,345.3L389.6,345.3z M378.7,354.4c-2.4-2.7-3.8-7.8,1-12c3.9-3.5,8.4-3.3,11.6,0.3
					c3.2,3.7,3.3,8.8-0.7,12.3C386.1,359,381.2,357.2,378.7,354.4L378.7,354.4z"/>
			</g>
		</g>
		<g>
			<g>
				<path class="st0" d="M403.6,331.3c2.2,1.6,3.4,2.5,4,2.4c0.5-0.1,0.9-0.4,1.9-1.8c0.7-0.9,1.1-1.6,1-2.3
					c-0.1-0.4-0.4-0.9-0.7-1.2c-0.1-0.1-0.2-0.2-0.1-0.4c0.1-0.1,0.2-0.1,0.4,0.1c0.2,0.1,1.4,1.2,1.8,1.7c0.3,0.4,0.3,0.5-0.3,1.4
					c-1.8,2.4-2.7,3.5-3.7,4.8c-0.3,0.4-1,1.5-1.5,2.2c-0.2,0.2-0.3,0.3-0.4,0.2c-0.1-0.1-0.1-0.2,0.1-0.4c0.2-0.3,0.3-0.5,0.4-0.7
					c0.2-0.4-0.1-0.8-0.6-1.2c-0.7-0.6-2-1.6-3.6-2.8l-3-2.2c-2.6-1.9-3.1-2.3-3.7-2.6c-0.6-0.4-1-0.5-1.5,0
					c-0.1,0.1-0.3,0.3-0.5,0.5c-0.1,0.2-0.2,0.3-0.4,0.2c-0.1-0.1-0.1-0.2,0.1-0.5c0.6-0.8,1.4-1.8,1.8-2.3c0.3-0.4,1.2-1.7,1.6-2.3
					c0.2-0.2,0.3-0.3,0.4-0.2c0.1,0.1,0.1,0.2-0.1,0.4c-0.1,0.2-0.3,0.5-0.4,0.7c-0.3,0.5-0.1,0.9,0.5,1.3c0.5,0.4,1,0.8,3.6,2.7
					L403.6,331.3L403.6,331.3z"/>
			</g>
		</g>
		<g>
			<g>
				<path class="st0" d="M414.2,311.5c2,1,3.5,1.6,3.9,1.8c0.5,0.2,1.3,0.5,1.6,0.5c0.5-0.1,1.2-0.6,1.9-2.1c0.9-1.9,1.1-3.4,0.7-5
					c-0.5-1.7-2.1-2.9-4-3.9c-2.4-1.2-4.5-0.9-5.7-0.5c-2.5,0.9-3.8,3-4.5,4.5c-0.2,0.4-0.5,1.1-0.4,1.3c0,0.2,0.1,0.3,0.3,0.4
					c0.6,0.3,2.3,1.1,3.8,1.8L414.2,311.5L414.2,311.5z M410.9,312.8c-2.9-1.4-3.5-1.6-4.1-1.9c-0.7-0.3-1.1-0.3-1.5,0.3
					c-0.1,0.1-0.3,0.4-0.4,0.7c-0.1,0.2-0.2,0.3-0.3,0.2c-0.1-0.1-0.1-0.2,0-0.5c0.5-1,1.1-2.2,1.4-2.7c0.3-0.6,0.8-1.8,1.3-3
					c1.1-2.4,2.6-5.5,5.8-6.6c1.4-0.5,3.5-0.6,5.8,0.5c2.4,1.1,3.8,3,4.4,4.6c0.5,1.3,0.9,3.9-0.7,7.4c-0.7,1.4-1.7,3-2.1,3.9
					c-0.2,0.4-0.7,1.7-1.1,2.4c-0.1,0.2-0.2,0.4-0.4,0.3c-0.1,0-0.1-0.2,0-0.4c0.1-0.3,0.2-0.5,0.2-0.7c0.1-0.4-0.3-0.7-0.8-1.1
					c-0.8-0.5-2.3-1.2-4.1-2L410.9,312.8L410.9,312.8z"/>
			</g>
		</g>
		<g>
			<g>
				<path class="st0" d="M426.7,275.1c-4.6-1.1-8.2,0.8-9,4.2c-0.6,2.3,0.1,5.3,5.3,6.6c4.3,1,8.3-0.5,9.2-4.4
					C432.6,280,432.7,276.6,426.7,275.1L426.7,275.1z M423,288.8c-3.5-0.9-7.6-4.3-6.1-10.4c1.2-5.1,5-7.5,9.7-6.4
					c4.7,1.2,7.7,5.3,6.4,10.5C431.7,288.4,426.6,289.7,423,288.8L423,288.8z"/>
			</g>
		</g>
		<g>
			<g>
				<path class="st0" d="M422.7,259.7c-1.2,0.4-1.5,0.8-1.7,1.5c-0.1,0.3-0.1,0.6-0.1,0.8c0,0.2-0.1,0.2-0.2,0.2
					c-0.2,0-0.2-0.2-0.2-0.6c0.1-1.1,0.2-2.3,0.3-3c0-0.5,0-1.5,0.1-2.6c0-0.3,0.1-0.5,0.2-0.5c0.1,0,0.2,0.1,0.2,0.3
					c0,0.3,0,0.7,0.1,0.8c0.1,0.2,0.2,0.2,0.4,0.2c0.3,0,0.9-0.1,1.7-0.4l9.9-3l0-0.1c-2.3-1-9-4.2-10.3-4.8
					c-0.3-0.1-0.6-0.2-0.8-0.2c-0.2,0-0.3,0.1-0.4,0.2c-0.1,0.2-0.1,0.6-0.2,0.8c0,0.2,0,0.4-0.2,0.3c-0.2,0-0.2-0.2-0.2-0.6
					c0.1-1,0.2-1.9,0.2-2.2c0-0.4,0-1.3,0.1-2c0-0.3,0.1-0.4,0.2-0.4c0.1,0,0.2,0.1,0.2,0.3c0,0.2,0,0.7,0.2,1
					c0.2,0.3,0.5,0.6,1.8,1.3c1.9,0.9,3.1,1.6,5.6,2.9c3,1.5,5.3,2.7,6.3,3.2c1.2,0.6,1.5,0.8,1.5,1.1c0,0.3-0.3,0.4-1.3,0.7
					L422.7,259.7L422.7,259.7z"/>
			</g>
		</g>
		<g>
			<g>
				<path class="st0" d="M430,229.4c0-0.1-0.1-0.1-0.1-0.1l-5.1,2.3c-0.1,0-0.2,0.1-0.2,0.1c0,0.1,0.1,0.1,0.2,0.1l5.4,1.5
					c0.1,0,0.1,0,0.1-0.1L430,229.4L430,229.4z M431.5,233.6c0,0.1,0.1,0.1,0.2,0.2l3.1,0.9c0.5,0.2,1.1,0.2,1.3,0.2
					c0.4,0,0.6-0.2,0.6-0.9l0-0.3c0-0.3,0-0.3,0.1-0.3c0.2,0,0.2,0.1,0.2,0.3c0.1,0.7,0.1,1.6,0.1,2.2c0,0.2,0.2,1.4,0.3,2.5
					c0,0.3,0,0.4-0.2,0.4c-0.1,0-0.2-0.1-0.2-0.2c0-0.2-0.1-0.5-0.1-0.6c-0.2-1-1-1.3-2.1-1.6l-13.8-4.1c-0.6-0.2-0.9-0.3-0.9-0.5
					c0-0.2,0.2-0.3,0.6-0.6c1.1-0.6,9.5-4.7,12.6-6.3c1.8-1,2.1-1.6,2.2-2c0-0.3,0-0.6,0-0.9c0-0.2,0-0.3,0.1-0.3
					c0.2,0,0.2,0.2,0.3,0.9c0.1,0.8,0.2,2.3,0.3,4c0,0.4,0,0.6-0.1,0.6c-0.1,0-0.2-0.1-0.2-0.3c-0.1-0.1-0.3-0.3-0.5-0.1l-4.4,2.1
					c-0.1,0.1-0.1,0.1-0.1,0.2L431.5,233.6L431.5,233.6z"/>
			</g>
		</g>
		<g>
			<g>
				<path class="st2" d="M421.9,198l-1.6,2.8l-1.5-2.7l-3,0.8l0.9-3l-2.7-1.6l2.7-1.5l-0.8-3.1l2.9,0.9l1.6-2.8l1.5,2.7l3-0.8
					l-0.9,3l2.7,1.6l-2.7,1.5l0.8,3.1L421.9,198L421.9,198z M429.2,194.4l-3.8-2.2l1.2-4.1l-4.2,1.2l-2-3.8l-2.1,3.8l-4.1-1.2
					l1.1,4.2l-3.7,2.1l3.8,2.2l-1.2,4.1l4.2-1.2l2,3.8l2.1-3.8l4.1,1.2l-1.1-4.2L429.2,194.4L429.2,194.4z"/>
			</g>
		</g>
		<g>
			<g>
				<path class="st2" d="M221.4,198l-1.6,2.8l-1.5-2.7l-3,0.8l0.9-3l-2.7-1.6l2.7-1.5l-0.8-3.1l2.9,0.9l1.6-2.8l1.5,2.7l3-0.8
					l-0.9,3l2.7,1.6l-2.7,1.5l0.8,3.1L221.4,198L221.4,198z M228.6,194.4l-3.8-2.2l1.2-4.1l-4.2,1.2l-2-3.8l-2.1,3.8l-4.1-1.2
					l1.1,4.2l-3.7,2.1l3.8,2.2l-1.2,4.1l4.2-1.2l2,3.8l2.1-3.8l4.1,1.2l-1.1-4.2L228.6,194.4L228.6,194.4z"/>
			</g>
		</g>
		<g>
			<g>
				<path class="st3" d="M257.8,252.3v-4.5c-0.6,0.1-1.3-0.2-1.5-0.8c0-0.1-0.1-0.2-0.1-0.2l-1.1-0.1L257.8,252.3L257.8,252.3
					L257.8,252.3z M304.4,169.8c1.3-0.6,4.1,0.2,5.8,0.6c-1.2-1-3.8-3.1-5.8-2.4C304.4,168.7,304.4,169.1,304.4,169.8L304.4,169.8
					L304.4,169.8z M293.2,278.8c-2.7-1.6-5.3-3.4-7.1-5.7c-0.2,4.2-1.4,8.1-3.8,11.7c0.1,3.5-1.3,6.3-3.7,8.3l1.1,0.1
					c0.1-0.3,0.3-0.5,0.6-0.6c0.7-0.3,1.5-0.1,1.9,0.6c0.3,0.7,0.1,1.6-0.6,1.9c-0.7,0.3-1.5,0.1-1.9-0.6c0-0.1-0.1-0.2-0.1-0.2
					l-1.1-0.1l0.9,1.8c0,0.1,0,0.1,0,0.1l0.2-0.2c0.1-0.1,0.2-0.1,0.4-0.2c1.4-0.7,3.7-0.2,4.8-0.9c0.3-0.2,0.5-0.5,0.7-0.8
					c0.4-0.5,0.7-1,1.2-1.4c1.4-1.7,3.1-4,4.5-5.8l-1.2,0.2c1.3-2.5,2.8-4.9,3.2-7.8L293.2,278.8L293.2,278.8L293.2,278.8z
					 M360.5,295.7c0-0.4,0-0.8,0.2-1.2c0.3-0.6,0.9-1,1.5-1.1c-0.2-0.3-0.3-0.6-0.3-0.9c-0.3-0.8-0.2-1.6,0.2-2.3
					c0.1-0.3,0.2-0.6,0.4-0.9c-5.2-3.3-8-10.3-8.3-16.3c-1.8,2.3-4.3,4.1-7,5.7l0.1,0.5c0.4,2.9,1.9,5.3,3.2,7.8l-1.2-0.2
					c1.3,1.7,3.1,4.1,4.5,5.8c0.4,0.4,0.8,0.9,1.2,1.4c0.2,0.2,0.5,0.6,0.7,0.8C356.7,295.4,359,295,360.5,295.7
					C360.5,295.7,360.5,295.7,360.5,295.7L360.5,295.7L360.5,295.7z M304.4,162.7v-1h2.1c0.9,0,1.7,0.3,2.4,0.9
					c0.5-0.6,0.7-1.5,0.7-2.3c0-0.9-0.2-1.7-0.7-2.3c-0.7,0.6-1.6,0.9-2.4,0.9h-2.1v-2.1c0-0.9,0.3-1.7,0.9-2.5
					c-0.6-0.5-1.4-0.7-2.3-0.7c-0.9,0-1.7,0.2-2.3,0.7c0.6,0.7,0.9,1.6,0.9,2.5v2.1h-2.1c-0.9,0-1.7-0.3-2.4-0.9
					c-0.5,0.6-0.7,1.5-0.7,2.3c0,0.9,0.2,1.7,0.7,2.3c0.7-0.7,1.6-0.9,2.4-0.9h2.1l0,0.9h0c0,3.9,0,7.3,0,11.3
					c0,0.5-0.6,1.1-0.9,1.5c0.8,0.6,1.8,1.8,2.3,3c0.5-1.2,1.5-2.3,2.3-3c-0.4-0.4-0.9-0.9-0.9-1.5c0-0.9,0-2.4,0-3.3
					c2.1,1.1,7,4.2,7.6,6.3c0.6,2.2-0.1,5.2-0.2,8.5c-0.1,4.1-2.9,13.3-7.5,17c-6.6-1.1-12.3-7-19.1-7.7l-0.1-0.5
					c-1-3.2,0.1-7.9,0.8-9.7l-1.1-0.9c-3.7-3.2-8.5-6.6-12.7-9.1c-10.1,4.5-14.2,13.8-14.3,24.3V245c-0.3-0.1-0.6,0-0.9,0.1
					c-0.3,0.1-0.5,0.3-0.6,0.6l-1.8-0.1c2-2.5,2.8-5.2,0.6-10.2c-0.9,1-1.7,2-2.2,3.3c-1.5-2.9-4.9-4.5-5.3-4.6
					c-0.2,0.4-0.6,4.2,0.5,6.9c-1.3-0.2-2.5-0.2-3.9,0c2.6,4.6,4.6,5.5,8.5,5.6l-1,1.5c-0.3,0-0.6,0-0.8,0.1c-0.7,0.4-1,1.2-0.6,1.9
					c0.3,0.7,1.2,1,1.9,0.6c0.7-0.3,1-1.2,0.6-1.9c0-0.1-0.1-0.2-0.1-0.2l0.6-1l2.8,5.7c-2-1.7-4-2.1-6.1-1.7c0.6,1.2,1.3,2.2,2,3
					c-1.1-0.1-2.2,0.1-3.3,0.4c2.9,4.6,6.1,6.5,9.3,6.7v2.8c-0.1,0.3-0.1,0.7,0,1.1v2.5c-0.6,0.1-1.2,0.2-1.8,0.3
					c0.6,1.1,1.2,1.9,1.8,2.7v0.8c-0.5,0.1-1,0.2-1.5,0.4c0.5,0.8,1,1.4,1.5,2v31c0,1.6,0,5.3-0.7,7c4.7-2.4,9.5-6.7,11.3-11.6
					l0,1.7c1.6-1,4.2-5.4,5.7-7.5c0.7,0,0.8-0.1,1.5-0.2l-0.6,0.9c-0.3,0-0.6,0-0.8,0.1c-0.7,0.4-1,1.2-0.6,1.9
					c0.3,0.7,1.2,1,1.9,0.6c0.7-0.4,1-1.2,0.6-1.9c0-0.1-0.1-0.2-0.1-0.2l0.6-0.9l1.2,2.4l-1.1,0.8c-1.1,0.8-1.5,1.6-1.3,2.5
					c-1.1,1.1,0,3.5,1,4.4c0-0.2,0.1-0.6,0.2-0.7c-0.3,0.5,0.7,2,1.2,1.9c-0.2,1,1.4,2.5,2,2.2c-0.1,0.6,1.2,2,2,1.4l0,0l1.4-1.2
					c0.3,1.2,0.4,2.6,0.1,4.7c1.6,0.3,3.4,1.2,4.5,2c0-1.3,0.4-3.7,1.2-4.9c-1.5-0.6-2.7-1.6-3.7-3l-0.2-0.4l0.1,0
					c1.4-0.9,1.7-1.5,2-2.9c0.4-1.5,1-1.9,1.6-2.8c2.9-3.7,6-7.3,9-10.9l0.4,1.2c1.5-2.8,4.5-5.6,7-7.6c0.9,0.4,1.8,0.7,2.7,1.1
					c1.1,0.4,2.1,0.9,3.1,1.4c-1.9,13.1-11.6,23.4-19.5,33.3c3.9,1.4,7.6,2.9,10.9,4.7c3.8-4.3,7.3-9.9,10-15
					c-1.9,5.7-4.5,12.3-6.9,16.8c6.2,3.7,11.8,8.7,14.8,13.2c3-4.5,8.6-9.5,14.8-13.2c-2.4-4.5-5-11.1-6.9-16.8
					c2.7,5.1,6.2,10.7,10,15c3.3-1.8,7-3.3,10.9-4.7c-7.7-9.7-17.6-20.4-19.5-33.3c0.9-0.4,1.9-0.8,2.8-1.2c1-0.4,2.1-0.8,3.1-1.2
					c2.5,2,5.4,4.8,7,7.6l0.4-1.2c3.1,3.6,6.2,7.1,9,10.9c0.6,1,1.2,1.3,1.6,2.8c0.3,1.3,0.5,1.9,1.8,2.8c-0.6,0.1-1.1,0.4-1.4,1
					c-0.3,0.5-0.3,1-0.1,1.5c-0.9,0.2-1.3,1-1.1,1.9c0.4,1.6,0.5,2.7,0.2,3.9c0.8-1,1.8-1.5,3.3-2c0.9-0.3,1.3-1.1,1-2
					c0.5-0.1,0.9-0.5,1.2-1c0.1-0.2,0.2-0.4,0.2-0.6l0.1,0.1c0.8,0.6,2.2-0.7,2.1-1.4c0.6,0.3,2.2-1.2,2-2.2
					c0.5,0.1,1.5-1.4,1.2-1.9c0.1,0.1,0.1,0.5,0.2,0.7c1-0.9,2.1-3.3,1-4.4c0.2-0.9-0.2-1.7-1.3-2.5c0.8,0,1.5-0.4,1.9-1.1
					c0.3-0.6,0.3-1.3,0-1.9c0.2,0,0.4,0,0.6-0.1c1.5,2.1,4.2,6.3,5.7,7.2l0-1.7c1.8,4.9,6.8,9.3,11.3,11.6c-0.6-1.6-0.7-5.3-0.7-7
					v-42.5l3.5-6.6c0.3-0.6,0.6-1,1.3-1.2c0.2-0.4,0.4-0.9,0.3-1.4c0.4,0.1,0.9,0.1,1.3,0.1c0.4-1.8,3-7.6,6.3-6.3
					c0.2-1.9-0.1-3.4-1.6-5.2c1.1-0.4,1.4-1.7,0.9-2.7c0.4-0.1,0.7-0.3,1-0.5c-0.6-1.2-0.8-2.1-0.5-3.4c-0.9,1-1.8,1.3-3.1,1.5
					c0,0.4,0,0.7,0.1,1.1c-1.2,0.1-2,1-1.7,2.2c-2.3-0.2-3.7,0.4-5.2,1.5c2.9,2.1-0.4,7.5-1.7,8.8c0.3,0.4,0.5,0.7,0.8,1
					c-0.5,0.2-0.7,0.6-1,1.1c0.2,0.7,0,1.2-0.3,1.8l-0.4,0.7c0-20.3,0,10.7,0-38.5v-18.1c-0.1-10.5-4.2-19.8-14.3-24.3
					c-4.2,2.6-9,5.9-12.7,9.1l-1.1,0.9c0.7,1.6,1.7,6,1,9.2c-0.1,0.5-0.2,0.5-0.3,1c-5.5,0.6-10.3,4.4-15.5,6.4
					c-1.4,0.6-2.7,1-4.1,1.3c-2.1-2.3-2.8-5.4-3.3-8c-0.5-2.9-0.4-6.1-0.5-9.5c0.8-3.6,1.4-6.6,0.7-9.1c0.4,0.1,0.9,0.4,1.6,1
					c-0.3-1.9-1-3.1-1.9-4.6c0.7,0,1.3,0.1,2.2,0.4c-0.5-2.2-0.9-2.6-2.3-3.9c1.1-0.5,1.8-1.1,2.1-1.9c-3.2,0.1-5.4-1.3-8.1-3.5
					c-1.8-1.4-4.8-2.4-7-2.7c-3.1-0.3-9.1-0.2-8.4,4.3c-1.4-0.5-3.4-0.9-4.4-0.7c-0.7,0.2-1.4,0.5-1.7,0.8l0-1.9V162.7L304.4,162.7
					L304.4,162.7z"/>
			</g>
		</g>
		<g>
			<g>
				<path class="st4" d="M270.9,294.6c-0.5,0.6-0.9,1.1-1.6,1.7v-2.2C269.6,294.2,270.6,294.5,270.9,294.6L270.9,294.6L270.9,294.6z
					 M267.3,278v1l-0.3,0.4c-0.3,0-0.6,0-0.8,0.1c-0.7,0.4-1,1.2-0.6,1.9c0.3,0.7,1.1,1,1.8,0.7v2.7c-1.2-0.1-2.5,0.1-3.8,0.4
					c0.8,1.4,1.6,2.5,2.5,3.3c-0.8,0.1-1.5,0.3-2.3,0.6c1.1,1.7,2.3,2.9,3.6,3.8v2.8c0,3.3-2.7,6.5-7.2,9.8v-29.2
					C262.4,278,264.9,278.4,267.3,278L267.3,278L267.3,278z M269.3,285.2v-4.7l3.1,6.4C271.4,286,270.4,285.5,269.3,285.2
					L269.3,285.2L269.3,285.2z M283.7,268.8c0.1,3.6,0.1,7.7-1.9,12.7c-0.1-0.4-0.2-0.8-0.4-1.2c-0.7,0.5-1.3,1-1.9,1.5
					c-0.1-1.2-0.5-2.6-1.1-4c-0.2,0.2-0.4,0.4-0.6,0.5v-67.9l2.9,3.9l2.4-3.2v54.1C283.2,266.5,283.4,267.7,283.7,268.8L283.7,268.8
					L283.7,268.8z M275.8,211.3l0,1.7v67.7c-1,1.5-1.6,3.3-1.5,5.3l-3.9-7.8l1.1,0.1c0,0.1,0.1,0.2,0.1,0.2c0.3,0.7,1.2,1,1.9,0.6
					c0.7-0.4,1-1.2,0.6-1.9c-0.3-0.7-1.2-1-1.9-0.6c-0.3,0.1-0.5,0.4-0.6,0.6l-1.8-0.1l0-0.1c3.3-2.8,4.8-6.9,2.7-12.8
					c-0.6,0.4-1.2,0.9-1.7,1.4c-0.2-1.2-0.5-2.6-1.2-4c-0.1,0.1-0.3,0.2-0.4,0.4v-50.6c1.1,0.9,2.2,3,3.3,4L275.8,211.3L275.8,211.3
					L275.8,211.3z M267.3,211l0,53.2c-0.9,1.4-1.4,3-1.3,4.9l-3.3-6.8l1.1,0.1c0,0.1,0.1,0.2,0.1,0.2c0.3,0.7,1.2,1,1.9,0.6
					c0.7-0.4,1-1.2,0.6-1.9c-0.3-0.7-1.2-1-1.9-0.6c-0.3,0.1-0.5,0.4-0.6,0.6l-1.8-0.1l-0.3-0.6c2.9-2.7,4.1-6.9,1.8-13.2
					c-0.9,0.7-1.7,1.5-2.3,2.4c-0.2-1-0.6-2.1-1.2-3.4V211l3.6,4.2L267.3,211L267.3,211L267.3,211z M260.1,268.2V266
					c0.3-0.4,0.4-1,0.2-1.5c0-0.1-0.1-0.2-0.1-0.2l0.6-1l3.3,6.8C262.9,269,261.6,268.4,260.1,268.2L260.1,268.2L260.1,268.2z
					 M337.4,203.7c0.4,0.3,0.8,0.5,1.1,0.7h5.5c-0.6-0.9-1.6-1.6-2.5-2.1C340.5,202.8,339.6,203.2,337.4,203.7L337.4,203.7
					L337.4,203.7z M342.7,201.6c0.7,0.3,1.4,0.8,2,1.4c0.7-0.9,1.3-2,1.4-3.1L342.7,201.6L342.7,201.6L342.7,201.6z M351.3,204.4
					c-1-1.6-2.5-3-3.7-3.7c-0.2,0.9-1,2.2-2.2,3.7H351.3L351.3,204.4L351.3,204.4z M348,199.2c2,0.6,3.4,2,4.2,3.3
					c1.2-1.9,2.1-3.9,2.3-5.3C352.1,197.4,349.4,198.4,348,199.2L348,199.2L348,199.2z M380.1,202.9l-2.9-4v11.7l2.9-2.6V202.9
					L380.1,202.9L380.1,202.9z M372.9,203.7l0,4.3l2.9,2.6v-11.1L372.9,203.7L372.9,203.7L372.9,203.7z M368.4,210.6l2.6-2.3v-4.6
					l-2.6-3.6V210.6L368.4,210.6L368.4,210.6z M364.4,208.3l2.6,2.3v-10.8l-2.6,2.8V208.3L364.4,208.3L364.4,208.3z M360.2,210
					l2.3-2v-5.3l-2.3-2.6V210L360.2,210L360.2,210z M362.5,199.6l0-9.5c-1,1.5-2.1,3.1-3.6,4.3C360,195.7,361,197.8,362.5,199.6
					L362.5,199.6L362.5,199.6z M364.1,191.9l0,8l2.9-4.1C366,194.7,364.9,193.1,364.1,191.9L364.1,191.9L364.1,191.9z M373,190.1
					l0,9.4l2.8-3.6C375.2,193.8,374.4,192.2,373,190.1L373,190.1L373,190.1z M357.1,185.2c0.7,2.5,0.9,6.3,0.6,8.6
					c3.5-2.9,4-4.7,4.2-7.4c0-0.2-0.1-1,0.2-1.1c0.3-0.1,0.7,0.8,1,1.7c0.9,2.8,2.7,5.1,4.1,6.2c2.2-4.1,2.7-7.2,1.9-10.1
					c0-0.1-0.1-0.4-0.1-0.5c0-0.1,0.1-0.6,0.4-0.6c0.3-0.1,0.9,1,1,1.2c2,3.1,4.8,6.8,6.3,10.1c0.9-2.2,1.2-5,1.3-5.9
					c-2.2-3.9-5-8.3-9.5-10.2C363.6,180.2,359.4,183.1,357.1,185.2L357.1,185.2L357.1,185.2z M377.2,196.1l2.9,2.5
					c0-3.8-0.2-6.9-1.2-8.8C378.8,191.3,378.2,193.2,377.2,196.1L377.2,196.1L377.2,196.1z M368.2,195.6l3.1,4.4l-0.6-10.5
					C370.3,191,369.4,193.8,368.2,195.6L368.2,195.6L368.2,195.6z M357.1,208l1.7,1.6v-10.9l-1.3-2.8c-1.2,3.2-3.1,6.6-5,8.6h6
					l-0.4,0.7C357.4,206.2,357.2,207,357.1,208L357.1,208L357.1,208z M373,216.9L373,216.9l0-5.9l3.6,4.2l3.6-4.2v5.7h0v43.1
					l-2.7,5.2c-0.4,0.7-1.2,0.9-1.6,1.5c-0.2,0.4-0.3,0.9-0.1,1.3c-0.7,0.1-1.2,0.4-1.6,1.1c-0.3,0.6-0.3,1.2-0.1,1.7
					c-0.5,0.1-0.8,0.4-1.1,0.9l0,0L373,216.9L373,216.9L373,216.9z M373,273.6v-0.5c0,0.1,0.1,0.2,0.1,0.2L373,273.6L373,273.6
					L373,273.6z M373,280.8l0,15.1c0,3.3,2.7,6.5,7.2,9.8v-36.7c-0.2,0.4-0.5,0.6-0.9,0.8c0.3,0.6,0.3,1.3,0,1.9
					c-0.3,0.6-0.8,0.9-1.4,1c0.1,0.5,0.1,0.9-0.1,1.4c-0.3,0.6-1,0.9-1.6,1L373,280.8L373,280.8L373,280.8z M368.6,293.3
					c0.6,1.1,1.8,2.6,2.4,3v-11.8l-0.9,1.7c-0.4,0.7-0.5,1.7-0.6,2.5C369.4,290.3,369.2,292,368.6,293.3L368.6,293.3L368.6,293.3z
					 M364.4,216.7v-3.8l0-1.7l3.3,4c1.1-1,2.2-3,3.3-4v5.7h0l0,60.4l-3.9,7.3c-0.4,0.7-1.1,1.4-1.8,1.9c-0.3,0.2-0.6,0.5-0.9,0.8
					L364.4,216.7L364.4,216.7L364.4,216.7L364.4,216.7z M357.1,211.1l2.4,3.2l2.9-3.9v6.5h0v68.1c-5.8-3.7-6-10.9-5.9-16.4
					c0.3-1.1,0.5-2.3,0.5-3.4V211.1L357.1,211.1L357.1,211.1z M302.9,203.7c-0.4,0.3-0.8,0.5-1.1,0.7h-5.5c0.6-0.9,1.5-1.7,2.5-2.1
					C299.9,202.8,300.7,203.2,302.9,203.7L302.9,203.7L302.9,203.7z M297.6,201.6c-0.8,0.3-1.5,0.8-2,1.4c-0.7-0.9-1.3-2-1.4-3.1
					L297.6,201.6L297.6,201.6L297.6,201.6z M289,204.4c1-1.6,2.5-3,3.7-3.7c0.2,0.9,1,2.2,2.2,3.7H289L289,204.4L289,204.4z
					 M292.3,199.2c-2,0.6-3.4,2-4.2,3.3c-1.2-1.9-2.1-3.9-2.3-5.3C288.2,197.4,290.9,198.4,292.3,199.2L292.3,199.2L292.3,199.2z
					 M260.1,202.9l2.9-4v11.7l-2.9-2.6V202.9L260.1,202.9L260.1,202.9z M267.3,203.7l0,4.3l-2.9,2.6v-11.1L267.3,203.7L267.3,203.7
					L267.3,203.7z M271.9,210.6l-2.6-2.3v-4.6l2.6-3.6V210.6L271.9,210.6L271.9,210.6z M275.8,208.3l-2.6,2.3v-10.8l2.6,2.8V208.3
					L275.8,208.3L275.8,208.3z M280.1,210l-2.3-2v-5.3l2.3-2.6V210L280.1,210L280.1,210z M277.8,199.6l0-9.5c1,1.5,2.1,3.1,3.6,4.3
					C280.3,195.7,279.3,197.8,277.8,199.6L277.8,199.6L277.8,199.6z M276.2,191.9l0,8l-2.9-4.1C274.2,194.7,275.3,193.1,276.2,191.9
					L276.2,191.9L276.2,191.9z M267.3,190.1v9.4l-2.8-3.6C265,194.4,265.7,192.4,267.3,190.1L267.3,190.1L267.3,190.1z M283.2,185.2
					c-0.7,2.5-0.9,6.3-0.6,8.6c-3.5-2.9-4-4.7-4.2-7.4c0-0.2,0.1-1-0.2-1.1c-0.3-0.1-0.7,0.8-1,1.7c-0.9,2.8-2.7,5.1-4.1,6.2
					c-2.2-4.1-2.7-7.2-1.9-10.1c0-0.1,0.1-0.4,0.1-0.5c0-0.1-0.1-0.6-0.4-0.6c-0.3-0.1-0.9,1-1,1.2c-2,3.1-4.8,6.8-6.3,10.1
					c-0.9-2.2-1.2-5-1.3-5.9c2.2-3.9,5-8.3,9.5-10.2C276.7,180.2,280.8,183.1,283.2,185.2L283.2,185.2L283.2,185.2z M263.1,196.1
					l-2.9,2.5c0-3.8,0.2-6.9,1.2-8.8C261.5,191.3,262.1,193.2,263.1,196.1L263.1,196.1L263.1,196.1z M272.1,195.6l-3.1,4.4l0.6-10.5
					C269.9,191,270.9,193.8,272.1,195.6L272.1,195.6L272.1,195.6z M283.2,208l-1.7,1.5v-10.9l1.3-2.8c1.2,3.2,3.1,6.6,5,8.6h-6
					l0.4,0.7C282.9,206.2,283.1,207,283.2,208L283.2,208L283.2,208z M311.4,204.4c0.6-0.9,1.2-2,1.6-3.6c-2,2-3.3,2.8-5.8,3.6H311.4
					L311.4,204.4L311.4,204.4z M328.7,204.4c-1.9-0.9-3.7-2.4-5.4-4.3c-0.2,1.9-1.3,3.1-2.6,4.3H328.7L328.7,204.4L328.7,204.4z
					 M320.8,204.4c-1.2-1.2-2.2-3.2-2.6-4.3c-0.7,1-2,2.9-4.5,4.3H320.8L320.8,204.4L320.8,204.4z M330.9,204.4
					c-0.6-0.8-0.7-1.6-1.2-2.6c0.7,0.8,2.2,1.8,4.1,2.6H330.9L330.9,204.4L330.9,204.4z M305.7,203.4c4.4-1.5,8.3-4.4,8.9-10.4
					c0.2-3.6,0.1-6.2,0.3-8.4c0.2-0.5,0.3-0.8,0.6-1.3c0.2,0.4,0.5,0.9,0.6,1.3c-0.3,3.8-0.1,8.9-0.7,12.4c-0.3,2.1-0.7,3.5-1.6,5.2
					c2.5-1.6,4.2-3.5,4.1-5.6c0-1.3,0-7.3,0.1-8.6c0.1-1.3,0-2.1,0.1-3.5c0.1-0.4,0.4-1,0.7-1.3c0.2,0.3,0.6,0.9,0.7,1.3
					c0,4.5-0.3,9-0.1,13.5c0.1,2,0.6,3.4,1.5,4.3c1.1-0.9,1.7-2.7,1.7-4.3c0-4.6,0-8.9,0-13.5c0.2-0.5,0.3-0.9,0.7-1.3
					c0.3,0.3,0.5,0.7,0.7,1.3c0,1.7,0,3,0,4.6c0,1.6,0.1,5.8,0.1,7.4c0,3.2,2.4,4.7,4.5,6c-0.7-1.4-1.7-2.5-1.7-5.8
					c0-3.9-0.5-10.2-0.5-12.2c0.1-0.4,0.4-0.9,0.6-1.3c0.1,0.2,0.4,0.5,0.7,1.3c0,1.6,0,2.9,0.1,4.4c0.1,1.5,0.3,6.6,0.4,8.1
					c0.6,3,3.9,5.5,6.2,6.2c-4.7-4.9-4.1-10.9-4.4-17.3c0-1-0.1-2,0.3-2.9c0.9-2.3,1.3-6.8,0.5-9c0.4,0.1,1.1,0.3,1.5,0.4
					c-0.3-0.6-1.2-2.3-2.2-3.6c1.2,0,1.9,0.1,2.3,0.2c-0.5-0.7-1.4-2-2.9-2.9c0.7,0,1.3-0.2,1.7-0.5c-2.1-0.7-4.9-2.2-6.6-3.5
					c-0.8-0.6-2.7-1.7-5.1-2.2c-3.5-0.7-8.8-0.6-7.7,2.9c1.8-0.3,2.9,0.8,4.9,0.8c1.1,0,2.3-0.2,3.2-0.4c0.9-0.2,2.6-0.2,3.4,0.2
					c1.2,0.7,1.7,1.1,2.7,2.3c0.1,0.1,0,0.2,0,0.2c-0.1,0.1-0.2,0.1-0.2,0c-1-0.6-1.7-1.3-2.9-1.7c-1.7-0.3-3.5,0.5-4.6,0.8
					c1,0.4,2,1,2.3,1.5c-1.2,0.6-1.8,1.8-3.1,1.7c-1.4-0.1-2.1-1.2-3-1.6c0.7-0.9,1.3-1.2,1.9-1.6c-0.7-0.1-1.2-0.5-1.7-0.7
					c-1.1-0.4-2.3-0.5-2.5-0.2c1.1,2.5,2.4,4.3,4.7,6.9c-0.9,0.2-1.9-0.1-2.5-0.4c-1.2-0.6-2.6-0.1-3,1.5c2.5,1.6,2.4,5.9,2.1,9.3
					c0,0.5-0.1,1-0.1,1.5c-0.3,4.6-1.2,8.2-2.5,10.7C309.4,198.5,307.8,201.6,305.7,203.4L305.7,203.4L305.7,203.4z M294.3,279.4
					c-0.3,1.8-1,4-1.9,5.6l2.8-1.2l0.4,2.8l2.6-1.1l0.3,2.4l5-4.4c-0.6-0.2-1.2-0.5-1.8-0.8C299.4,281.9,296.8,280.7,294.3,279.4
					L294.3,279.4L294.3,279.4z M345.9,279.4c0.3,1.8,1,4,1.9,5.6l-2.8-1.2l-0.4,2.8l-2.6-1.1l-0.3,2.4l-5-4.4
					c0.6-0.2,1.2-0.5,1.8-0.8C340.9,281.9,343.4,280.7,345.9,279.4L345.9,279.4L345.9,279.4z M320.1,295.3c2-3.3,4.4-5.9,7.7-7.9
					c1.8,11.7,11,23.8,17.9,31.8c-1.4,0.5-4.6,1.6-7.2,2.7c-6.9-7.5-12.8-19.3-15.2-24.8c0.5,7.5,5.5,22.6,7.7,28.2
					c-3.6,2.1-6.8,4.8-11,8.2c-4.2-3.4-7.4-6.2-11-8.2c2.2-5.6,7.2-20.7,7.7-28.2c-2.4,5.4-8.3,17.3-15.2,24.8
					c-2.6-1.2-5.7-2.2-7.2-2.7c6.9-8,16.1-20.1,17.9-31.8C315.7,289.3,318.1,292,320.1,295.3L320.1,295.3L320.1,295.3z"/>
			</g>
		</g>
		<g>
			<g>
				<path class="st4" d="M295.7,266.9c0.5,1.4,2,2.2,3.4,1.7c1.4-0.5,2.2-2,1.7-3.5c0-0.1-0.1-0.2-0.1-0.4c-0.6-1.2-2-1.8-3.3-1.4
					C296,263.9,295.3,265.5,295.7,266.9L295.7,266.9L295.7,266.9z M301.7,266.9c2.4,0.9,4.3-0.3,3.5-3c-0.9-2.7-3.2-2.5-4.6-0.4
					c0.5,0.4,0.8,0.9,1,1.6C301.9,265.6,301.9,266.2,301.7,266.9L301.7,266.9L301.7,266.9z M298.6,269.6c-0.1,2.5,1.6,4.1,3.9,2.4
					c2.3-1.7,1.4-3.8-1-4.5c-0.2,0.6-0.6,1.1-1.2,1.5C299.9,269.3,299.2,269.6,298.6,269.6L298.6,269.6L298.6,269.6z M295.1,267.5
					c-2.4,0.7-3.3,2.8-1,4.5c2.3,1.7,4,0.2,3.9-2.4c-0.6-0.1-1.2-0.3-1.7-0.7C295.7,268.6,295.3,268,295.1,267.5L295.1,267.5
					L295.1,267.5z M296,263.4c-1.4-2.1-3.7-2.3-4.6,0.4c-0.9,2.7,1.1,3.9,3.5,3c-0.1-0.6-0.1-1.3,0.1-1.9
					C295.2,264.3,295.5,263.8,296,263.4L296,263.4L296,263.4z M300.1,263c1.5-2,1-4.3-1.8-4.3c-2.8,0-3.3,2.3-1.8,4.3
					c0.5-0.3,1.1-0.5,1.8-0.5C299,262.5,299.6,262.7,300.1,263L300.1,263L300.1,263z M334.2,247.9l-2.7-5.4l0.1,0
					c5.5-2.4,10.6-7.2,11.6-13.4c0.6-3.8-0.5-7.4-2.7-10.5c-1.7-2.4-4.1-5-6.7-6.4c-0.2-0.1-0.5,0.1-0.3,0.3c0.7,0.9,1.4,1.8,2,2.7
					c1.8,2.7,3.5,5.8,3.6,9.1c0.3,4.5-2.4,8-5.8,10.6c-0.5,0.4-1,0.7-1.6,0.9c-0.4,0.1-0.9,0.2-1.3,0.3c-0.7,0.2-1.1,0.6-1.6,1.2
					c-1.2,1.5-3.7,1.2-4.7-0.4c-0.3-0.4-1.1-0.4-1.4,0c-0.7,0.6-1.6,1.5-2.5,1.5c-1,0-1.9-0.9-2.5-1.5c-0.3-0.3-1.1-0.4-1.4,0
					c-1,1.5-3.5,1.9-4.7,0.4c-0.4-0.6-0.9-0.9-1.6-1.2c-0.4-0.1-0.9-0.2-1.3-0.3c-0.6-0.2-1.1-0.5-1.6-0.9
					c-3.4-2.6-6.1-6.1-5.8-10.6c0.2-4.3,3.1-8.5,5.6-11.8c0.2-0.2-0.1-0.4-0.3-0.3c-2.6,1.4-5,4-6.7,6.4c-2.2,3.1-3.3,6.7-2.7,10.5
					c1,6.2,6.1,11,11.6,13.4l0.1,0l-2.7,5.4c5.1,1,9.5,4.1,9.6,9.8c0.1,4,0.2,8,0.3,11.9c0,1.7-0.5,2.8-1.8,3.9
					c-1.3,1.1-2.6,2.1-3.9,3.2c-0.6,0.5-0.4,1.7-0.2,2.3c0.2,0.3,1.5,0.5,1.8,0.6c1.5,0.4,2.8,1,4,2.1c1,0.8,2.8,1.4,4.1,1.4
					c1.3,0,3.1-0.5,4.1-1.4c1.2-1.1,2.5-1.7,4-2.1c0.3-0.1,1.6-0.2,1.8-0.6c0.3-0.6,0.4-1.8-0.2-2.3c-1.3-1.1-2.6-2.1-3.9-3.2
					c-1.3-1.1-1.9-2.2-1.8-3.9c0.1-4,0.2-8,0.3-11.9C324.7,251.9,329,248.8,334.2,247.9L334.2,247.9L334.2,247.9z M323.8,276.9
					c0.6,0,4,0.1,4,0.9c0,0.8-3.4,1.4-4,1.4c-0.6,0-1.1-0.5-1.1-1.1C322.7,277.4,323.2,276.9,323.8,276.9L323.8,276.9L323.8,276.9z
					 M316.4,276.9c-0.6,0-4,0.1-4,0.9c0,0.8,3.4,1.4,4,1.4c0.6,0,1.1-0.5,1.1-1.1C317.6,277.4,317,276.9,316.4,276.9L316.4,276.9
					L316.4,276.9z M328.4,255.4l1.5,1.5l1.5-1.5l-1.5-1.5L328.4,255.4L328.4,255.4L328.4,255.4z M308.9,255.4l1.5,1.5l1.5-1.5
					l-1.5-1.5L308.9,255.4L308.9,255.4L308.9,255.4z M296.4,248.7c-1.9-1.8-4-2.9-6.3-4.2l-0.2-0.1l0.2-0.1c2.3-1.3,4.4-2.4,6.3-4.2
					l0.1-0.1l0.1,0.1c1.9,1.8,4,2.9,6.3,4.2l0.2,0.1l-0.2,0.1c-2.3,1.3-4.4,2.4-6.3,4.2H296.4L296.4,248.7L296.4,248.7L296.4,248.7z
					 M343.7,248.7c-1.9-1.8-4-2.9-6.3-4.2l-0.2-0.1l0.2-0.1c2.3-1.3,4.4-2.4,6.3-4.2l0.1-0.1l0.1,0.1c1.9,1.8,4,2.9,6.3,4.2l0.2,0.1
					l-0.2,0.1c-2.3,1.3-4.4,2.4-6.3,4.2H343.7L343.7,248.7L343.7,248.7L343.7,248.7z M308.8,260.1c0.7,2.9,1.4,6,2,8.9
					c0.1,0.5,0.2,1.1,0.2,1.5c0,0.1,0.1,0.2,0.2,0.2c0.1,0,0.2,0,0.2-0.1c0.7-1,0.9-2.4,0.8-3.5l-0.5-7
					C310.8,260.2,309.8,260.2,308.8,260.1L308.8,260.1L308.8,260.1z M331.4,260.1c-0.7,2.9-1.4,6-2,8.9c-0.1,0.5-0.2,1.1-0.2,1.5
					c0,0.1-0.1,0.2-0.2,0.2c-0.1,0-0.2,0-0.2-0.1c-0.7-1-0.9-2.4-0.8-3.5l0.5-7C329.5,260.2,330.4,260.2,331.4,260.1L331.4,260.1
					L331.4,260.1z M320.1,214.3l-1.5,2.6l-2.8-0.8l0.8,2.9l-2.6,1.4l2.6,1.5l-0.8,2.8l2.9-0.8l1.4,2.6l1.5-2.6l2.8,0.8l-0.8-2.9
					l2.6-1.4l-2.6-1.5l0.8-2.8l-2.9,0.8L320.1,214.3L320.1,214.3L320.1,214.3z M339.8,273c-0.6-2.7-0.6-5.5,0.5-7.7
					c1-2.2,3.1-3.8,5.7-4.7c-4.8-1.9-8.2-0.1-9.7,2.9C334.8,266.4,335.8,270.5,339.8,273L339.8,273L339.8,273z M282.7,204.9h74.9
					c-0.8,1.3-1,2.3-1,3.9v56.4c0,1.2-0.2,2.3-0.5,3.4c-2.3,7-11.4,11-17.6,13.7c-2.1,0.9-4.2,1.7-6.3,2.5c-1.9,0.8-3.9,1.6-5.7,2.8
					c-2.4,1.5-4.3,3.4-5.8,5.8l-0.5,0.8l-0.5-0.8c-1.7-2.6-3.8-4.6-6.4-6.2c-1.7-1-3.5-1.8-5.3-2.5c-2-0.8-4-1.6-6-2.4
					c-7.1-3.1-18.1-7.9-18.1-17.1v-56.4C283.7,207.3,283.5,206.3,282.7,204.9L282.7,204.9L282.7,204.9z M354.5,265.3
					c0,0.9-0.1,1.9-0.4,2.8c-2,6.2-10.9,10-16.4,12.4c-3.5,1.5-7.1,2.9-10.5,4.7c-3,1.5-5.3,3.1-7,6.1c-1.7-3-3.9-4.6-7-6.1
					c-3.4-1.8-7-3.2-10.5-4.7c-5.5-2.4-14.4-6.2-16.4-12.4c-0.3-0.9-0.4-1.8-0.4-2.8v-58.2h68.7
					C354.5,226.4,354.5,245.9,354.5,265.3L354.5,265.3L354.5,265.3z M302.3,169c0,1.8,0,3.1,0,4.9c0,0.4-0.3,1.2-0.6,1.5
					c0.6,0.4,1.1,1,1.4,1.5c0.4-0.7,0.9-1.1,1.4-1.5c-0.3-0.3-0.6-1.1-0.6-1.5c0-1.9,0-3.8,0-5.7C303.3,168.4,302.7,168.7,302.3,169
					L302.3,169L302.3,169z M302.3,157.4L302.3,157.4l0-0.5c0-0.6-0.1-1.9-0.6-2.5c0.4-0.2,0.9-0.2,1.4-0.2c0.5,0,1,0.1,1.4,0.2
					c-0.5,0.6-0.7,1.9-0.6,2.5v0.5h0l0,2v0.1l2.1,0v0h0.4c0.6,0,1.9-0.1,2.4-0.6c0.2,0.4,0.2,0.9,0.2,1.4c0,0.5-0.1,1-0.2,1.4
					c-0.6-0.6-1.9-0.7-2.4-0.6h-2.6v0.1l0,1.6v0.5l0,2.3c-0.5,0.4-1.1,1.2-1.4,1.8l0-4.7h0l0-1.5V161h-2.6c-0.6,0-1.9,0.1-2.4,0.6
					c-0.2-0.4-0.2-0.9-0.2-1.4c0-0.5,0.1-1,0.2-1.4c0.6,0.6,1.9,0.7,2.4,0.6h0.4v0l2.1,0v-1.2L302.3,157.4L302.3,157.4L302.3,157.4z
					"/>
			</g>
		</g>
		<g>
			<g>
				<path class="st5" d="M301.7,261.4c1.7-1.3,4.2-0.4,5,1.9c0.8,2.3-0.7,4.5-2.9,4.5c1.8,1.3,1.7,3.9-0.3,5.3
					c-2,1.5-4.5,0.7-5.1-1.4c-0.6,2.1-3.1,2.8-5.1,1.4c-2-1.5-2-4.1-0.3-5.4c-2.2,0-3.6-2.1-2.9-4.5c0.8-2.3,3.2-3.2,5-1.9
					c-0.7-2.1,0.9-4.2,3.3-4.2C300.8,257.3,302.4,259.4,301.7,261.4L301.7,261.4L301.7,261.4z M326.8,255.4l3.1-3.1l3.1,3.1
					l-3.1,3.1L326.8,255.4L326.8,255.4L326.8,255.4z M307.3,255.4l3.1-3.1l3.1,3.1l-3.1,3.1L307.3,255.4L307.3,255.4L307.3,255.4z
					 M307.4,258.9c1.9,0.1,3.6,0.2,5.5,0.2l0.6,8c0.2,2.8-1.4,5.1-3.1,5.8c0.1-1-0.1-1.9-0.3-2.7
					C309.2,266.5,308.3,262.7,307.4,258.9L307.4,258.9L307.4,258.9z M332.9,258.9c-1.8,0.1-3.6,0.2-5.5,0.2l-0.6,8
					c-0.2,2.8,1.4,5.1,3.1,5.8c-0.1-1,0.1-1.9,0.3-2.7C331.1,266.5,332,262.7,332.9,258.9L332.9,258.9L332.9,258.9z M342.1,275.4
					c-3.7-7.7,0-14.1,7.3-13.9c-3.7-3.4-11.6-5-14.5,0.8C332.4,267.3,334.9,272.9,342.1,275.4L342.1,275.4L342.1,275.4z
					 M286.3,244.5v20.8c0,0.9,0.1,1.8,0.4,2.6c1.9,6,10.8,9.8,16.1,12.1c3.5,1.5,7.1,2.9,10.6,4.7c2.6,1.3,5.3,2.9,6.7,5.6
					c1.5-2.7,4.1-4.2,6.7-5.6c3.4-1.8,7-3.2,10.6-4.7c5.3-2.3,14.2-6.1,16.1-12.1c0.3-0.8,0.4-1.7,0.4-2.6c0-6.9,0-13.9,0-20.8l0,0
					c-3.6,1.6-7.4,3.9-10.2,6.9c-2.8-3-6.4-5.2-10-6.9h0h0l2.2,4.3l-1.5,0.3c-4.6,0.8-8.6,3.5-8.8,8.6c-0.1,4-0.2,8-0.3,11.9
					c0,1.3,0.4,2.1,1.4,3c1.3,1.1,2.6,2.1,3.9,3.2c1.1,0.9,1,2.6,0.5,3.8c-0.4,1-1.7,1-2.6,1.3c-1.4,0.4-2.5,1.1-3.5,2
					c-1.2,1.1-3.3,1.7-4.9,1.7c-1.6,0-3.7-0.6-4.9-1.7c-1.1-0.9-2.2-1.6-3.5-2c-0.9-0.3-2.2-0.3-2.6-1.3c-0.5-1.2-0.6-2.9,0.5-3.8
					c1.3-1.1,2.6-2.1,3.9-3.2c1-0.9,1.4-1.7,1.4-3c-0.1-4-0.3-8-0.3-11.9c-0.1-5.1-4.1-7.8-8.7-8.6l-1.5-0.3l2.2-4.3h0
					c-3.6,1.6-7.1,3.9-10,6.9C293.6,248.4,289.9,246.1,286.3,244.5L286.3,244.5L286.3,244.5L286.3,244.5z"/>
			</g>
		</g>
		<g>
			<g>
				<path class="st6" d="M308.3,166.6c0.4-0.1,1.8,0,1.9,0.5c0.1,0.4-0.1,0.6-0.3,0.5C309.4,167.2,308.7,166.8,308.3,166.6
					L308.3,166.6L308.3,166.6z M303.3,167.5c0.6-0.3,1.6-0.5,2-0.5c3.1,0.2,6.3,2.7,8.2,4c-0.8-1.7-2.4-3-2.7-4.7
					c-0.8-0.6-1.9-0.7-3-1c-1.3-0.3-2-0.2-2.9,0.5C304.1,166.2,303.6,166.9,303.3,167.5L303.3,167.5L303.3,167.5z M305.6,170.2
					c1,0.4,3.3,1.8,4.8,3.1c0.3-0.7,0.8-1.1,1.5-1.3C310.1,171,307.3,170.2,305.6,170.2L305.6,170.2L305.6,170.2z M320.1,211.9
					l1.9,3.6l4-1.1l-1.1,3.9l3.6,2.1l-3.5,2l1.1,4l-3.9-1.1l-2,3.6l-1.9-3.6l-4,1.1l1.1-3.9l-3.6-2.1l3.6-2l-1.1-4l3.9,1.1
					L320.1,211.9L320.1,211.9L320.1,211.9z M354,207.6h-67.7v36.9l0,0c3.7-1.6,7.4-3.9,10.2-6.9c2.8,2.9,6.3,5.2,10,6.9h0l0.7-1.4
					c-9.8-4.9-15.2-15.1-9-24.3c3.1-4.6,7.1-6.9,11.8-9.4c-1.6,2.3-3.2,4.6-4.7,7c-3.6,5.9-4.3,12.9,2.6,17.5
					c1.9,1.3,3.1,0.5,4.8,2.6c0.7,0.9,2.1,0.6,2.6-0.3c0.7-1.1,2.4-1.1,3.3-0.3c0.3,0.3,1.2,1.2,1.7,1.2c0.5,0,1.4-0.9,1.7-1.2
					c0.9-0.8,2.6-0.8,3.3,0.3c0.5,0.8,2,1.1,2.6,0.3c1.7-2.2,2.9-1.3,4.8-2.6c6.8-4.7,6.2-11.7,2.6-17.5c-1.5-2.4-3.1-4.7-4.7-7
					c4.7,2.5,8.7,4.8,11.8,9.4c6.1,9.2,0.7,19.4-9,24.3l0.7,1.4h0c3.7-1.6,7.2-3.9,10-6.9c2.8,2.9,6.5,5.2,10.2,6.9l0,0
					C354,232.2,354,219.9,354,207.6L354,207.6L354,207.6z M347.5,286.3c1.8,2.3,3.5,4.6,5.3,6.9c1.4,1.3,1.7,2.8,3.5,2.6
					c0.3,0,3.1,0.3,3.8,0.6c1.1,0.5,1.9,1.9,2.7,2.2c0.5,0.1,1.4,0.8,1.5,1.3c0.1,0.5-0.3,0.9-0.9,1c-0.9-1-2-1.4-2.8-1.6
					c-2.1-0.4-3.2-0.6-4.7-1.1c1.2,0.8,2.1,1.1,2.9,2.2c-0.8-0.1-1.9-0.2-2.7-0.1c0.2,0.8,0.5,1.5,1.1,2.2c-0.4-0.2-1.2-0.2-2-0.2
					c0.1,0.6,0.3,1.4,0.6,2.4c-0.7-0.4-1.1-0.6-1.7-0.4c-0.3-1.8-0.9-2.8-1.5-3.5c-3.1-4-6.4-7.8-9.7-11.6l0.2-1.6l2.6,1.1l0.4-2.8
					L347.5,286.3L347.5,286.3L347.5,286.3z M363.8,301.6c0.3,0.6,0.6,1.6,0.5,2.4c0.4-0.6,0.7-1.6,0.5-2.4c-0.1-0.3-0.2-0.5-0.3-0.4
					C364.3,301.4,364,301.6,363.8,301.6L363.8,301.6L363.8,301.6z M358.4,301.1c-0.3-0.2-0.9-0.3-1.4-0.2c0.1,0.3,0.3,0.9,0.9,1.2
					C357.9,301.6,358.2,301.2,358.4,301.1L358.4,301.1L358.4,301.1z M357.3,303.1c-0.3-0.2-1-0.4-1.4-0.4c0.1,0.3,0.2,1,0.8,1.4
					C356.7,303.7,357.1,303.2,357.3,303.1L357.3,303.1L357.3,303.1z M356,305.3c-0.3-0.2-0.8-0.5-1.5-0.4c0.1,0.3,0.5,1.1,1.1,1.3
					C355.5,305.7,355.7,305.4,356,305.3L356,305.3L356,305.3z M363,304.8l-0.3,0.4c-0.2,0.2-0.6,0.3-0.9,0.1l-3-2.7
					c-0.7-0.6,0-1.6,0.8-1c1.1,0.8,2.2,1.4,3.2,2.3C363.1,304.2,363.1,304.6,363,304.8L363,304.8L363,304.8z M361.6,306.9l-0.4,0.4
					c-0.2,0.2-0.6,0.3-0.9,0l-2.8-2.6c-0.7-0.7,0.1-1.7,0.9-1.1l3,2.3C361.8,306.2,361.8,306.7,361.6,306.9L361.6,306.9L361.6,306.9
					z M359.7,308.6l-0.3,0.4c-0.2,0.2-0.6,0.3-0.9,0l-2.2-2.1c-0.6-0.6,0.1-1.6,0.8-1l2.4,1.8C359.8,308,359.9,308.4,359.7,308.6
					L359.7,308.6L359.7,308.6z M361.4,301.7c0.5,0.5,1.2,1.1,1.7,1.7c-0.2-0.8-0.5-1.4-1.4-2.2C361.6,301.4,361.5,301.5,361.4,301.7
					L361.4,301.7L361.4,301.7z M292.9,286.4c-1.8,2.3-3.5,4.6-5.3,6.9c-1.3,1.3-1.7,2.8-3.5,2.6c-0.3,0-3.1,0.3-3.8,0.6
					c-1.1,0.5-1.9,1.9-2.7,2.2c-0.5,0.1-1.4,0.8-1.5,1.3c-0.1,0.5,0.3,0.9,0.9,1c0.9-1,2-1.4,2.7-1.6c2.1-0.4,3.2-0.6,4.7-1.1
					c-1.2,0.8-2.1,1.1-2.9,2.2c0.8-0.1,1.9-0.2,2.7-0.1c-0.2,0.8-0.5,1.5-1.1,2.2c0.4-0.2,1.2-0.2,2-0.2c-0.1,0.6-0.3,1.4-0.6,2.4
					c0.7-0.4,1.1-0.6,1.7-0.4c0.3-1.8,0.9-2.8,1.5-3.5c3-4,6.4-7.8,9.7-11.6l-0.2-1.6l-2.6,1.1l-0.4-2.8L292.9,286.4L292.9,286.4
					L292.9,286.4z M276.6,301.7c-0.3,0.6-0.6,1.6-0.5,2.4c-0.4-0.6-0.7-1.6-0.5-2.4c0.1-0.3,0.2-0.5,0.3-0.4
					C276.1,301.5,276.3,301.7,276.6,301.7L276.6,301.7L276.6,301.7z M282,301.1c0.3-0.2,0.9-0.3,1.4-0.2c-0.1,0.3-0.3,0.9-0.9,1.2
					C282.5,301.6,282.2,301.2,282,301.1L282,301.1L282,301.1z M283.1,303.2c0.3-0.2,1-0.4,1.4-0.4c-0.1,0.3-0.2,1-0.8,1.4
					C283.7,303.8,283.3,303.3,283.1,303.2L283.1,303.2L283.1,303.2z M284.4,305.3c0.3-0.2,0.8-0.5,1.5-0.4c-0.1,0.3-0.5,1.1-1.1,1.3
					C284.9,305.8,284.7,305.5,284.4,305.3L284.4,305.3L284.4,305.3z M277.4,304.9l0.3,0.4c0.2,0.2,0.6,0.3,0.9,0.1l3-2.7
					c0.7-0.6,0-1.6-0.8-1c-1.1,0.8-2.2,1.4-3.2,2.3C277.3,304.2,277.2,304.6,277.4,304.9L277.4,304.9L277.4,304.9z M278.7,307
					l0.4,0.4c0.2,0.2,0.6,0.3,0.9,0l2.8-2.6c0.7-0.7-0.1-1.7-0.9-1.1l-3,2.3C278.6,306.3,278.5,306.7,278.7,307L278.7,307L278.7,307
					z M280.7,308.6l0.3,0.4c0.2,0.2,0.6,0.3,0.9,0l2.2-2.1c0.6-0.6-0.1-1.6-0.8-1l-2.4,1.8C280.6,308,280.5,308.4,280.7,308.6
					L280.7,308.6L280.7,308.6z M279.6,301.1c-0.5,0.5-1.8,1.8-2.4,2.3c0.2-1.1,1.2-2.2,2-3C279.4,300.7,279.5,300.9,279.6,301.1
					L279.6,301.1L279.6,301.1z"/>
			</g>
		</g>
		<g>
			<g>
				<path class="st4" d="M394.3,236.8c-0.3,0.4-0.8,0.8-1.6,1c0.1,0.3,0.3,0.5,0.7,0.7c0.3,0.2,0.7,0.3,1,0.1
					C394.1,237.9,394.2,237.3,394.3,236.8L394.3,236.8L394.3,236.8z M392.1,241c0.6,0.3,1.4,0.2,1.6-0.3c0.3-0.5-0.1-1.2-0.7-1.5
					c-0.6-0.3-1.4-0.2-1.6,0.3C391.1,240,391.4,240.6,392.1,241L392.1,241L392.1,241z M379.5,266.2c-0.1,0.2-0.1,0.5-0.2,0.8
					c-0.4-0.4-0.9-0.7-1.5-0.8c0.2-0.1,0.4-0.3,0.6-0.6l5.5-10.5c0.4-0.8,0.6-1.7,0.5-2.2c0.1-0.2,0.7-0.2,1.3,0.1
					c0.6,0.3,1,0.8,0.8,1c-0.5,0.1-1.1,0.8-1.5,1.6L379.5,266.2L379.5,266.2L379.5,266.2z M377.6,268.4c0.7,0.4,1.4,0.3,1.6-0.1
					c0.2-0.4-0.1-1-0.8-1.4c-0.7-0.4-1.4-0.3-1.6,0.1C376.6,267.5,376.9,268.1,377.6,268.4L377.6,268.4L377.6,268.4z M376.1,271.3
					c0.9,0.5,1.8,0.4,2.1-0.2c0.3-0.6-0.1-1.4-1-1.9c-0.9-0.5-1.8-0.4-2.1,0.2C374.8,270,375.3,270.8,376.1,271.3L376.1,271.3
					L376.1,271.3z M374.9,273.6c0.8,0.4,1.6,0.4,1.8-0.1c0.2-0.5-0.2-1.2-0.9-1.6s-1.6-0.4-1.8,0.1
					C373.7,272.5,374.1,273.2,374.9,273.6L374.9,273.6L374.9,273.6z M369.1,285.7c-1,2-0.5,5.4-1.4,6.9c0,0,0,0.1,0,0.1
					c-0.7,1.3-2.2,1.8-3.5,1.1c-1.2-0.7-1.7-2.2-1-3.5c0,0,0.1-0.1,0.1-0.1c0.8-1.5,3.8-3,4.8-4.9l6-11.4c0.3,0.3,0.6,0.4,1,0.5
					L369.1,285.7L369.1,285.7L369.1,285.7z M362.6,296.9c0.8,0.4,1.7,0.3,2-0.3c0.3-0.6-0.1-1.4-0.9-1.9c-0.8-0.4-1.7-0.3-2,0.3
					C361.4,295.6,361.8,296.4,362.6,296.9L362.6,296.9L362.6,296.9z M360.8,301.5c-0.3-0.3-0.6-0.4-1-0.5l0.6-1.1
					c0.4,0.1,0.7,0.3,1,0.5L360.8,301.5L360.8,301.5L360.8,301.5z M355.6,310.2c0.7,0.4,1.5,0.3,1.8-0.2c0.3-0.5-0.1-1.2-0.8-1.6
					c-0.7-0.4-1.5-0.3-1.8,0.2C354.5,309.1,354.9,309.9,355.6,310.2L355.6,310.2L355.6,310.2z M353.6,313.9c0.9-0.9,1.5-1,2.2-1.5
					c0.7-0.5-0.5-1.1-0.8-1.3c-0.3-0.2-1.5-0.8-1.5,0C353.7,312,353.8,312.9,353.6,313.9L353.6,313.9L353.6,313.9z M390.4,241.6
					c-0.8,0.2-1.8,0.6-2.2,1.2c0.9,1.8-0.5,4.6-2.7,8.3c-0.3,0-0.6-0.1-0.8-0.4c2.2-3.2,3.3-7.5,1.7-8.5c1-1,2.6-0.9,3.9-0.7
					C390.4,241.5,390.4,241.5,390.4,241.6L390.4,241.6L390.4,241.6z M386.4,251.7c0.1,0.1,0.3,0.1,0.5,0.2c1.1-2.6,3.3-6.8,5-7.1
					c0.5-1-0.1-2.1-0.5-2.6c-0.7,0-1.9,0.1-2.4,1.1c0.7,1.6-1.5,5.8-3,8.2C386.2,251.5,386.3,251.6,386.4,251.7L386.4,251.7
					L386.4,251.7z M392.5,242.7c0.3,0.8,0.5,1.8,0.2,2.6c-2,0.3-3.4,3-5.3,6.9c0.2,0.3,0.4,0.4,0.8,0.4c1.4-3.6,4.3-7,6.1-6.2
					c0.2-1.4-0.7-2.7-1.6-3.7C392.6,242.7,392.6,242.7,392.5,242.7L392.5,242.7L392.5,242.7z M262.6,263.7l2,4
					c0.8,1.6,1.3,2.6,1.8,4.3c-1-1.3-1.7-2.6-2.4-4.1l-2-4c-0.5-1-1-1.6-1-2.7C261.9,261.9,262.1,262.7,262.6,263.7L262.6,263.7
					L262.6,263.7z M258.8,264.2c0.4-0.2,0.9,0,1.1,0.4c0.2,0.4,0,0.9-0.4,1.1c-0.4,0.2-0.9,0-1.1-0.4
					C258.2,264.9,258.4,264.4,258.8,264.2L258.8,264.2L258.8,264.2z M264.6,261.3c0.4-0.2,0.9,0,1.1,0.4c0.2,0.4,0,0.9-0.4,1.1
					c-0.4,0.2-0.9,0-1.1-0.4C264.1,261.9,264.3,261.5,264.6,261.3L264.6,261.3L264.6,261.3z M255.4,249l1.4,2.8
					c0.7,1.5,1.2,2.4,1.6,4c-1-1.2-1.6-2.4-2.2-3.7l-1.4-2.8c-0.5-1.1-1-1.8-1.1-3C254.5,247.1,254.8,247.9,255.4,249L255.4,249
					L255.4,249z M251.1,248.6c0.4-0.2,0.9,0,1.1,0.4c0.2,0.4,0,0.9-0.4,1.1c-0.4,0.2-0.9,0-1.1-0.4
					C250.6,249.3,250.7,248.8,251.1,248.6L251.1,248.6L251.1,248.6z M257,245.7c0.4-0.2,0.9,0,1.1,0.4c0.2,0.4,0,0.9-0.4,1.1
					c-0.4,0.2-0.9,0-1.1-0.4C256.4,246.4,256.6,245.9,257,245.7L257,245.7L257,245.7z M280.2,300.9l-0.4-0.8l0.7-0.2l0.3,0.6
					L280.2,300.9L280.2,300.9L280.2,300.9z M284.6,308.2c0.9,1.4,2,2.3,3.3,2.8c-0.5,1-0.8,1.8-0.7,3.2c-1-0.7-1.9-1.1-3-1.3
					c0.3-1.7,0.1-3.1-0.3-4.3l-0.1-0.3l0.6-0.6L284.6,308.2L284.6,308.2L284.6,308.2z M278.2,296.9l-1.4-2.8
					c0.3-0.1,0.4-0.1,0.6-0.3l1.3,2.6L278.2,296.9L278.2,296.9L278.2,296.9z M274.6,296c0.4-0.2,0.9,0,1.1,0.4
					c0.2,0.4,0,0.9-0.4,1.1c-0.4,0.2-0.9,0-1.1-0.4C274,296.7,274.2,296.2,274.6,296L274.6,296L274.6,296z M280.3,293.1
					c0.4-0.2,0.9,0,1.1,0.4c0.2,0.4,0,0.9-0.4,1.1c-0.4,0.2-0.9,0-1.1-0.4C279.8,293.8,279.9,293.3,280.3,293.1L280.3,293.1
					L280.3,293.1z M271.3,281.3l1.3,2.6c0.8,1.6,1.5,3,2,4.7c-1.1-1.4-1.8-2.7-2.5-4.3l-1.3-2.7c-0.6-1.1-1.1-2.1-1.3-3.4
					C270.3,279.1,270.8,280.2,271.3,281.3L271.3,281.3L271.3,281.3z M266.6,279.9c0.4-0.2,0.9,0,1.1,0.4c0.2,0.4,0,0.9-0.4,1.1
					c-0.4,0.2-0.9,0-1.1-0.4C266.1,280.6,266.3,280.1,266.6,279.9L266.6,279.9L266.6,279.9z M272.4,277c0.4-0.2,0.9,0,1.1,0.4
					c0.2,0.4,0,0.9-0.4,1.1c-0.4,0.2-0.9,0-1.1-0.4C271.9,277.7,272,277.2,272.4,277L272.4,277L272.4,277z"/>
			</g>
		</g>
		<g>
			<g>
				<path class="st7" d="M265.8,289.7c3.1-0.5,7.1,0.2,9.8,3.3C272,294.1,268.4,293.2,265.8,289.7L265.8,289.7L265.8,289.7z
					 M265.8,286.1c3-0.8,6.9,1.4,8,3.1C271.4,289.9,267.6,288.9,265.8,286.1L265.8,286.1L265.8,286.1z M278,280
					c-2.5,1.9-3.1,6.3-2.4,8.3C277.5,286.8,279.1,283.1,278,280L278,280L278,280z M280.8,282.2c-2.2,2.2-4.1,5.8-3.3,9.9
					C280.5,289.8,282,286.4,280.8,282.2L280.8,282.2L280.8,282.2z M272,266.1c-1.9,2.1-3.5,5.5-2.6,9.6
					C272,273.5,273.2,270.2,272,266.1L272,266.1L272,266.1z M269.3,263.8c-2.2,1.7-2.6,6-1.9,7.9C269.1,270.4,270.4,267,269.3,263.8
					L269.3,263.8L269.3,263.8z M258.2,269.4c2.6-0.7,6.3,1.5,7.4,3.2C263.5,273.2,260,272.2,258.2,269.4L258.2,269.4L258.2,269.4z
					 M258.4,272.9c2.8-0.3,6.5,0.5,9.1,3.7C264.2,277.4,260.9,276.4,258.4,272.9L258.4,272.9L258.4,272.9z M250.8,256
					c2.8-0.6,6,0.5,8.5,4C256.4,260.9,253.2,259.7,250.8,256L250.8,256L250.8,256z M251.6,252.6c2.1-0.4,4.6,1.6,5.7,3.3
					C255.2,256.3,253,255.3,251.6,252.6L251.6,252.6L251.6,252.6z M260,248.3c-1.6,1.4-1.5,4.7-0.8,6.6
					C260.8,253.5,261.3,251.2,260,248.3L260,248.3L260,248.3z M263.2,249.8c-2.2,1.8-3.2,5.2-2,9.2
					C263.6,257.3,264.6,253.9,263.2,249.8L263.2,249.8L263.2,249.8z M245.7,241.8c2.3-0.2,4.7,0.6,6.5,3.8
					C249.9,245.8,247.5,244.9,245.7,241.8L245.7,241.8L245.7,241.8z M248.3,235.7c2,1.2,3.4,2.5,4.2,4c-0.2,1.7,0.1,3.6,0.5,5.1
					c-1.2-1.4-2.3-2.7-4-3.5C248.3,239.7,248,238.1,248.3,235.7L248.3,235.7L248.3,235.7z M254.8,237.2c-1.5,1.6-2.3,3.9-0.9,7.4
					C255.4,243,256.2,240.6,254.8,237.2L254.8,237.2L254.8,237.2z"/>
			</g>
		</g>
		<g>
			<g>
				<path class="st8" d="M317.5,169.8c-0.7-0.1-1.2-0.5-1.2-1.1c0-0.6,0.5-1,1.2-1.1c-0.4,0.1-0.6,0.5-0.6,1.1
					C316.9,169.3,317.2,169.7,317.5,169.8L317.5,169.8L317.5,169.8z M317.7,167.7c0.7,0,1.3,0.5,1.3,1.1c0,0.6-0.6,1.1-1.3,1.1l0,0
					c0.4,0,0.7-0.5,0.7-1.1S318,167.7,317.7,167.7L317.7,167.7L317.7,167.7L317.7,167.7z"/>
			</g>
		</g>
	</g>
	<g>
		<path class="st9" d="M523.5,127.3h13.2v18.8c-2.1,0.7-4.1,1.2-6.3,1.5c-2.1,0.3-4.6,0.5-7.4,0.5c-5.9,0-10.4-1.7-13.7-5.2
			c-3.3-3.5-4.9-8.4-4.9-14.7c0-4,0.8-7.6,2.4-10.6c1.6-3,3.9-5.3,7-6.9c3-1.6,6.6-2.4,10.7-2.4c4.1,0,8,0.8,11.6,2.3l-1.7,4
			c-3.5-1.5-6.9-2.2-10.1-2.2c-4.7,0-8.4,1.4-11,4.2c-2.7,2.8-4,6.7-4,11.7c0,5.2,1.3,9.2,3.8,11.9c2.5,2.7,6.3,4.1,11.3,4.1
			c2.7,0,5.3-0.3,7.9-0.9v-11.9h-8.7V127.3z"/>
		<path class="st9" d="M549.4,118.6v18.8c0,2.4,0.5,4.1,1.6,5.3c1.1,1.2,2.8,1.7,5.1,1.7c3,0,5.3-0.8,6.7-2.5
			c1.4-1.7,2.1-4.4,2.1-8.1v-15.3h4.4v29.1h-3.6l-0.6-3.9h-0.2c-0.9,1.4-2.1,2.5-3.8,3.3c-1.6,0.8-3.4,1.1-5.5,1.1
			c-3.5,0-6.2-0.8-7.9-2.5c-1.8-1.7-2.6-4.4-2.6-8.1v-19H549.4z"/>
		<path class="st9" d="M585,147.6l-11-29.1h4.7l6.3,17.2c1.4,4,2.2,6.6,2.5,7.8h0.2c0.2-0.9,0.8-2.9,1.8-5.8c1-2.9,3.4-9.4,7-19.3
			h4.7l-11,29.1H585z"/>
		<path class="st9" d="M618.1,148.2c-4.3,0-7.7-1.3-10.2-3.9c-2.5-2.6-3.7-6.2-3.7-10.9c0-4.7,1.2-8.4,3.5-11.2
			c2.3-2.8,5.4-4.1,9.3-4.1c3.6,0,6.5,1.2,8.6,3.6c2.1,2.4,3.2,5.6,3.2,9.5v2.8h-20c0.1,3.4,0.9,6,2.6,7.8c1.6,1.8,3.9,2.7,6.9,2.7
			c3.1,0,6.2-0.7,9.3-2v3.9c-1.6,0.7-3,1.2-4.4,1.4S620.1,148.2,618.1,148.2z M616.9,121.7c-2.3,0-4.2,0.8-5.6,2.3
			c-1.4,1.5-2.2,3.6-2.5,6.3h15.2c0-2.8-0.6-4.9-1.9-6.4C621,122.5,619.2,121.7,616.9,121.7z"/>
		<path class="st9" d="M649.5,118.1c1.3,0,2.5,0.1,3.5,0.3l-0.6,4.1c-1.2-0.3-2.3-0.4-3.2-0.4c-2.4,0-4.4,1-6,2.9
			c-1.7,1.9-2.5,4.3-2.5,7.1v15.6h-4.4v-29.1h3.6l0.5,5.4h0.2c1.1-1.9,2.4-3.3,3.9-4.4C646.1,118.6,647.7,118.1,649.5,118.1z"/>
		<path class="st9" d="M678.3,147.6v-18.8c0-2.4-0.5-4.1-1.6-5.3c-1.1-1.2-2.8-1.7-5.1-1.7c-3,0-5.3,0.8-6.7,2.5
			c-1.4,1.6-2.1,4.4-2.1,8.1v15.2h-4.4v-29.1h3.6l0.7,4h0.2c0.9-1.4,2.2-2.5,3.8-3.3s3.4-1.2,5.4-1.2c3.5,0,6.1,0.8,7.9,2.5
			c1.8,1.7,2.6,4.4,2.6,8.1v19H678.3z"/>
		<path class="st9" d="M695.9,118.6v18.8c0,2.4,0.5,4.1,1.6,5.3c1.1,1.2,2.8,1.7,5.1,1.7c3,0,5.3-0.8,6.7-2.5
			c1.4-1.7,2.1-4.4,2.1-8.1v-15.3h4.4v29.1h-3.6l-0.6-3.9h-0.2c-0.9,1.4-2.1,2.5-3.8,3.3c-1.6,0.8-3.4,1.1-5.5,1.1
			c-3.5,0-6.2-0.8-7.9-2.5c-1.8-1.7-2.6-4.4-2.6-8.1v-19H695.9z"/>
		<path class="st9" d="M729.5,147.6h-4.4v-41.2h4.4V147.6z"/>
		<path class="st9" d="M758.1,131.5v16.1h-4.5v-38.8h10.6c4.7,0,8.3,0.9,10.5,2.7c2.3,1.8,3.4,4.6,3.4,8.2c0,5.1-2.6,8.6-7.8,10.4
			l10.5,17.4h-5.3l-9.4-16.1H758.1z M758.1,127.7h6.2c3.2,0,5.5-0.6,7-1.9c1.5-1.3,2.2-3.2,2.2-5.7c0-2.6-0.8-4.4-2.3-5.5
			c-1.5-1.1-3.9-1.7-7.3-1.7h-5.9V127.7z"/>
		<path class="st9" d="M798.8,148.2c-4.3,0-7.7-1.3-10.2-3.9c-2.5-2.6-3.7-6.2-3.7-10.9c0-4.7,1.2-8.4,3.5-11.2
			c2.3-2.8,5.4-4.1,9.3-4.1c3.6,0,6.5,1.2,8.6,3.6c2.1,2.4,3.2,5.6,3.2,9.5v2.8h-20c0.1,3.4,0.9,6,2.6,7.8c1.6,1.8,3.9,2.7,6.9,2.7
			c3.1,0,6.2-0.7,9.3-2v3.9c-1.6,0.7-3,1.2-4.4,1.4S800.7,148.2,798.8,148.2z M797.6,121.7c-2.3,0-4.2,0.8-5.6,2.3s-2.2,3.6-2.5,6.3
			h15.2c0-2.8-0.6-4.9-1.9-6.4C801.6,122.5,799.9,121.7,797.6,121.7z"/>
		<path class="st9" d="M830.5,148.2c-1.9,0-3.6-0.4-5.2-1.1s-2.9-1.8-3.9-3.2H821c0.2,1.7,0.3,3.3,0.3,4.8v12H817v-42.1h3.6l0.6,4
			h0.2c1.1-1.6,2.5-2.7,3.9-3.4c1.5-0.7,3.2-1.1,5.2-1.1c3.8,0,6.8,1.3,8.9,4c2.1,2.6,3.1,6.3,3.1,11.1c0,4.8-1.1,8.5-3.2,11.1
			S834.3,148.2,830.5,148.2z M829.8,121.8c-3,0-5.1,0.8-6.4,2.5c-1.3,1.6-2,4.3-2,7.8v1c0,4.1,0.7,7,2,8.8s3.5,2.6,6.5,2.6
			c2.5,0,4.5-1,5.9-3c1.4-2,2.1-4.8,2.1-8.4c0-3.6-0.7-6.4-2.1-8.3C834.4,122.8,832.4,121.8,829.8,121.8z"/>
		<path class="st9" d="M854.4,118.6v18.8c0,2.4,0.5,4.1,1.6,5.3c1.1,1.2,2.8,1.7,5.1,1.7c3,0,5.3-0.8,6.7-2.5
			c1.4-1.7,2.1-4.4,2.1-8.1v-15.3h4.4v29.1h-3.6l-0.6-3.9h-0.2c-0.9,1.4-2.1,2.5-3.8,3.3c-1.6,0.8-3.4,1.1-5.5,1.1
			c-3.5,0-6.2-0.8-7.9-2.5c-1.8-1.7-2.6-4.4-2.6-8.1v-19H854.4z"/>
		<path class="st9" d="M897.1,118.1c3.8,0,6.8,1.3,8.9,3.9c2.1,2.6,3.2,6.3,3.2,11.1c0,4.8-1.1,8.5-3.2,11.1s-5.1,4-8.9,4
			c-1.9,0-3.6-0.4-5.2-1.1s-2.9-1.8-3.9-3.2h-0.3l-0.9,3.7h-3.2v-41.2h4.4v10c0,2.2-0.1,4.3-0.2,6h0.2
			C890,119.6,893,118.1,897.1,118.1z M896.4,121.8c-3,0-5.2,0.9-6.5,2.6c-1.3,1.7-2,4.6-2,8.7c0,4.1,0.7,7,2,8.8
			c1.4,1.8,3.5,2.6,6.5,2.6c2.7,0,4.7-1,6-3c1.3-2,2-4.8,2-8.5c0-3.8-0.7-6.6-2-8.5S899.2,121.8,896.4,121.8z"/>
		<path class="st9" d="M921.2,147.6h-4.4v-41.2h4.4V147.6z"/>
		<path class="st9" d="M930.2,110.7c0-1,0.2-1.7,0.7-2.2c0.5-0.5,1.1-0.7,1.9-0.7c0.7,0,1.3,0.2,1.8,0.7c0.5,0.5,0.8,1.2,0.8,2.2
			c0,1-0.3,1.7-0.8,2.2c-0.5,0.5-1.1,0.7-1.8,0.7c-0.7,0-1.4-0.2-1.9-0.7C930.4,112.4,930.2,111.7,930.2,110.7z M934.9,147.6h-4.4
			v-29.1h4.4V147.6z"/>
		<path class="st9" d="M955.9,148.2c-4.2,0-7.5-1.3-9.8-3.9c-2.3-2.6-3.5-6.3-3.5-11c0-4.9,1.2-8.6,3.5-11.3c2.3-2.7,5.7-4,10-4
			c1.4,0,2.8,0.2,4.2,0.4c1.4,0.3,2.5,0.7,3.3,1.1l-1.3,3.7c-1-0.4-2-0.7-3.2-1c-1.1-0.3-2.2-0.4-3-0.4c-5.9,0-8.9,3.8-8.9,11.3
			c0,3.6,0.7,6.3,2.2,8.2c1.4,1.9,3.6,2.9,6.4,2.9c2.4,0,4.9-0.5,7.5-1.6v3.9C961.3,147.7,958.8,148.2,955.9,148.2z"/>
		<path class="st9" d="M969.8,110.7c0-1,0.2-1.7,0.7-2.2c0.5-0.5,1.1-0.7,1.9-0.7c0.7,0,1.3,0.2,1.8,0.7c0.5,0.5,0.8,1.2,0.8,2.2
			c0,1-0.3,1.7-0.8,2.2c-0.5,0.5-1.1,0.7-1.8,0.7c-0.7,0-1.4-0.2-1.9-0.7C970,112.4,969.8,111.7,969.8,110.7z M974.5,147.6h-4.4
			v-29.1h4.4V147.6z"/>
		<path class="st9" d="M983.5,110.7c0-1,0.2-1.7,0.7-2.2c0.5-0.5,1.1-0.7,1.9-0.7c0.7,0,1.3,0.2,1.8,0.7c0.5,0.5,0.8,1.2,0.8,2.2
			c0,1-0.3,1.7-0.8,2.2c-0.5,0.5-1.1,0.7-1.8,0.7c-0.7,0-1.4-0.2-1.9-0.7C983.7,112.4,983.5,111.7,983.5,110.7z M988.3,147.6h-4.4
			v-29.1h4.4V147.6z"/>
		<path class="st9" d="M1029.5,147.6l-13.1-34.4h-0.2c0.2,2.7,0.4,6,0.4,9.7v24.7h-4.2v-38.8h6.8l12.3,32h0.2l12.4-32h6.7v38.8h-4.5
			v-25c0-2.9,0.1-6,0.4-9.3h-0.2l-13.3,34.3H1029.5z"/>
		<path class="st9" d="M1085.8,133.1c0,4.7-1.2,8.4-3.6,11.1c-2.4,2.7-5.7,4-9.9,4c-2.6,0-4.9-0.6-6.9-1.8c-2-1.2-3.6-3-4.7-5.3
			c-1.1-2.3-1.6-4.9-1.6-8c0-4.7,1.2-8.4,3.6-11.1c2.4-2.6,5.7-4,9.9-4c4.1,0,7.3,1.4,9.7,4.1
			C1084.6,124.8,1085.8,128.5,1085.8,133.1z M1063.6,133.1c0,3.7,0.7,6.5,2.2,8.5s3.7,2.9,6.5,2.9c2.9,0,5.1-1,6.6-2.9
			c1.5-1.9,2.2-4.8,2.2-8.5c0-3.7-0.7-6.5-2.2-8.4c-1.5-1.9-3.7-2.9-6.6-2.9c-2.9,0-5.1,0.9-6.5,2.8
			C1064.4,126.5,1063.6,129.3,1063.6,133.1z"/>
		<path class="st9" d="M1097.9,147.6h-4.4v-41.2h4.4V147.6z"/>
		<path class="st9" d="M1127,143.7h-0.2c-2,3-5.1,4.4-9.1,4.4c-3.8,0-6.8-1.3-8.9-3.9c-2.1-2.6-3.2-6.3-3.2-11.1
			c0-4.8,1.1-8.5,3.2-11.2c2.1-2.7,5.1-4,8.9-4c3.9,0,7,1.4,9.1,4.3h0.3l-0.2-2.1l-0.1-2v-11.8h4.4v41.2h-3.6L1127,143.7z
			 M1118.2,144.5c3,0,5.2-0.8,6.5-2.5c1.3-1.6,2-4.3,2-7.9v-0.9c0-4.1-0.7-7.1-2.1-8.8c-1.4-1.8-3.6-2.6-6.6-2.6c-2.6,0-4.6,1-5.9,3
			c-1.4,2-2.1,4.8-2.1,8.5c0,3.7,0.7,6.5,2,8.4C1113.6,143.5,1115.6,144.5,1118.2,144.5z"/>
		<path class="st9" d="M1165.6,133.1c0,4.7-1.2,8.4-3.6,11.1c-2.4,2.7-5.7,4-9.9,4c-2.6,0-4.9-0.6-6.9-1.8s-3.6-3-4.7-5.3
			c-1.1-2.3-1.6-4.9-1.6-8c0-4.7,1.2-8.4,3.6-11.1c2.4-2.6,5.7-4,9.9-4c4.1,0,7.3,1.4,9.7,4.1
			C1164.4,124.8,1165.6,128.5,1165.6,133.1z M1143.4,133.1c0,3.7,0.7,6.5,2.2,8.5s3.7,2.9,6.5,2.9c2.9,0,5.1-1,6.6-2.9
			c1.5-1.9,2.2-4.8,2.2-8.5c0-3.7-0.7-6.5-2.2-8.4c-1.5-1.9-3.7-2.9-6.6-2.9c-2.9,0-5.1,0.9-6.5,2.8S1143.4,129.3,1143.4,133.1z"/>
		<path class="st9" d="M1179.7,147.6l-11-29.1h4.7l6.3,17.2c1.4,4,2.2,6.6,2.5,7.8h0.2c0.2-0.9,0.8-2.9,1.8-5.8
			c1-2.9,3.4-9.4,7-19.3h4.7l-11,29.1H1179.7z"/>
		<path class="st9" d="M1218.4,147.6l-0.9-4.1h-0.2c-1.4,1.8-2.9,3.1-4.3,3.7c-1.4,0.6-3.2,1-5.4,1c-2.9,0-5.1-0.7-6.8-2.2
			c-1.6-1.5-2.5-3.6-2.5-6.3c0-5.9,4.7-8.9,14.1-9.2l4.9-0.2v-1.8c0-2.3-0.5-4-1.5-5.1c-1-1.1-2.5-1.6-4.7-1.6
			c-2.4,0-5.2,0.7-8.2,2.2l-1.3-3.4c1.4-0.8,3-1.4,4.7-1.8c1.7-0.4,3.4-0.7,5.1-0.7c3.5,0,6,0.8,7.7,2.3s2.5,4,2.5,7.4v19.8H1218.4z
			 M1208.4,144.5c2.7,0,4.9-0.8,6.5-2.3c1.6-1.5,2.3-3.6,2.3-6.3v-2.6l-4.4,0.2c-3.5,0.1-6,0.7-7.6,1.6c-1.6,1-2.3,2.5-2.3,4.5
			c0,1.6,0.5,2.8,1.4,3.6C1205.3,144.1,1206.7,144.5,1208.4,144.5z"/>
	</g>
	<g>
		<path class="st9" d="M544.2,265.9L519,200h-0.4c0.5,5.2,0.7,11.4,0.7,18.6v47.3h-8v-74.3h13l23.5,61.3h0.4l23.7-61.3h12.9v74.3
			h-8.6V218c0-5.5,0.2-11.4,0.7-17.9h-0.4l-25.4,65.7H544.2z"/>
		<path class="st9" d="M603.3,195.1c0-1.9,0.5-3.3,1.4-4.2c0.9-0.9,2.1-1.3,3.6-1.3c1.4,0,2.5,0.5,3.5,1.4c1,0.9,1.5,2.3,1.5,4.2
			c0,1.9-0.5,3.3-1.5,4.2c-1,0.9-2.1,1.4-3.5,1.4c-1.4,0-2.6-0.5-3.6-1.4C603.8,198.4,603.3,197,603.3,195.1z M612.4,265.9H604
			v-55.7h8.4V265.9z"/>
		<path class="st9" d="M668.4,265.9v-36c0-4.5-1-7.9-3.1-10.2c-2.1-2.2-5.3-3.4-9.7-3.4c-5.8,0-10.1,1.6-12.8,4.7
			c-2.7,3.2-4.1,8.3-4.1,15.6v29.2h-8.4v-55.7h6.9l1.4,7.6h0.4c1.7-2.7,4.1-4.9,7.3-6.4c3.1-1.5,6.6-2.3,10.4-2.3
			c6.7,0,11.8,1.6,15.1,4.9c3.4,3.2,5.1,8.4,5.1,15.5v36.3H668.4z"/>
		<path class="st9" d="M693.5,195.1c0-1.9,0.5-3.3,1.4-4.2c0.9-0.9,2.1-1.3,3.6-1.3c1.4,0,2.5,0.5,3.5,1.4c1,0.9,1.5,2.3,1.5,4.2
			c0,1.9-0.5,3.3-1.5,4.2c-1,0.9-2.1,1.4-3.5,1.4c-1.4,0-2.6-0.5-3.6-1.4S693.5,197,693.5,195.1z M702.6,265.9h-8.4v-55.7h8.4V265.9
			z"/>
		<path class="st9" d="M756.4,250.7c0,5.2-1.9,9.2-5.8,12c-3.9,2.8-9.3,4.2-16.3,4.2c-7.4,0-13.1-1.2-17.3-3.5v-7.8
			c2.7,1.4,5.5,2.4,8.6,3.2c3.1,0.8,6,1.2,8.9,1.2c4.4,0,7.8-0.7,10.2-2.1c2.4-1.4,3.6-3.5,3.6-6.4c0-2.2-0.9-4-2.8-5.6
			c-1.9-1.5-5.5-3.4-11-5.5c-5.2-1.9-8.9-3.6-11-5.1c-2.2-1.4-3.8-3.1-4.9-4.9c-1.1-1.8-1.6-4-1.6-6.6c0-4.5,1.8-8.1,5.5-10.7
			c3.7-2.6,8.8-3.9,15.2-3.9c6,0,11.9,1.2,17.6,3.7l-3,6.9c-5.6-2.3-10.6-3.5-15.2-3.5c-4,0-7,0.6-9,1.9c-2,1.3-3,3-3,5.2
			c0,1.5,0.4,2.8,1.1,3.8c0.8,1.1,2,2,3.7,3c1.7,0.9,5,2.3,9.8,4.1c6.6,2.4,11.1,4.8,13.4,7.3C755.3,243.9,756.4,247,756.4,250.7z"
			/>
		<path class="st9" d="M788.1,260c1.5,0,2.9-0.1,4.3-0.3c1.4-0.2,2.5-0.4,3.3-0.7v6.5c-0.9,0.4-2.3,0.8-4,1.1
			c-1.8,0.3-3.4,0.4-4.8,0.4c-10.8,0-16.2-5.7-16.2-17v-33.1h-8v-4.1l8-3.5l3.6-11.9h4.9v12.9h16.2v6.6h-16.2v32.8
			c0,3.4,0.8,5.9,2.4,7.7C783.2,259.1,785.4,260,788.1,260z"/>
		<path class="st9" d="M830.4,266.9c-8.2,0-14.7-2.5-19.5-7.5c-4.8-5-7.1-12-7.1-20.9c0-9,2.2-16.1,6.6-21.4
			c4.4-5.3,10.4-7.9,17.8-7.9c7,0,12.5,2.3,16.6,6.9c4.1,4.6,6.1,10.6,6.1,18.2v5.3h-38.4c0.2,6.5,1.8,11.5,5,14.9
			c3.1,3.4,7.5,5.1,13.2,5.1c6,0,11.9-1.3,17.8-3.8v7.5c-3,1.3-5.8,2.2-8.5,2.8C837.4,266.6,834.2,266.9,830.4,266.9z M828.1,216.3
			c-4.5,0-8,1.5-10.7,4.4c-2.7,2.9-4.2,6.9-4.7,12.1h29.1c0-5.3-1.2-9.4-3.6-12.2S832.5,216.3,828.1,216.3z"/>
		<path class="st9" d="M890.7,209.2c2.5,0,4.7,0.2,6.7,0.6l-1.2,7.8c-2.3-0.5-4.3-0.8-6.1-0.8c-4.5,0-8.4,1.8-11.6,5.5
			c-3.2,3.7-4.8,8.2-4.8,13.7v29.9h-8.4v-55.7h7l1,10.3h0.4c2.1-3.6,4.6-6.4,7.5-8.4S887.2,209.2,890.7,209.2z"/>
		<path class="st9" d="M915.7,210.2v36.1c0,4.5,1,7.9,3.1,10.2c2.1,2.2,5.3,3.4,9.7,3.4c5.8,0,10.1-1.6,12.8-4.8
			c2.7-3.2,4-8.4,4-15.6v-29.3h8.4v55.7h-7l-1.2-7.5h-0.5c-1.7,2.7-4.1,4.8-7.2,6.3c-3.1,1.5-6.6,2.2-10.5,2.2
			c-6.8,0-11.8-1.6-15.2-4.8c-3.4-3.2-5.1-8.4-5.1-15.4v-36.4H915.7z"/>
		<path class="st9" d="M980.1,265.9h-8.4v-79.1h8.4V265.9z"/>
		<path class="st9" d="M1068.2,246.1c0,6.5-2.4,11.6-7.1,15.3c-4.7,3.7-11.2,5.5-19.3,5.5c-8.8,0-15.6-1.1-20.3-3.4v-8.3
			c3,1.3,6.4,2.3,10,3c3.6,0.7,7.1,1.1,10.7,1.1c5.8,0,10.1-1.1,13-3.3c2.9-2.2,4.4-5.2,4.4-9.1c0-2.6-0.5-4.7-1.6-6.3
			c-1-1.6-2.8-3.2-5.2-4.5c-2.4-1.4-6.1-3-11.1-4.7c-6.9-2.5-11.8-5.4-14.8-8.8c-3-3.4-4.4-7.8-4.4-13.3c0-5.7,2.1-10.3,6.5-13.7
			c4.3-3.4,10-5.1,17.1-5.1c7.4,0,14.2,1.4,20.4,4.1l-2.7,7.5c-6.1-2.6-12.1-3.9-17.9-3.9c-4.6,0-8.1,1-10.7,2.9
			c-2.6,2-3.9,4.7-3.9,8.2c0,2.6,0.5,4.7,1.4,6.3c0.9,1.6,2.5,3.2,4.8,4.5s5.7,2.9,10.3,4.5c7.8,2.8,13.2,5.8,16.1,8.9
			C1066.7,236.9,1068.2,241.1,1068.2,246.1z"/>
		<path class="st9" d="M1116.3,265.9l-1.7-7.9h-0.4c-2.8,3.5-5.5,5.9-8.3,7.1c-2.8,1.2-6.2,1.9-10.3,1.9c-5.5,0-9.8-1.4-13-4.3
			c-3.1-2.8-4.7-6.9-4.7-12.1c0-11.2,9-17.1,27-17.7l9.4-0.3v-3.5c0-4.4-0.9-7.6-2.8-9.7c-1.9-2.1-4.9-3.1-9-3.1
			c-4.6,0-9.9,1.4-15.7,4.3l-2.6-6.5c2.7-1.5,5.7-2.7,9-3.5c3.3-0.8,6.5-1.3,9.8-1.3c6.6,0,11.6,1.5,14.8,4.4
			c3.2,3,4.8,7.7,4.8,14.2v38H1116.3z M1102.1,202.8c-4.7,0-8.4-1.2-11.1-3.5c-2.6-2.3-4.1-5.7-4.4-10.1h5.3c0.2,1.7,0.7,3,1.3,3.9
			c0.7,1,1.7,1.6,2.9,2.1c1.2,0.4,3.3,0.7,6.2,0.7c3.4,0,5.9-0.5,7.6-1.6c1.6-1.1,2.6-2.8,2.9-5h5.3c-0.3,4.3-1.9,7.6-4.7,10
			C1110.5,201.6,1106.8,202.8,1102.1,202.8z M1097.3,260c5.2,0,9.4-1.4,12.4-4.3c3-2.9,4.5-6.9,4.5-12.1v-5l-8.4,0.4
			c-6.7,0.2-11.5,1.3-14.5,3.1c-3,1.8-4.4,4.7-4.4,8.6c0,3,0.9,5.4,2.8,7C1091.4,259.2,1094,260,1097.3,260z"/>
		<path class="st9" d="M1178.1,265.9v-36c0-4.5-1-7.9-3.1-10.2c-2.1-2.2-5.3-3.4-9.7-3.4c-5.8,0-10.1,1.6-12.8,4.7
			c-2.7,3.2-4.1,8.3-4.1,15.6v29.2h-8.4v-55.7h6.9l1.4,7.6h0.4c1.7-2.7,4.1-4.9,7.3-6.4c3.1-1.5,6.6-2.3,10.4-2.3
			c6.7,0,11.8,1.6,15.1,4.9c3.4,3.2,5.1,8.4,5.1,15.5v36.3H1178.1z"/>
		<path class="st9" d="M1238.1,265.9l-1.7-7.9h-0.4c-2.8,3.5-5.5,5.9-8.3,7.1c-2.8,1.2-6.2,1.9-10.3,1.9c-5.5,0-9.8-1.4-13-4.3
			c-3.1-2.8-4.7-6.9-4.7-12.1c0-11.2,9-17.1,27-17.7l9.4-0.3v-3.5c0-4.4-0.9-7.6-2.8-9.7c-1.9-2.1-4.9-3.1-9-3.1
			c-4.6,0-9.9,1.4-15.7,4.3l-2.6-6.5c2.7-1.5,5.7-2.7,9-3.5c3.3-0.8,6.5-1.3,9.8-1.3c6.6,0,11.6,1.5,14.8,4.4
			c3.2,3,4.8,7.7,4.8,14.2v38H1238.1z M1223.8,202.8c-4.7,0-8.4-1.2-11.1-3.5c-2.6-2.3-4.1-5.7-4.4-10.1h5.3c0.2,1.7,0.7,3,1.3,3.9
			c0.7,1,1.7,1.6,2.9,2.1c1.2,0.4,3.3,0.7,6.2,0.7c3.4,0,5.9-0.5,7.6-1.6c1.6-1.1,2.6-2.8,2.9-5h5.3c-0.3,4.3-1.9,7.6-4.7,10
			C1232.3,201.6,1228.5,202.8,1223.8,202.8z M1219,260c5.2,0,9.4-1.4,12.4-4.3c3-2.9,4.5-6.9,4.5-12.1v-5l-8.4,0.4
			c-6.7,0.2-11.5,1.3-14.5,3.1c-3,1.8-4.4,4.7-4.4,8.6c0,3,0.9,5.4,2.8,7C1213.1,259.2,1215.7,260,1219,260z"/>
		<path class="st9" d="M1279.7,260c1.5,0,2.9-0.1,4.3-0.3c1.4-0.2,2.5-0.4,3.3-0.7v6.5c-0.9,0.4-2.3,0.8-4,1.1
			c-1.8,0.3-3.4,0.4-4.8,0.4c-10.8,0-16.2-5.7-16.2-17v-33.1h-8v-4.1l8-3.5l3.6-11.9h4.9v12.9h16.2v6.6h-16.2v32.8
			c0,3.4,0.8,5.9,2.4,7.7C1274.7,259.1,1276.9,260,1279.7,260z"/>
		<path class="st9" d="M1332.7,265.9l-1.7-7.9h-0.4c-2.8,3.5-5.5,5.9-8.3,7.1c-2.8,1.2-6.2,1.9-10.3,1.9c-5.5,0-9.8-1.4-13-4.3
			c-3.1-2.8-4.7-6.9-4.7-12.1c0-11.2,9-17.1,27-17.7l9.4-0.3v-3.5c0-4.4-0.9-7.6-2.8-9.7c-1.9-2.1-4.9-3.1-9-3.1
			c-4.6,0-9.9,1.4-15.7,4.3l-2.6-6.5c2.7-1.5,5.7-2.7,9-3.5c3.3-0.8,6.5-1.3,9.8-1.3c6.6,0,11.6,1.5,14.8,4.4
			c3.2,3,4.8,7.7,4.8,14.2v38H1332.7z M1318.5,202.8c-4.7,0-8.4-1.2-11.1-3.5c-2.6-2.3-4.1-5.7-4.4-10.1h5.3c0.2,1.7,0.7,3,1.3,3.9
			c0.7,1,1.7,1.6,2.9,2.1c1.2,0.4,3.3,0.7,6.2,0.7c3.4,0,5.9-0.5,7.6-1.6c1.6-1.1,2.6-2.8,2.9-5h5.3c-0.3,4.3-1.9,7.6-4.7,10
			C1326.9,201.6,1323.1,202.8,1318.5,202.8z M1313.6,260c5.2,0,9.4-1.4,12.4-4.3c3-2.9,4.5-6.9,4.5-12.1v-5l-8.4,0.4
			c-6.7,0.2-11.5,1.3-14.5,3.1c-3,1.8-4.4,4.7-4.4,8.6c0,3,0.9,5.4,2.8,7C1307.7,259.2,1310.3,260,1313.6,260z"/>
		<path class="st9" d="M1374.3,260c1.5,0,2.9-0.1,4.3-0.3c1.4-0.2,2.5-0.4,3.3-0.7v6.5c-0.9,0.4-2.3,0.8-4,1.1
			c-1.8,0.3-3.4,0.4-4.8,0.4c-10.8,0-16.2-5.7-16.2-17v-33.1h-8v-4.1l8-3.5l3.6-11.9h4.9v12.9h16.2v6.6h-16.2v32.8
			c0,3.4,0.8,5.9,2.4,7.7C1369.3,259.1,1371.5,260,1374.3,260z M1359.7,287.6c0.9-2.2,1.9-4.8,2.7-8c0.9-3.2,1.4-5.6,1.7-7.4h8.5
			v0.9c-0.4,1.7-1.4,4.2-3,7.5c-1.7,3.3-3.4,6-5.3,8.3h-4.6V287.6z"/>
		<path class="st9" d="M1392.3,195.1c0-1.9,0.5-3.3,1.4-4.2c0.9-0.9,2.1-1.3,3.6-1.3c1.4,0,2.5,0.5,3.5,1.4c1,0.9,1.5,2.3,1.5,4.2
			c0,1.9-0.5,3.3-1.5,4.2c-1,0.9-2.1,1.4-3.5,1.4c-1.4,0-2.6-0.5-3.6-1.4C1392.8,198.4,1392.3,197,1392.3,195.1z M1401.5,265.9h-8.4
			v-55.7h8.4V265.9z"/>
		<path class="st9" d="M1418.6,195.1c0-1.9,0.5-3.3,1.4-4.2c0.9-0.9,2.1-1.3,3.6-1.3c1.4,0,2.5,0.5,3.5,1.4c1,0.9,1.5,2.3,1.5,4.2
			c0,1.9-0.5,3.3-1.5,4.2c-1,0.9-2.1,1.4-3.5,1.4c-1.4,0-2.6-0.5-3.6-1.4S1418.6,197,1418.6,195.1z M1427.8,265.9h-8.4v-55.7h8.4
			V265.9z"/>
		<path class="st9" d="M1454.5,253.8l0.8,1.2c-0.9,3.4-2.1,7.3-3.8,11.8c-1.7,4.5-3.4,8.7-5.2,12.5h-6.3c0.9-3.5,1.9-7.9,3-13.1
			c1.1-5.2,1.9-9.3,2.3-12.5H1454.5z"/>
		<path class="st9" d="M1532.4,265.9l-25.2-65.9h-0.4c0.5,5.2,0.7,11.4,0.7,18.6v47.3h-8v-74.3h13l23.5,61.3h0.4l23.7-61.3h12.9
			v74.3h-8.6V218c0-5.5,0.2-11.4,0.7-17.9h-0.4l-25.4,65.7H1532.4z"/>
		<path class="st9" d="M1600.1,210.2v36.1c0,4.5,1,7.9,3.1,10.2c2.1,2.2,5.3,3.4,9.7,3.4c5.8,0,10.1-1.6,12.8-4.8
			c2.7-3.2,4-8.4,4-15.6v-29.3h8.4v55.7h-7l-1.2-7.5h-0.5c-1.7,2.7-4.1,4.8-7.2,6.3c-3.1,1.5-6.6,2.2-10.5,2.2
			c-6.8,0-11.8-1.6-15.2-4.8c-3.4-3.2-5.1-8.4-5.1-15.4v-36.4H1600.1z"/>
		<path class="st9" d="M1694.1,265.9v-36c0-4.5-1-7.9-3.1-10.2c-2.1-2.2-5.3-3.4-9.7-3.4c-5.8,0-10.1,1.6-12.8,4.7
			c-2.7,3.2-4.1,8.3-4.1,15.6v29.2h-8.4v-55.7h6.9l1.4,7.6h0.4c1.7-2.7,4.1-4.9,7.3-6.4c3.1-1.5,6.6-2.3,10.4-2.3
			c6.7,0,11.8,1.6,15.1,4.9c3.4,3.2,5.1,8.4,5.1,15.5v36.3H1694.1z"/>
		<path class="st9" d="M1742.2,266.9c-8.1,0-14.3-2.5-18.7-7.4c-4.4-5-6.6-12-6.6-21.1c0-9.3,2.2-16.5,6.7-21.6
			c4.5-5.1,10.9-7.6,19.2-7.6c2.7,0,5.4,0.3,8,0.9c2.7,0.6,4.8,1.3,6.3,2l-2.6,7.2c-1.9-0.7-3.9-1.4-6.1-1.9
			c-2.2-0.5-4.2-0.7-5.8-0.7c-11.3,0-17,7.2-17,21.6c0,6.8,1.4,12.1,4.1,15.8c2.8,3.7,6.8,5.5,12.3,5.5c4.6,0,9.4-1,14.3-3v7.5
			C1752.5,265.9,1747.8,266.9,1742.2,266.9z"/>
		<path class="st9" d="M1768.7,195.1c0-1.9,0.5-3.3,1.4-4.2c0.9-0.9,2.1-1.3,3.6-1.3c1.4,0,2.5,0.5,3.5,1.4c1,0.9,1.5,2.3,1.5,4.2
			c0,1.9-0.5,3.3-1.5,4.2c-1,0.9-2.1,1.4-3.5,1.4c-1.4,0-2.6-0.5-3.6-1.4C1769.2,198.4,1768.7,197,1768.7,195.1z M1777.9,265.9h-8.4
			v-55.7h8.4V265.9z"/>
		<path class="st9" d="M1795,195.1c0-1.9,0.5-3.3,1.4-4.2c0.9-0.9,2.1-1.3,3.6-1.3c1.4,0,2.5,0.5,3.5,1.4c1,0.9,1.5,2.3,1.5,4.2
			c0,1.9-0.5,3.3-1.5,4.2c-1,0.9-2.1,1.4-3.5,1.4c-1.4,0-2.6-0.5-3.6-1.4C1795.5,198.4,1795,197,1795,195.1z M1804.2,265.9h-8.4
			v-55.7h8.4V265.9z"/>
		<path class="st9" d="M546,359.3c0,5.2-1.9,9.2-5.8,12c-3.9,2.8-9.3,4.2-16.3,4.2c-7.4,0-13.1-1.2-17.3-3.5v-7.8
			c2.7,1.4,5.5,2.4,8.6,3.2c3.1,0.8,6,1.2,8.9,1.2c4.4,0,7.8-0.7,10.2-2.1c2.4-1.4,3.6-3.5,3.6-6.4c0-2.2-0.9-4-2.8-5.6
			c-1.9-1.5-5.5-3.4-11-5.5c-5.2-1.9-8.9-3.6-11-5.1c-2.2-1.4-3.8-3.1-4.9-4.9c-1.1-1.8-1.6-4-1.6-6.6c0-4.5,1.8-8.1,5.5-10.7
			c3.7-2.6,8.8-3.9,15.2-3.9c6,0,11.9,1.2,17.6,3.7l-3,6.9c-5.6-2.3-10.6-3.5-15.2-3.5c-4,0-7,0.6-9,1.9c-2,1.3-3,3-3,5.2
			c0,1.5,0.4,2.8,1.1,3.8s2,2,3.7,3c1.7,0.9,5,2.3,9.8,4.1c6.6,2.4,11.1,4.8,13.4,7.3C544.8,352.5,546,355.6,546,359.3z
			 M516.3,396.2c0.9-2.2,1.9-4.8,2.7-8c0.9-3.2,1.4-5.6,1.7-7.4h8.5v0.9c-0.4,1.7-1.4,4.2-3,7.5c-1.7,3.3-3.4,6-5.3,8.3h-4.6V396.2z
			"/>
		<path class="st9" d="M559,303.7c0-1.9,0.5-3.3,1.4-4.2c0.9-0.9,2.1-1.3,3.6-1.3c1.4,0,2.5,0.5,3.5,1.4c1,0.9,1.5,2.3,1.5,4.2
			c0,1.9-0.5,3.3-1.5,4.2c-1,0.9-2.1,1.4-3.5,1.4c-1.4,0-2.6-0.5-3.6-1.4S559,305.6,559,303.7z M568.1,374.5h-8.4v-55.7h8.4V374.5z"
			/>
		<path class="st9" d="M661.4,321.8c0,7.5-2.6,13.3-7.7,17.3c-5.1,4-12.5,6.1-22,6.1H623v29.2h-8.6v-74.3h19.3
			C652.1,300.2,661.4,307.4,661.4,321.8z M623,337.9h7.8c7.6,0,13.2-1.2,16.6-3.7c3.4-2.5,5.1-6.4,5.1-11.9c0-4.9-1.6-8.6-4.8-11
			c-3.2-2.4-8.2-3.6-15-3.6H623V337.9z"/>
		<path class="st9" d="M701.1,317.8c2.5,0,4.7,0.2,6.7,0.6l-1.2,7.8c-2.3-0.5-4.3-0.8-6.1-0.8c-4.5,0-8.4,1.8-11.6,5.5
			c-3.2,3.7-4.8,8.2-4.8,13.7v29.9h-8.4v-55.7h7l1,10.3h0.4c2.1-3.6,4.6-6.4,7.5-8.4S697.6,317.8,701.1,317.8z"/>
		<path class="st9" d="M766.2,346.6c0,9.1-2.3,16.2-6.9,21.3c-4.6,5.1-10.9,7.6-19,7.6c-5,0-9.4-1.2-13.3-3.5
			c-3.9-2.3-6.8-5.7-8.9-10.1c-2.1-4.4-3.2-9.5-3.2-15.3c0-9.1,2.3-16.1,6.8-21.2c4.5-5.1,10.8-7.6,18.9-7.6c7.8,0,14,2.6,18.6,7.8
			C764,330.7,766.2,337.7,766.2,346.6z M723.8,346.6c0,7.1,1.4,12.5,4.3,16.3c2.8,3.7,7,5.6,12.5,5.6c5.5,0,9.7-1.9,12.6-5.6
			c2.9-3.7,4.3-9.1,4.3-16.3c0-7.1-1.4-12.5-4.3-16.1c-2.9-3.7-7.1-5.5-12.7-5.5c-5.5,0-9.7,1.8-12.5,5.4
			C725.2,334,723.8,339.4,723.8,346.6z"/>
		<path class="st9" d="M799,368.5c1.5,0,2.9-0.1,4.3-0.3c1.4-0.2,2.5-0.4,3.3-0.7v6.5c-0.9,0.4-2.3,0.8-4,1.1
			c-1.8,0.3-3.4,0.4-4.8,0.4c-10.8,0-16.2-5.7-16.2-17v-33.1h-8v-4.1l8-3.5l3.6-11.9h4.9v12.9h16.2v6.6h-16.2v32.8
			c0,3.4,0.8,5.9,2.4,7.7C794.1,367.6,796.2,368.5,799,368.5z"/>
		<path class="st9" d="M841.3,375.5c-8.2,0-14.7-2.5-19.5-7.5c-4.8-5-7.1-12-7.1-20.9c0-9,2.2-16.1,6.6-21.4
			c4.4-5.3,10.4-7.9,17.8-7.9c7,0,12.5,2.3,16.6,6.9c4.1,4.6,6.1,10.6,6.1,18.2v5.3h-38.4c0.2,6.5,1.8,11.5,5,14.9
			c3.1,3.4,7.5,5.1,13.2,5.1c6,0,11.9-1.3,17.8-3.8v7.5c-3,1.3-5.8,2.2-8.5,2.8C848.3,375.2,845.1,375.5,841.3,375.5z M839,324.8
			c-4.5,0-8,1.5-10.7,4.4c-2.7,2.9-4.2,6.9-4.7,12.1h29.1c0-5.3-1.2-9.4-3.6-12.2C846.8,326.3,843.4,324.8,839,324.8z"/>
		<path class="st9" d="M898.4,375.5c-8.1,0-14.3-2.5-18.7-7.4c-4.4-5-6.6-12-6.6-21.1c0-9.3,2.2-16.5,6.7-21.6
			c4.5-5.1,10.9-7.6,19.2-7.6c2.7,0,5.4,0.3,8,0.9c2.7,0.6,4.8,1.3,6.3,2l-2.6,7.2c-1.9-0.7-3.9-1.4-6.1-1.9
			c-2.2-0.5-4.2-0.7-5.8-0.7c-11.3,0-17,7.2-17,21.6c0,6.8,1.4,12.1,4.1,15.8c2.8,3.7,6.8,5.5,12.3,5.5c4.6,0,9.4-1,14.3-3v7.5
			C908.8,374.5,904.1,375.5,898.4,375.5z"/>
		<path class="st9" d="M943.7,368.5c1.5,0,2.9-0.1,4.3-0.3c1.4-0.2,2.5-0.4,3.3-0.7v6.5c-0.9,0.4-2.3,0.8-4,1.1
			c-1.8,0.3-3.4,0.4-4.8,0.4c-10.8,0-16.2-5.7-16.2-17v-33.1h-8v-4.1l8-3.5l3.6-11.9h4.9v12.9h16.2v6.6h-16.2v32.8
			c0,3.4,0.8,5.9,2.4,7.7C938.7,367.6,940.9,368.5,943.7,368.5z M948.9,389.2c0,3.3-1.3,5.8-3.9,7.6c-2.6,1.8-6.4,2.7-11.5,2.7
			c-1.7,0-3.4-0.2-4.9-0.5v-5.4c1.5,0.3,3.3,0.4,5.3,0.4c2.7,0,4.7-0.3,6.1-1c1.4-0.7,2.1-1.9,2.1-3.8c0-1.5-0.7-2.6-2-3.5
			c-1.3-0.9-3.9-1.6-7.6-2.2l4.5-9h5.6l-2.8,5.8C945.9,381.6,948.9,384.6,948.9,389.2z"/>
		<path class="st9" d="M961.7,303.7c0-1.9,0.5-3.3,1.4-4.2c0.9-0.9,2.1-1.3,3.6-1.3c1.4,0,2.5,0.5,3.5,1.4c1,0.9,1.5,2.3,1.5,4.2
			c0,1.9-0.5,3.3-1.5,4.2c-1,0.9-2.1,1.4-3.5,1.4c-1.4,0-2.6-0.5-3.6-1.4S961.7,305.6,961.7,303.7z M970.9,374.5h-8.4v-55.7h8.4
			V374.5z"/>
		<path class="st9" d="M1012.3,375.5c-8.2,0-14.7-2.5-19.5-7.5c-4.8-5-7.1-12-7.1-20.9c0-9,2.2-16.1,6.6-21.4
			c4.4-5.3,10.4-7.9,17.8-7.9c7,0,12.5,2.3,16.6,6.9c4.1,4.6,6.1,10.6,6.1,18.2v5.3h-38.4c0.2,6.5,1.8,11.5,5,14.9
			c3.1,3.4,7.5,5.1,13.2,5.1c6,0,11.9-1.3,17.8-3.8v7.5c-3,1.3-5.8,2.2-8.5,2.8C1019.2,375.2,1016,375.5,1012.3,375.5z M1010,324.8
			c-4.5,0-8,1.5-10.7,4.4c-2.7,2.9-4.2,6.9-4.7,12.1h29.1c0-5.3-1.2-9.4-3.6-12.2C1017.8,326.3,1014.4,324.8,1010,324.8z"/>
		<path class="st9" d="M1046.4,303.7c0-1.9,0.5-3.3,1.4-4.2c0.9-0.9,2.1-1.3,3.6-1.3c1.4,0,2.5,0.5,3.5,1.4c1,0.9,1.5,2.3,1.5,4.2
			c0,1.9-0.5,3.3-1.5,4.2c-1,0.9-2.1,1.4-3.5,1.4c-1.4,0-2.6-0.5-3.6-1.4C1046.9,307,1046.4,305.6,1046.4,303.7z M1055.6,374.5h-8.4
			v-55.7h8.4V374.5z"/>
		<path class="st9" d="M1143.7,354.7c0,6.5-2.4,11.6-7.1,15.3c-4.7,3.7-11.2,5.5-19.3,5.5c-8.8,0-15.6-1.1-20.3-3.4v-8.3
			c3,1.3,6.4,2.3,10,3c3.6,0.7,7.1,1.1,10.7,1.1c5.8,0,10.1-1.1,13-3.3c2.9-2.2,4.4-5.2,4.4-9.1c0-2.6-0.5-4.7-1.6-6.3
			c-1-1.6-2.8-3.2-5.2-4.5c-2.4-1.4-6.1-3-11.1-4.7c-6.9-2.5-11.8-5.4-14.8-8.8c-3-3.4-4.4-7.8-4.4-13.3c0-5.7,2.1-10.3,6.5-13.7
			c4.3-3.4,10-5.1,17.1-5.1c7.4,0,14.2,1.4,20.4,4.1l-2.7,7.5c-6.1-2.6-12.1-3.9-17.9-3.9c-4.6,0-8.1,1-10.7,2.9
			c-2.6,2-3.9,4.7-3.9,8.2c0,2.6,0.5,4.7,1.4,6.3c0.9,1.6,2.5,3.2,4.8,4.5s5.7,2.9,10.3,4.5c7.8,2.8,13.2,5.8,16.1,8.9
			C1142.2,345.5,1143.7,349.6,1143.7,354.7z"/>
		<path class="st9" d="M1205.7,346.6c0,9.1-2.3,16.2-6.9,21.3c-4.6,5.1-10.9,7.6-19,7.6c-5,0-9.4-1.2-13.3-3.5
			c-3.9-2.3-6.8-5.7-8.9-10.1c-2.1-4.4-3.2-9.5-3.2-15.3c0-9.1,2.3-16.1,6.8-21.2c4.5-5.1,10.8-7.6,18.9-7.6c7.8,0,14,2.6,18.6,7.8
			S1205.7,337.7,1205.7,346.6z M1163.2,346.6c0,7.1,1.4,12.5,4.3,16.3c2.8,3.7,7,5.6,12.5,5.6c5.5,0,9.7-1.9,12.6-5.6
			s4.3-9.1,4.3-16.3c0-7.1-1.4-12.5-4.3-16.1c-2.9-3.7-7.1-5.5-12.7-5.5c-5.5,0-9.7,1.8-12.5,5.4
			C1164.6,334,1163.2,339.4,1163.2,346.6z"/>
		<path class="st9" d="M1242.7,375.5c-8.1,0-14.3-2.5-18.7-7.4c-4.4-5-6.6-12-6.6-21.1c0-9.3,2.2-16.5,6.7-21.6
			c4.5-5.1,10.9-7.6,19.2-7.6c2.7,0,5.4,0.3,8,0.9c2.7,0.6,4.8,1.3,6.3,2l-2.6,7.2c-1.9-0.7-3.9-1.4-6.1-1.9
			c-2.2-0.5-4.2-0.7-5.8-0.7c-11.3,0-17,7.2-17,21.6c0,6.8,1.4,12.1,4.1,15.8c2.8,3.7,6.8,5.5,12.3,5.5c4.6,0,9.4-1,14.3-3v7.5
			C1253,374.5,1248.4,375.5,1242.7,375.5z"/>
		<path class="st9" d="M1269.3,303.7c0-1.9,0.5-3.3,1.4-4.2c0.9-0.9,2.1-1.3,3.6-1.3c1.4,0,2.5,0.5,3.5,1.4c1,0.9,1.5,2.3,1.5,4.2
			c0,1.9-0.5,3.3-1.5,4.2c-1,0.9-2.1,1.4-3.5,1.4c-1.4,0-2.6-0.5-3.6-1.4C1269.7,307,1269.3,305.6,1269.3,303.7z M1278.4,374.5h-8.4
			v-55.7h8.4V374.5z"/>
		<path class="st9" d="M1330.5,374.5l-1.7-7.9h-0.4c-2.8,3.5-5.5,5.9-8.3,7.1c-2.8,1.2-6.2,1.9-10.3,1.9c-5.5,0-9.8-1.4-13-4.3
			c-3.1-2.8-4.7-6.9-4.7-12.1c0-11.2,9-17.1,27-17.7l9.4-0.3v-3.5c0-4.4-0.9-7.6-2.8-9.7c-1.9-2.1-4.9-3.1-9-3.1
			c-4.6,0-9.9,1.4-15.7,4.3l-2.6-6.5c2.7-1.5,5.7-2.7,9-3.5c3.3-0.8,6.5-1.3,9.8-1.3c6.6,0,11.6,1.5,14.8,4.4
			c3.2,3,4.8,7.7,4.8,14.2v38H1330.5z M1311.5,368.5c5.2,0,9.4-1.4,12.4-4.3c3-2.9,4.5-6.9,4.5-12.1v-5l-8.4,0.4
			c-6.7,0.2-11.5,1.3-14.5,3.1c-3,1.8-4.4,4.7-4.4,8.6c0,3,0.9,5.4,2.8,7C1305.6,367.7,1308.2,368.5,1311.5,368.5z"/>
		<path class="st9" d="M1362.6,374.5h-8.4v-79.1h8.4V374.5z"/>
		<path class="st9" d="M1404,375.5c-8.2,0-14.7-2.5-19.5-7.5c-4.8-5-7.1-12-7.1-20.9c0-9,2.2-16.1,6.6-21.4
			c4.4-5.3,10.4-7.9,17.8-7.9c7,0,12.5,2.3,16.6,6.9c4.1,4.6,6.1,10.6,6.1,18.2v5.3h-38.4c0.2,6.5,1.8,11.5,5,14.9
			c3.1,3.4,7.5,5.1,13.2,5.1c6,0,11.9-1.3,17.8-3.8v7.5c-3,1.3-5.8,2.2-8.5,2.8C1411,375.2,1407.8,375.5,1404,375.5z M1401.7,324.8
			c-4.5,0-8,1.5-10.7,4.4c-2.7,2.9-4.2,6.9-4.7,12.1h29.1c0-5.3-1.2-9.4-3.6-12.2S1406.1,324.8,1401.7,324.8z"/>
	</g>
</g>
</svg>
