<?xml version="1.0" encoding="utf-8"?>
<!-- Generator: Adobe Illustrator 22.0.1, SVG Export Plug-In . SVG Version: 6.00 Build 0)  -->
<svg version="1.1" id="Layer_1" xmlns="http://www.w3.org/2000/svg" xmlns:xlink="http://www.w3.org/1999/xlink" x="0px" y="0px"
	 viewBox="0 0 1920 520.6" style="enable-background:new 0 0 1920 520.6;" xml:space="preserve">
<style type="text/css">
	.st0{fill:#FFFFFF;}
</style>
<g>
	<path class="st0" d="M902.1,280.9h-34.5L832,211.7h-0.6c0.8,10.8,1.2,19.2,1.2,24.9v44.3h-23.3v-98.3h34.4l35.4,68.2h0.4
		c-0.7-9.9-0.9-17.9-0.9-23.9v-44.4h23.4L902.1,280.9L902.1,280.9z"/>
	<polygon class="st0" points="980.9,280.9 923.1,280.9 923.1,182.6 980.9,182.6 980.9,204 949.4,204 949.4,219.4 978.6,219.4 
		978.6,240.7 949.4,240.7 949.4,259.2 980.9,259.2 	"/>
	<path class="st0" d="M1022,231.6c0,19,6.5,28.5,19.6,28.5c6.6,0,11.6-2.3,14.8-7c3.2-4.6,4.8-11.8,4.8-21.6
		c0-9.8-1.7-17.1-4.9-21.7c-3.2-4.7-8.1-7-14.7-7C1028.7,202.9,1022,212.4,1022,231.6 M1088.9,231.6c0,16.6-4,29.1-12,37.7
		c-8,8.6-19.8,12.9-35.3,12.9c-15.2,0-27-4.3-35.1-13c-8.1-8.6-12.2-21.2-12.2-37.8c0-16.3,4.1-28.8,12.2-37.4
		c8.1-8.6,19.9-12.9,35.3-12.9c15.5,0,27.2,4.3,35.2,12.8C1085,202.5,1088.9,215.1,1088.9,231.6"/>
	<path class="st0" d="M1161.2,182.6h29.5l-31.9,98.3h-31l-31.7-98.3h29.6l13.3,49.8c2.7,11.1,4.2,18.8,4.5,23.1
		c0.3-3.1,0.9-7,1.9-11.8c0.9-4.7,1.7-8.4,2.5-11.1L1161.2,182.6z"/>
	<rect x="1201.2" y="182.6" class="st0" width="26.4" height="98.3"/>
	<polygon class="st0" points="1291.5,280.9 1265.3,280.9 1265.3,204.3 1241.5,204.3 1241.5,182.6 1315.2,182.6 1315.2,204.3 
		1291.5,204.3 	"/>
	<path class="st0" d="M1378.6,240.7l-4.2-16.1c-1-3.6-2.2-8.2-3.6-13.9c-1.4-5.6-2.3-9.8-2.7-12.3c-0.4,2.3-1.2,6-2.4,11.3
		c-1.2,5.2-3.8,15.6-7.8,31L1378.6,240.7L1378.6,240.7z M1388.8,280.9l-4.8-18.4h-31.6l-4.9,18.4h-28.9l31.7-98.6h35l32.1,98.6
		H1388.8z"/>
	<path class="st0" d="M820.8,317.3c-2,0-3.6,0.7-4.7,2.3c-1.1,1.6-1.7,3.7-1.7,6.5c0,5.8,2.2,8.6,6.4,8.6c1.8,0,4-0.4,6.5-1.3v4.6
		c-2.1,0.9-4.4,1.3-7,1.3c-3.6,0-6.5-1.2-8.4-3.4c-2-2.2-2.9-5.5-2.9-9.8c0-2.7,0.5-5.1,1.4-7c1-2,2.3-3.6,4.1-4.6
		c1.8-1.1,3.9-1.7,6.3-1.7c2.5,0,5,0.6,7.4,1.8l-1.7,4.5c-0.9-0.5-1.9-0.9-2.9-1.2C822.6,317.4,821.7,317.3,820.8,317.3"/>
	<polygon class="st0" points="848.6,339 834,339 834,313.1 848.6,313.1 848.6,317.6 839.4,317.6 839.4,323.3 847.9,323.3 
		847.9,327.8 839.4,327.8 839.4,334.4 848.6,334.4 	"/>
	<path class="st0" d="M877.8,339H871l-11-19.5h-0.2c0.2,3.5,0.3,5.9,0.3,7.4V339h-4.8v-25.8h6.8l11,19.4h0.1
		c-0.2-3.3-0.2-5.7-0.2-7.1v-12.3h4.9L877.8,339L877.8,339z"/>
	<polygon class="st0" points="895.4,339 890,339 890,317.7 883.1,317.7 883.1,313.1 902.3,313.1 902.3,317.7 895.4,317.7 	"/>
	<path class="st0" d="M913,324.6h1.7c1.7,0,3-0.2,3.7-0.8c0.8-0.6,1.2-1.5,1.2-2.7s-0.4-2.1-1.2-2.7c-0.8-0.5-2.1-0.7-3.8-0.7H913
		V324.6L913,324.6z M913,329v9.9h-5.4v-25.8h7.4c3.5,0,6,0.7,7.6,1.9c1.7,1.2,2.5,3.2,2.5,5.8c0,1.5-0.4,2.9-1.2,4.1
		c-0.8,1.2-2,2.2-3.5,2.7c3.8,5.8,6.3,9.6,7.5,11.3h-6l-6-9.9L913,329L913,329z"/>
	<path class="st0" d="M953,313.1v16.7c0,1.9-0.4,3.6-1.2,5.1c-0.8,1.4-2.1,2.6-3.6,3.3c-1.6,0.7-3.5,1.2-5.6,1.2
		c-3.2,0-5.8-0.8-7.6-2.6c-1.8-1.7-2.7-4.1-2.7-7v-16.6h5.4V329c0,2,0.4,3.5,1.2,4.4c0.7,0.9,2.1,1.4,3.9,1.4c1.7,0,3.1-0.5,3.8-1.4
		c0.8-0.9,1.2-2.4,1.2-4.4v-15.8L953,313.1L953,313.1z"/>
	<polygon class="st0" points="960.7,339 960.7,313.1 966,313.1 966,334.4 976.3,334.4 976.3,339 	"/>
	<path class="st0" d="M1015.3,339h-6.9l-11-19.5h-0.2c0.2,3.5,0.3,5.9,0.3,7.4V339h-4.8v-25.8h6.8l11,19.4h0.1
		c-0.2-3.3-0.2-5.7-0.2-7.1v-12.3h4.8L1015.3,339L1015.3,339z"/>
	<path class="st0" d="M1035.4,328.2c-1.7-5.5-2.7-8.7-2.9-9.4c-0.2-0.7-0.3-1.3-0.4-1.7c-0.4,1.5-1.5,5.2-3.3,11.2H1035.4z
		 M1038.6,339l-1.8-6.1h-9.3l-1.8,6.1h-5.8l8.9-25.9h6.5l8.9,25.9H1038.6z"/>
	<polygon class="st0" points="1058.8,339 1053.4,339 1053.4,317.7 1046.5,317.7 1046.5,313.1 1065.7,313.1 1065.7,317.7 
		1058.8,317.7 	"/>
	<rect x="1071" y="313.1" class="st0" width="5.4" height="25.8"/>
	<path class="st0" d="M1088.6,326c0,2.9,0.5,5.1,1.6,6.5c1.1,1.5,2.7,2.2,4.8,2.2c4.3,0,6.5-2.9,6.5-8.7c0-5.8-2.2-8.7-6.4-8.7
		c-2.2,0-3.7,0.7-4.8,2.2C1089.2,320.9,1088.6,323.2,1088.6,326 M1107.2,326c0,4.3-1.1,7.5-3.1,9.9s-5.1,3.5-8.9,3.5
		c-3.9,0-6.9-1.2-8.9-3.5c-2.1-2.3-3.1-5.6-3.1-9.9c0-4.3,1.1-7.6,3.1-9.9c2.1-2.2,5.1-3.4,8.9-3.4c3.9,0,6.9,1.2,8.9,3.4
		C1106.1,318.4,1107.2,321.8,1107.2,326"/>
	<path class="st0" d="M1136.3,339h-6.8l-11-19.5h-0.2c0.2,3.5,0.3,5.9,0.3,7.4V339h-4.8v-25.8h6.8l11,19.4h0.2
		c-0.2-3.3-0.2-5.7-0.2-7.1v-12.3h4.8L1136.3,339L1136.3,339z"/>
	<path class="st0" d="M1156.5,328.2c-1.7-5.5-2.7-8.7-2.9-9.4c-0.2-0.7-0.4-1.3-0.4-1.7c-0.4,1.5-1.5,5.2-3.3,11.2H1156.5z
		 M1159.6,339l-1.8-6.1h-9.3l-1.8,6.1h-5.8l8.9-25.9h6.5l8.9,25.9H1159.6z"/>
	<polygon class="st0" points="1170,339 1170,313.1 1175.4,313.1 1175.4,334.4 1185.7,334.4 1185.7,339 	"/>
	<path class="st0" d="M1217.6,325.9c0-5.5-2.4-8.3-7.2-8.3h-2.9v16.8h2.3C1215,334.4,1217.6,331.6,1217.6,325.9 M1223.2,325.8
		c0,4.2-1.2,7.5-3.6,9.8s-5.8,3.4-10.3,3.4h-7.2v-25.8h8c4.1,0,7.4,1.1,9.7,3.3C1222,318.7,1223.2,321.8,1223.2,325.8"/>
	<polygon class="st0" points="1244.4,339 1229.8,339 1229.8,313.1 1244.4,313.1 1244.4,317.6 1235.2,317.6 1235.2,323.3 
		1243.8,323.3 1243.8,327.8 1235.2,327.8 1235.2,334.4 1244.4,334.4 	"/>
	<path class="st0" d="M1267.2,324.6h1.7c1.7,0,2.9-0.2,3.7-0.8c0.8-0.6,1.2-1.5,1.2-2.7s-0.4-2.1-1.2-2.7c-0.8-0.5-2.2-0.7-3.8-0.7
		h-1.7V324.6z M1267.2,329v9.9h-5.4v-25.8h7.4c3.4,0,6,0.7,7.6,1.9c1.7,1.2,2.5,3.2,2.5,5.8c0,1.5-0.4,2.9-1.2,4.1
		c-0.8,1.2-2,2.2-3.5,2.7c3.8,5.8,6.3,9.6,7.5,11.3h-6l-6-9.9L1267.2,329L1267.2,329z"/>
	<polygon class="st0" points="1301.2,339 1286.6,339 1286.6,313.1 1301.2,313.1 1301.2,317.6 1292,317.6 1292,323.3 1300.6,323.3 
		1300.6,327.8 1292,327.8 1292,334.4 1301.2,334.4 	"/>
	<path class="st0" d="M1322.9,331.8c0,2.3-0.8,4.1-2.5,5.5c-1.7,1.3-4,2-6.9,2c-2.7,0-5.1-0.5-7.2-1.6v-5.1c1.7,0.7,3.1,1.3,4.3,1.7
		c1.2,0.3,2.2,0.5,3.2,0.5c1.2,0,2.1-0.2,2.7-0.7c0.7-0.4,1-1.2,1-2.1c0-0.5-0.2-1-0.4-1.3c-0.2-0.4-0.7-0.7-1.2-1.2
		c-0.5-0.3-1.7-0.9-3.3-1.7c-1.6-0.7-2.7-1.5-3.5-2.2c-0.8-0.7-1.4-1.5-1.9-2.4c-0.5-0.9-0.7-2-0.7-3.2c0-2.3,0.7-4.1,2.3-5.4
		c1.5-1.3,3.6-2,6.3-2c1.3,0,2.6,0.2,3.8,0.5c1.2,0.3,2.5,0.7,3.7,1.3l-1.7,4.2c-1.3-0.6-2.5-1-3.3-1.2c-0.9-0.2-1.7-0.3-2.6-0.3
		c-1,0-1.8,0.2-2.3,0.7s-0.8,1.2-0.8,1.9c0,0.5,0.1,0.9,0.3,1.2c0.2,0.3,0.6,0.7,1.1,1.1c0.5,0.3,1.7,0.9,3.4,1.8
		c2.4,1.2,4,2.3,4.9,3.5C1322.4,328.7,1322.9,330.1,1322.9,331.8"/>
	<path class="st0" d="M1349.5,313.1v16.7c0,1.9-0.4,3.6-1.2,5.1c-0.8,1.4-2.1,2.6-3.6,3.3c-1.6,0.7-3.5,1.2-5.6,1.2
		c-3.2,0-5.8-0.8-7.6-2.6c-1.8-1.7-2.7-4.1-2.7-7v-16.6h5.4V329c0,2,0.4,3.5,1.2,4.4c0.8,0.9,2.1,1.4,3.9,1.4c1.7,0,3.1-0.5,3.8-1.4
		s1.2-2.4,1.2-4.4v-15.8L1349.5,313.1L1349.5,313.1z"/>
	<path class="st0" d="M1362.5,324.6h1.7c1.7,0,3-0.2,3.7-0.8c0.8-0.6,1.2-1.5,1.2-2.7s-0.4-2.1-1.2-2.7c-0.8-0.5-2.1-0.7-3.8-0.7
		h-1.7L1362.5,324.6L1362.5,324.6z M1362.5,329v9.9h-5.4v-25.8h7.4c3.5,0,6,0.7,7.6,1.9c1.7,1.2,2.5,3.2,2.5,5.8
		c0,1.5-0.4,2.9-1.2,4.1c-0.8,1.2-2,2.2-3.5,2.7c3.8,5.8,6.3,9.6,7.5,11.3h-6l-6-9.9L1362.5,329L1362.5,329z"/>
	<path class="st0" d="M1397,331.8c0,2.3-0.8,4.1-2.5,5.5c-1.7,1.3-4,2-6.9,2c-2.7,0-5.1-0.5-7.2-1.6v-5.1c1.7,0.7,3.1,1.3,4.3,1.7
		c1.2,0.3,2.2,0.5,3.2,0.5c1.2,0,2.1-0.2,2.7-0.7s1-1.2,1-2.1c0-0.5-0.2-1-0.4-1.3c-0.2-0.4-0.7-0.7-1.2-1.2
		c-0.6-0.3-1.7-0.9-3.3-1.7c-1.6-0.7-2.7-1.5-3.5-2.2c-0.7-0.7-1.4-1.5-1.8-2.4c-0.5-0.9-0.7-2-0.7-3.2c0-2.3,0.7-4.1,2.3-5.4
		c1.5-1.3,3.6-2,6.3-2c1.3,0,2.6,0.2,3.7,0.5c1.2,0.3,2.5,0.7,3.7,1.3l-1.7,4.2c-1.3-0.6-2.5-1-3.4-1.2c-0.9-0.2-1.7-0.3-2.6-0.3
		c-1,0-1.8,0.2-2.3,0.7c-0.6,0.5-0.8,1.2-0.8,1.9c0,0.5,0.1,0.9,0.3,1.2s0.6,0.7,1.1,1.1s1.6,0.9,3.4,1.8c2.4,1.2,4,2.3,4.9,3.5
		C1396.5,328.7,1397,330.1,1397,331.8"/>
	<polygon class="st0" points="1417.6,339 1403,339 1403,313.1 1417.6,313.1 1417.6,317.6 1408.4,317.6 1408.4,323.3 1416.9,323.3 
		1416.9,327.8 1408.4,327.8 1408.4,334.4 1417.6,334.4 	"/>
	<polygon class="st0" points="536.1,264.8 538.9,259.2 542,259.2 537.5,267.5 537.5,272.7 534.6,272.7 534.6,267.6 530.2,259.2 
		533.3,259.2 	"/>
	<path class="st0" d="M546.6,265.9c0,1.5,0.2,2.7,0.8,3.4c0.6,0.7,1.4,1.2,2.6,1.2c2.3,0,3.5-1.5,3.5-4.6s-1.2-4.6-3.4-4.6
		c-1.2,0-2,0.4-2.6,1.2C546.8,263.3,546.6,264.4,546.6,265.9 M556.4,265.9c0,2.2-0.6,4-1.7,5.1c-1.1,1.2-2.7,1.8-4.8,1.8
		s-3.6-0.6-4.8-1.8c-1.1-1.2-1.7-2.9-1.7-5.2c0-2.2,0.6-4,1.7-5.1c1.1-1.2,2.7-1.8,4.8-1.8s3.6,0.6,4.8,1.8S556.4,263.7,556.4,265.9
		"/>
	<path class="st0" d="M570.7,259.2v8.8c0,1-0.2,1.9-0.7,2.7c-0.4,0.7-1.1,1.3-1.9,1.7s-1.8,0.6-3,0.6c-1.7,0-3.1-0.4-4.1-1.3
		c-1-0.9-1.4-2.2-1.4-3.6v-8.7h2.9v8.3c0,1.1,0.2,1.8,0.7,2.3c0.4,0.5,1.1,0.7,2.1,0.7c0.9,0,1.7-0.2,2.1-0.7
		c0.4-0.5,0.7-1.2,0.7-2.3v-8.3L570.7,259.2L570.7,259.2z"/>
	<polygon class="st0" points="579.6,272.7 576.7,272.7 576.7,261.6 573.1,261.6 573.1,259.2 583.3,259.2 583.3,261.6 579.6,261.6 	
		"/>
	<polygon class="st0" points="596.8,272.7 594,272.7 594,266.9 588.6,266.9 588.6,272.7 585.7,272.7 585.7,259.2 588.6,259.2 
		588.6,264.5 594,264.5 594,259.2 596.8,259.2 	"/>
	<polygon class="st0" points="620.7,272.7 617.5,272.7 613.9,267.1 612.7,267.9 612.7,272.7 609.8,272.7 609.8,259.2 612.7,259.2 
		612.7,265.4 613.8,263.8 617.5,259.2 620.7,259.2 615.9,265.2 	"/>
	<polygon class="st0" points="625.1,272.7 625.1,259.2 627.9,259.2 627.9,270.4 633.4,270.4 633.4,272.7 	"/>
	<rect x="638.5" y="259.2" class="st0" width="2.9" height="13.5"/>
	<path class="st0" d="M659.4,272.7h-3.6l-5.9-10.3h-0.1c0.1,1.8,0.2,3.1,0.2,3.9v6.4h-2.6v-13.5h3.6l5.9,10.1h0.1
		c-0.1-1.7-0.2-3-0.2-3.7v-6.4h2.6V272.7z"/>
	<rect x="665.5" y="259.2" class="st0" width="2.9" height="13.5"/>
	<path class="st0" d="M680.2,261.4c-1.1,0-1.9,0.4-2.5,1.2c-0.6,0.8-0.9,1.9-0.9,3.4c0,3,1.2,4.5,3.4,4.5c1,0,2.2-0.2,3.5-0.7v2.4
		c-1.1,0.4-2.3,0.7-3.7,0.7c-2,0-3.5-0.6-4.6-1.8c-1.1-1.2-1.6-2.9-1.6-5.1c0-1.4,0.2-2.7,0.7-3.7c0.5-1.1,1.2-1.9,2.2-2.4
		c1-0.6,2.1-0.8,3.4-0.8s2.7,0.3,4,0.9l-0.9,2.3c-0.5-0.2-1-0.4-1.5-0.7C681.2,261.5,680.7,261.4,680.2,261.4"/>
	<polygon class="st0" points="694.6,182.7 621.9,182.7 584.9,214.9 571.9,182.7 502.4,182.7 530.7,251.5 616.2,251.5 	"/>
	<polygon class="st0" points="508.9,339.5 571.7,339.5 593.2,280.9 530.3,280.9 	"/>
	<polygon class="st0" points="778.6,182.7 705.1,182.7 626.7,251.5 686.9,251.5 	"/>
	<polygon class="st0" points="578.9,339.5 602.6,339.5 621.7,288.4 658.5,339.5 730.4,339.5 687.1,280.9 600.6,280.9 	"/>
</g>
</svg>
