<?xml version="1.0" encoding="utf-8"?>
<!-- Generator: Adobe Illustrator 22.0.1, SVG Export Plug-In . SVG Version: 6.00 Build 0)  -->
<svg version="1.1" id="Layer_1" xmlns="http://www.w3.org/2000/svg" xmlns:xlink="http://www.w3.org/1999/xlink" x="0px" y="0px"
	 viewBox="0 0 1920 520.6" style="enable-background:new 0 0 1920 520.6;" xml:space="preserve">
<style type="text/css">
	.st0{fill:#FFFFFF;}
</style>
<g>
	<path class="st0" d="M876.9,289.9h-49.4l-51.1-99.3h-0.8c1.2,15.6,1.8,27.6,1.8,35.8v63.6H744v-141h49.3l50.9,97.9h0.6
		c-1-14.3-1.3-25.7-1.3-34.2v-63.7h33.6v141H876.9z"/>
	<polygon class="st0" points="989.9,289.9 907.1,289.9 907.1,148.8 989.9,148.8 989.9,179.5 944.8,179.5 944.8,201.6 986.6,201.6 
		986.6,232.1 944.8,232.1 944.8,258.8 989.9,258.8 	"/>
	<path class="st0" d="M1049,219.2c0,27.3,9.4,40.9,28.2,40.9c9.5,0,16.6-3.3,21.3-10c4.6-6.7,6.9-17,6.9-31c0-14-2.4-24.5-7-31.1
		c-4.6-6.8-11.6-10.1-21-10.1C1058.5,178,1049,191.6,1049,219.2 M1145,219.2c0,23.8-5.7,41.7-17.2,54.1
		c-11.5,12.4-28.4,18.5-50.6,18.5c-21.9,0-38.7-6.2-50.4-18.7c-11.6-12.4-17.5-30.4-17.5-54.2c0-23.4,5.8-41.3,17.5-53.7
		c11.6-12.4,28.5-18.5,50.6-18.5c22.2,0,39.1,6.2,50.5,18.4C1139.3,177.4,1145,195.4,1145,219.2"/>
	<path class="st0" d="M1248.6,148.8h42.3l-45.7,141h-44.4l-45.5-141h42.4l19,71.4c3.9,15.9,6.1,27,6.4,33.2
		c0.5-4.5,1.3-10.1,2.7-16.9c1.3-6.8,2.5-12,3.6-15.9L1248.6,148.8z"/>
	<rect x="1306" y="148.8" class="st0" width="37.9" height="141"/>
	<polygon class="st0" points="1435.6,289.9 1398,289.9 1398,180 1363.9,180 1363.9,148.8 1469.6,148.8 1469.6,180 1435.6,180 	"/>
	<path class="st0" d="M1560.5,232.1l-6.1-23.2c-1.4-5.1-3.1-11.8-5.1-20c-2-8.1-3.3-14-3.9-17.6c-0.6,3.3-1.7,8.7-3.4,16.2
		c-1.7,7.5-5.5,22.3-11.2,44.4h29.7V232.1z M1575.2,289.9l-6.9-26.4H1523l-7,26.4h-41.5l45.5-141.5h50.3l46.1,141.5H1575.2z"/>
	<path class="st0" d="M760.3,342c-2.9,0-5.1,1.1-6.8,3.3c-1.5,2.3-2.4,5.3-2.4,9.3c0,8.3,3.1,12.4,9.1,12.4c2.6,0,5.7-0.6,9.3-1.9
		v6.5c-3,1.3-6.3,1.9-10,1.9c-5.2,0-9.3-1.7-12.1-4.9c-2.9-3.2-4.2-8-4.2-14c0-3.9,0.7-7.2,2-10.1c1.4-2.9,3.3-5.1,5.9-6.7
		s5.6-2.4,9-2.4c3.6,0,7.1,0.8,10.6,2.6l-2.5,6.4c-1.3-0.7-2.7-1.3-4.2-1.8C762.9,342.3,761.6,342,760.3,342"/>
	<polygon class="st0" points="800.2,373.2 779.3,373.2 779.3,336.1 800.2,336.1 800.2,342.5 787,342.5 787,350.7 799.2,350.7 
		799.2,357.1 787,357.1 787,366.6 800.2,366.6 	"/>
	<path class="st0" d="M842.1,373.2h-9.9l-15.8-28h-0.2c0.4,5,0.5,8.4,0.5,10.6v17.5h-6.9v-37.1h9.7l15.8,27.8h0.1
		c-0.2-4.8-0.4-8.2-0.4-10.2v-17.6h7V373.2L842.1,373.2z"/>
	<polygon class="st0" points="867.3,373.2 859.6,373.2 859.6,342.6 849.7,342.6 849.7,336.1 877.2,336.1 877.2,342.6 867.3,342.6 	
		"/>
	<path class="st0" d="M892.5,352.5h2.5c2.4,0,4.3-0.4,5.3-1.2c1.2-0.8,1.8-2.1,1.8-3.9s-0.6-3-1.8-3.8c-1.2-0.7-3-1.1-5.5-1.1h-2.4
		L892.5,352.5L892.5,352.5z M892.5,358.9v14.3h-7.7v-37.1h10.6c5,0,8.6,1,10.9,2.7c2.4,1.8,3.6,4.6,3.6,8.3c0,2.1-0.6,4.2-1.8,5.8
		s-2.9,3.1-5,3.9c5.5,8.3,9,13.8,10.7,16.2h-8.6l-8.7-14.3h-4V358.9z"/>
	<path class="st0" d="M950,336.1v24c0,2.7-0.6,5.1-1.8,7.2c-1.2,2-3,3.7-5.2,4.8s-5,1.7-8.1,1.7c-4.6,0-8.3-1.2-10.9-3.7
		c-2.6-2.5-3.9-5.8-3.9-10v-23.9h7.7v22.7c0,2.9,0.6,5,1.7,6.3c1.1,1.3,3,2,5.6,2c2.5,0,4.4-0.7,5.5-2c1.2-1.3,1.7-3.4,1.7-6.3
		v-22.7h7.8V336.1z"/>
	<polygon class="st0" points="961,373.2 961,336.1 968.7,336.1 968.7,366.6 983.4,366.6 983.4,373.2 	"/>
	<path class="st0" d="M1039.4,373.2h-9.9l-15.8-28h-0.2c0.4,5,0.5,8.4,0.5,10.6v17.5h-6.9v-37.1h9.7l15.8,27.8h0.1
		c-0.2-4.8-0.4-8.2-0.4-10.2v-17.6h6.9v37.1H1039.4z"/>
	<path class="st0" d="M1068.2,357.7c-2.4-8-3.8-12.5-4.2-13.5c-0.4-1.1-0.5-1.9-0.6-2.5c-0.6,2.1-2.1,7.5-4.8,16H1068.2z
		 M1072.8,373.2l-2.6-8.8h-13.3l-2.6,8.8h-8.3l12.8-37.2h9.4l12.8,37.2H1072.8z"/>
	<polygon class="st0" points="1101.8,373.2 1094,373.2 1094,342.6 1084.2,342.6 1084.2,336.1 1111.6,336.1 1111.6,342.6 
		1101.8,342.6 	"/>
	<rect x="1119.2" y="336.1" class="st0" width="7.7" height="37.1"/>
	<path class="st0" d="M1144.5,354.5c0,4.2,0.7,7.2,2.3,9.4c1.5,2.1,3.8,3.1,6.9,3.1c6.2,0,9.3-4.2,9.3-12.5c0-8.3-3.1-12.5-9.1-12.5
		c-3.1,0-5.3,1.1-6.9,3.2C1145.4,347.3,1144.5,350.5,1144.5,354.5 M1171.1,354.5c0,6.2-1.5,10.8-4.5,14.1c-3,3.3-7.2,5-12.8,5
		s-9.9-1.7-12.8-5c-3-3.3-4.5-8.1-4.5-14.3c0-6.2,1.5-10.9,4.5-14.1c3-3.2,7.2-4.9,12.8-4.9s9.9,1.7,12.8,4.9
		C1169.6,343.7,1171.1,348.5,1171.1,354.5"/>
	<path class="st0" d="M1213,373.2h-9.7l-15.8-28h-0.2c0.4,5,0.5,8.4,0.5,10.6v17.5h-6.9v-37.1h9.7l15.8,27.8h0.2
		c-0.2-4.8-0.4-8.2-0.4-10.2v-17.6h6.9v37.1H1213z"/>
	<path class="st0" d="M1242,357.7c-2.5-8-3.8-12.5-4.2-13.5c-0.4-1.1-0.6-1.9-0.6-2.5c-0.6,2.1-2.1,7.5-4.8,16H1242z M1246.4,373.2
		l-2.6-8.8h-13.3l-2.6,8.8h-8.3l12.8-37.2h9.4l12.8,37.2H1246.4z"/>
	<polygon class="st0" points="1261.3,373.2 1261.3,336.1 1269,336.1 1269,366.6 1283.8,366.6 1283.8,373.2 	"/>
	<path class="st0" d="M1329.5,354.4c0-8-3.4-11.9-10.3-11.9h-4.2v24.1h3.3C1325.8,366.6,1329.5,362.6,1329.5,354.4 M1337.6,354.3
		c0,6.1-1.7,10.8-5.1,14c-3.4,3.2-8.3,4.9-14.7,4.9h-10.3v-37.1h11.4c5.9,0,10.6,1.5,13.9,4.8
		C1335.9,344.1,1337.6,348.6,1337.6,354.3"/>
	<polygon class="st0" points="1368,373.2 1347.1,373.2 1347.1,336.1 1368,336.1 1368,342.5 1354.8,342.5 1354.8,350.7 1367.2,350.7 
		1367.2,357.1 1354.8,357.1 1354.8,366.6 1368,366.6 	"/>
	<path class="st0" d="M1400.7,352.5h2.5c2.5,0,4.2-0.4,5.3-1.2c1.2-0.8,1.8-2.1,1.8-3.9s-0.6-3-1.8-3.8c-1.2-0.7-3.1-1.1-5.5-1.1
		h-2.4V352.5z M1400.7,358.9v14.3h-7.7v-37.1h10.6c4.9,0,8.6,1,10.9,2.7c2.4,1.8,3.6,4.6,3.6,8.3c0,2.1-0.6,4.2-1.8,5.8
		c-1.2,1.7-2.9,3.1-5,3.9c5.5,8.3,9,13.8,10.7,16.2h-8.6l-8.7-14.3h-4V358.9z"/>
	<polygon class="st0" points="1449.5,373.2 1428.6,373.2 1428.6,336.1 1449.5,336.1 1449.5,342.5 1436.3,342.5 1436.3,350.7 
		1448.7,350.7 1448.7,357.1 1436.3,357.1 1436.3,366.6 1449.5,366.6 	"/>
	<path class="st0" d="M1480.7,362.8c0,3.3-1.2,5.9-3.6,8c-2.4,1.9-5.7,2.9-9.9,2.9c-3.9,0-7.4-0.7-10.3-2.3v-7.2
		c2.5,1.1,4.5,1.9,6.2,2.4c1.7,0.5,3.2,0.7,4.6,0.7c1.7,0,3-0.4,3.9-1s1.4-1.7,1.4-3c0-0.7-0.2-1.4-0.6-1.9c-0.4-0.6-1-1.1-1.8-1.7
		c-0.7-0.5-2.4-1.3-4.8-2.5c-2.3-1.1-3.9-2.1-5-3.1c-1.2-1-2-2.1-2.7-3.4s-1-2.9-1-4.6c0-3.3,1.1-5.8,3.3-7.7c2.1-1.9,5.2-2.9,9-2.9
		c1.9,0,3.7,0.2,5.5,0.7c1.7,0.5,3.6,1.1,5.3,1.9l-2.5,6.1c-1.9-0.8-3.6-1.4-4.8-1.7c-1.3-0.4-2.5-0.5-3.7-0.5
		c-1.4,0-2.6,0.4-3.3,1.1c-0.7,0.7-1.2,1.7-1.2,2.7c0,0.7,0.1,1.3,0.5,1.8c0.4,0.5,0.8,1.1,1.5,1.5c0.7,0.5,2.4,1.3,4.9,2.6
		c3.4,1.7,5.7,3.3,7,5C1479.9,358.4,1480.7,360.5,1480.7,362.8"/>
	<path class="st0" d="M1518.8,336.1v24c0,2.7-0.6,5.1-1.8,7.2c-1.2,2-3,3.7-5.2,4.8s-5,1.7-8.1,1.7c-4.6,0-8.3-1.2-10.9-3.7
		c-2.6-2.5-3.9-5.8-3.9-10v-23.9h7.7v22.7c0,2.9,0.6,5,1.7,6.3c1.2,1.3,3,2,5.6,2c2.5,0,4.4-0.7,5.5-2s1.7-3.4,1.7-6.3v-22.7h7.8
		V336.1z"/>
	<path class="st0" d="M1537.5,352.5h2.5c2.5,0,4.3-0.4,5.3-1.2c1.2-0.8,1.7-2.1,1.7-3.9s-0.6-3-1.8-3.8c-1.2-0.7-3-1.1-5.5-1.1h-2.4
		v10H1537.5z M1537.5,358.9v14.3h-7.7v-37.1h10.6c5,0,8.6,1,10.9,2.7c2.4,1.8,3.6,4.6,3.6,8.3c0,2.1-0.6,4.2-1.8,5.8
		c-1.2,1.7-2.9,3.1-5,3.9c5.5,8.3,9,13.8,10.7,16.2h-8.6l-8.7-14.3h-4V358.9z"/>
	<path class="st0" d="M1586.9,362.8c0,3.3-1.2,5.9-3.6,8c-2.4,1.9-5.7,2.9-9.9,2.9c-3.8,0-7.2-0.7-10.3-2.3v-7.2
		c2.5,1.1,4.5,1.9,6.2,2.4s3.2,0.7,4.6,0.7c1.7,0,3-0.4,3.9-1s1.4-1.7,1.4-3c0-0.7-0.2-1.4-0.6-1.9c-0.4-0.6-1-1.1-1.8-1.7
		c-0.8-0.5-2.4-1.3-4.8-2.5c-2.3-1.1-3.9-2.1-5-3.1c-1.1-1-2-2.1-2.6-3.4c-0.7-1.3-1-2.9-1-4.6c0-3.3,1.1-5.8,3.3-7.7
		c2.1-1.9,5.2-2.9,9-2.9c1.9,0,3.7,0.2,5.3,0.7c1.7,0.5,3.6,1.1,5.3,1.9l-2.5,6.1c-1.9-0.8-3.6-1.4-4.9-1.7
		c-1.3-0.4-2.5-0.5-3.7-0.5c-1.4,0-2.6,0.4-3.3,1.1c-0.8,0.7-1.2,1.7-1.2,2.7c0,0.7,0.1,1.3,0.5,1.8c0.4,0.5,0.8,1.1,1.5,1.5
		c0.7,0.5,2.3,1.3,4.9,2.6c3.4,1.7,5.7,3.3,7,5C1586.3,358.4,1586.9,360.5,1586.9,362.8"/>
	<polygon class="st0" points="1616.5,373.2 1595.6,373.2 1595.6,336.1 1616.5,336.1 1616.5,342.5 1603.3,342.5 1603.3,350.7 
		1615.5,350.7 1615.5,357.1 1603.3,357.1 1603.3,366.6 1616.5,366.6 	"/>
	<polygon class="st0" points="351.9,266.7 355.9,258.8 360.3,258.8 353.9,270.6 353.9,278.1 349.7,278.1 349.7,270.8 343.3,258.8 
		347.8,258.8 	"/>
	<path class="st0" d="M366.9,268.4c0,2.1,0.4,3.8,1.2,4.9s2,1.7,3.7,1.7c3.3,0,5-2.1,5-6.5s-1.7-6.5-4.9-6.5c-1.7,0-2.9,0.6-3.7,1.7
		C367.2,264.6,366.9,266.2,366.9,268.4 M381,268.4c0,3.2-0.8,5.7-2.4,7.4c-1.5,1.8-3.9,2.6-6.9,2.6s-5.2-0.8-6.9-2.6
		c-1.5-1.8-2.4-4.2-2.4-7.5c0-3.2,0.8-5.7,2.4-7.4c1.5-1.7,3.9-2.6,6.9-2.6s5.2,0.8,6.9,2.6C380.3,262.7,381,265.2,381,268.4"/>
	<path class="st0" d="M401.4,258.8v12.6c0,1.4-0.4,2.7-1,3.8c-0.6,1.1-1.5,1.9-2.7,2.5c-1.2,0.6-2.6,0.8-4.3,0.8
		c-2.5,0-4.4-0.6-5.8-1.9c-1.4-1.3-2-3.1-2-5.2v-12.5h4.2v11.9c0,1.5,0.4,2.6,1,3.3c0.6,0.7,1.5,1.1,3,1.1c1.3,0,2.4-0.4,3-1.1
		s1-1.8,1-3.3v-11.9h3.8V258.8z"/>
	<polygon class="st0" points="414.3,278.1 410.1,278.1 410.1,262.2 404.9,262.2 404.9,258.8 419.5,258.8 419.5,262.2 414.3,262.2 	
		"/>
	<polygon class="st0" points="439,278.1 434.9,278.1 434.9,269.8 427.2,269.8 427.2,278.1 423.1,278.1 423.1,258.8 427.2,258.8 
		427.2,266.4 434.9,266.4 434.9,258.8 439,258.8 	"/>
	<polygon class="st0" points="473.2,278.1 468.6,278.1 463.5,270 461.7,271.2 461.7,278.1 457.5,278.1 457.5,258.8 461.7,258.8 
		461.7,267.7 463.3,265.3 468.6,258.8 473.2,258.8 466.3,267.3 	"/>
	<polygon class="st0" points="479.5,278.1 479.5,258.8 483.5,258.8 483.5,274.8 491.5,274.8 491.5,278.1 	"/>
	<rect x="498.7" y="258.8" class="st0" width="4.2" height="19.4"/>
	<path class="st0" d="M528.8,278.1h-5.2l-8.4-14.7H515c0.1,2.6,0.2,4.4,0.2,5.6v9.1h-3.7v-19.4h5.2l8.4,14.5h0.1
		c-0.1-2.5-0.2-4.3-0.2-5.3v-9.1h3.7V278.1z"/>
	<rect x="537.5" y="258.8" class="st0" width="4.2" height="19.4"/>
	<path class="st0" d="M558.6,261.8c-1.5,0-2.7,0.6-3.6,1.8c-0.8,1.2-1.3,2.7-1.3,4.9c0,4.3,1.7,6.4,4.9,6.4c1.4,0,3.1-0.4,5-1v3.4
		c-1.5,0.6-3.3,1-5.3,1c-2.9,0-5-0.8-6.5-2.6c-1.5-1.7-2.3-4.2-2.3-7.4c0-2,0.4-3.8,1.1-5.3s1.8-2.7,3.2-3.4c1.4-0.8,3-1.2,4.9-1.2
		s3.8,0.5,5.7,1.3L563,263c-0.7-0.4-1.4-0.6-2.1-1C560.1,262.1,559.3,261.8,558.6,261.8"/>
	<polygon class="st0" points="579.3,149 475,149 421.9,195.2 403.2,149 303.5,149 344,247.7 466.8,247.7 	"/>
	<polygon class="st0" points="312.8,373.9 402.9,373.9 433.8,289.9 343.5,289.9 	"/>
	<polygon class="st0" points="699.8,149 594.3,149 481.8,247.7 568.3,247.7 	"/>
	<polygon class="st0" points="413.3,373.9 447.3,373.9 474.6,300.6 527.5,373.9 630.6,373.9 568.5,289.9 444.3,289.9 	"/>
</g>
</svg>
